<?xml version="1.0" encoding="utf-8" standalone="no"?>
<!DOCTYPE svg PUBLIC "-//W3C//DTD SVG 1.1//EN" "http://www.w3.org/Graphics/SVG/1.1/DTD/svg11.dtd">
<svg width="3000px" height="3000px" version="1.1" xmlns="http://www.w3.org/2000/svg" xmlns:xlink="http://www.w3.org/1999/xlink">
<g id="ideograms">
<path d="M1500.000,830.000 A670.000,670.000 40.000 0,1 1758.224,881.760 L1789.057,807.941 A750.000,750.000 0.000 0,0 1500.000,750.000 Z" style="stroke-linecap:round;fill:rgb(228,26,28);" />
<path d="M1792.483,897.212 A670.000,670.000 40.000 0,1 2159.859,1616.128 L2238.649,1629.994 A750.000,750.000 0.000 0,0 1827.407,825.237 Z" style="stroke-linecap:round;fill:rgb(114,91,130);" />
<path d="M2152.310,1652.944 A670.000,670.000 40.000 0,1 2038.296,1898.920 L2102.571,1946.552 A750.000,750.000 0.000 0,0 2230.198,1671.206 Z" style="stroke-linecap:round;fill:rgb(61,141,149);" />
<path d="M2015.082,1928.475 A670.000,670.000 40.000 0,1 1470.336,2169.343 L1466.794,2249.265 A750.000,750.000 0.000 0,0 2076.584,1979.636 Z" style="stroke-linecap:round;fill:rgb(77,174,74);" />
<path d="M1432.852,2166.627 A670.000,670.000 40.000 0,1 1327.865,2147.510 L1307.312,2224.825 A750.000,750.000 0.000 0,0 1424.834,2246.224 Z" style="stroke-linecap:round;fill:rgb(127,110,133);" />
<path d="M1291.830,2136.840 A670.000,670.000 40.000 0,1 1207.517,2102.788 L1172.593,2174.763 A750.000,750.000 0.000 0,0 1266.974,2212.881 Z" style="stroke-linecap:round;fill:rgb(185,93,109);" />
<path d="M1174.178,2085.440 A670.000,670.000 40.000 0,1 833.373,1432.852 L753.776,1424.834 A750.000,750.000 0.000 0,0 1135.274,2155.344 Z" style="stroke-linecap:round;fill:rgb(255,129,0);" />
<path d="M838.187,1395.580 A670.000,670.000 40.000 0,1 1003.065,1050.605 L943.729,996.946 A750.000,750.000 0.000 0,0 759.165,1383.112 Z" style="stroke-linecap:round;fill:rgb(255,213,34);" />
<path d="M1029.044,1023.449 A670.000,670.000 40.000 0,1 1181.115,910.753 L1143.039,840.395 A750.000,750.000 0.000 0,0 972.811,966.547 Z" style="stroke-linecap:round;fill:rgb(225,198,47);" />
<path d="M1214.656,893.800 A670.000,670.000 40.000 0,1 1310.722,857.292 L1288.121,780.551 A750.000,750.000 0.000 0,0 1180.585,821.417 Z" style="stroke-linecap:round;fill:rgb(167,87,43);" />
<path d="M1347.056,847.690 A670.000,670.000 40.000 0,1 1350.911,846.798 L1333.109,768.804 A750.000,750.000 0.000 0,0 1328.794,769.802 Z" style="stroke-linecap:round;fill:rgb(221,115,143);" />
<path d="M1387.771,839.466 A670.000,670.000 40.000 0,1 1462.433,831.054 L1457.947,751.180 A750.000,750.000 0.000 0,0 1374.370,760.597 Z" style="stroke-linecap:round;fill:rgb(214,137,178);" />
</g>
<g id="track_0">
<path d="M 1292.312,2122.888 A 656.600,656.600 0.00 0,1 1220.4,2094.1 L 1220.4,2094.1 1230.1,2073.6 1239.8,2053.3 1249.5,2033.4 1259.0,2013.9 1268.4,1995.1 1277.6,1977.0 1286.5,1959.8 1295.1,1943.6 1303.3,1928.5 1311.2,1914.5 1318.5,1901.8 1325.4,1890.4 1331.8,1880.3 1337.6,1871.8 1342.8,1864.7 1347.5,1859.2 1351.5,1855.2 1355.0,1852.9 1357.8,1852.1 1359.9,1853.0 1361.4,1855.4 1362.2,1859.5 1362.4,1865.2 1362.0,1872.4 1360.9,1881.1 1359.2,1891.3 1356.9,1903.0 1354.0,1916.0 1350.6,1930.3 1346.6,1945.8 1342.1,1962.4 1337.1,1980.1 1331.7,1998.7 1325.8,2018.1 1319.7,2038.2 1313.2,2058.9 1306.4,2080.0 1299.4,2101.4 1292.3,2122.9  A 656.600,656.600 0.00 0,1 1220.4,2094.1 L 1220.4,2094.1 1230.1,2073.6 1239.8,2053.3 1249.5,2033.4 1259.0,2013.9 1268.4,1995.1 1277.6,1977.0 1286.5,1959.8 1295.1,1943.6 1303.3,1928.5 1311.2,1914.5 1318.5,1901.8 1325.4,1890.4 1331.8,1880.3 1337.6,1871.8 1342.8,1864.7 1347.5,1859.2 1351.5,1855.2 1355.0,1852.9 1357.8,1852.1 1359.9,1853.0 1361.4,1855.4 1362.2,1859.5 1362.4,1865.2 1362.0,1872.4 1360.9,1881.1 1359.2,1891.3 1356.9,1903.0 1354.0,1916.0 1350.6,1930.3 1346.6,1945.8 1342.1,1962.4 1337.1,1980.1 1331.7,1998.7 1325.8,2018.1 1319.7,2038.2 1313.2,2058.9 1306.4,2080.0 1299.4,2101.4 1292.3,2122.9  Z" style="stroke-width: 0.0;  fill: rgb(0,0,0); opacity: 0.167;" />
</g>
</svg>
