<?xml version="1.0" encoding="utf-8" standalone="no"?>
<!DOCTYPE svg PUBLIC "-//W3C//DTD SVG 1.1//EN" "http://www.w3.org/Graphics/SVG/1.1/DTD/svg11.dtd">
<svg width="3000px" height="3000px" version="1.1" xmlns="http://www.w3.org/2000/svg" xmlns:xlink="http://www.w3.org/1999/xlink">
<g id="ideograms">
<path d="M1500.000,830.000 A670.000,670.000 40.000 0,1 1758.224,881.760 L1789.057,807.941 A750.000,750.000 0.000 0,0 1500.000,750.000 Z" style="stroke-linecap:round;fill:rgb(228,26,28);" />
<path d="M1792.483,897.212 A670.000,670.000 40.000 0,1 2159.859,1616.128 L2238.649,1629.994 A750.000,750.000 0.000 0,0 1827.407,825.237 Z" style="stroke-linecap:round;fill:rgb(114,91,130);" />
<path d="M2152.310,1652.944 A670.000,670.000 40.000 0,1 2038.296,1898.920 L2102.571,1946.552 A750.000,750.000 0.000 0,0 2230.198,1671.206 Z" style="stroke-linecap:round;fill:rgb(61,141,149);" />
<path d="M2015.082,1928.475 A670.000,670.000 40.000 0,1 1470.336,2169.343 L1466.794,2249.265 A750.000,750.000 0.000 0,0 2076.584,1979.636 Z" style="stroke-linecap:round;fill:rgb(77,174,74);" />
<path d="M1432.852,2166.627 A670.000,670.000 40.000 0,1 1327.865,2147.510 L1307.312,2224.825 A750.000,750.000 0.000 0,0 1424.834,2246.224 Z" style="stroke-linecap:round;fill:rgb(127,110,133);" />
<path d="M1291.830,2136.840 A670.000,670.000 40.000 0,1 1207.517,2102.788 L1172.593,2174.763 A750.000,750.000 0.000 0,0 1266.974,2212.881 Z" style="stroke-linecap:round;fill:rgb(185,93,109);" />
<path d="M1174.178,2085.440 A670.000,670.000 40.000 0,1 833.373,1432.852 L753.776,1424.834 A750.000,750.000 0.000 0,0 1135.274,2155.344 Z" style="stroke-linecap:round;fill:rgb(255,129,0);" />
<path d="M838.187,1395.580 A670.000,670.000 40.000 0,1 1003.065,1050.605 L943.729,996.946 A750.000,750.000 0.000 0,0 759.165,1383.112 Z" style="stroke-linecap:round;fill:rgb(255,213,34);" />
<path d="M1029.044,1023.449 A670.000,670.000 40.000 0,1 1181.115,910.753 L1143.039,840.395 A750.000,750.000 0.000 0,0 972.811,966.547 Z" style="stroke-linecap:round;fill:rgb(225,198,47);" />
<path d="M1214.656,893.800 A670.000,670.000 40.000 0,1 1310.722,857.292 L1288.121,780.551 A750.000,750.000 0.000 0,0 1180.585,821.417 Z" style="stroke-linecap:round;fill:rgb(167,87,43);" />
<path d="M1347.056,847.690 A670.000,670.000 40.000 0,1 1350.911,846.798 L1333.109,768.804 A750.000,750.000 0.000 0,0 1328.794,769.802 Z" style="stroke-linecap:round;fill:rgb(221,115,143);" />
<path d="M1387.771,839.466 A670.000,670.000 40.000 0,1 1462.433,831.054 L1457.947,751.180 A750.000,750.000 0.000 0,0 1374.370,760.597 Z" style="stroke-linecap:round;fill:rgb(214,137,178);" />
</g>
<g id="track_0">
<path d="M 2117.149,1724.166 A 656.600,656.600 0.00 0,1 2071.8,1822.7 L 2071.8,1822.7 2050.6,1811.2 2028.9,1800.3 2006.7,1790.3 1984.2,1781.0 1961.4,1772.6 1938.4,1765.2 1915.4,1758.9 1892.3,1753.6 1869.2,1749.4 1846.3,1746.4 1823.5,1744.5 1801.0,1743.9 1778.8,1744.6 1756.9,1746.6 1735.5,1749.8 1714.5,1754.3 1694.0,1760.1 1674.1,1767.2 1654.8,1775.7 1636.1,1785.3 1618.1,1796.3 1600.8,1808.5 1584.2,1821.8 1568.4,1836.4 1553.4,1852.1 1539.3,1868.8 1525.9,1886.6 1513.4,1905.3 1501.8,1925.0 1491.0,1945.5 1481.2,1966.7 1472.2,1988.6 1464.1,2011.2 1456.9,2034.2 1450.6,2057.6 1445.2,2081.4 1440.7,2105.3 1437.0,2129.3 1434.2,2153.3  A 656.600,656.600 0.00 0,1 1331.3,2134.6 L 1331.3,2134.6 1338.2,2110.5 1346.0,2086.4 1354.9,2062.4 1364.6,2038.5 1375.4,2015.0 1387.1,1991.8 1399.7,1969.0 1413.3,1946.7 1427.7,1925.0 1443.1,1903.9 1459.3,1883.5 1476.3,1863.9 1494.2,1845.1 1512.9,1827.2 1532.3,1810.2 1552.5,1794.1 1573.4,1779.1 1595.0,1765.0 1617.1,1752.1 1639.9,1740.2 1663.2,1729.4 1687.1,1719.7 1711.4,1711.2 1736.1,1703.8 1761.2,1697.6 1786.5,1692.5 1812.2,1688.5 1838.0,1685.7 1864.0,1684.1 1890.1,1683.5 1916.1,1684.1 1942.2,1685.7 1968.1,1688.3 1993.8,1692.0 2019.3,1696.7 2044.4,1702.2 2069.2,1708.7 2093.5,1716.0 2117.1,1724.2  Z" style="stroke-width: 0.0;  fill: rgb(0,0,0); opacity: 0.167;" />
<path d="M 1434.195,2153.294 A 656.600,656.600 0.00 0,1 1335.1,2135.5 L 1335.1,2135.5 1340.8,2113.6 1346.7,2091.9 1352.6,2070.5 1358.5,2049.6 1364.4,2029.4 1370.3,2010.0 1376.1,1991.4 1381.8,1973.9 1387.3,1957.6 1392.8,1942.4 1398.0,1928.6 1403.1,1916.2 1407.9,1905.2 1412.6,1895.8 1416.9,1887.9 1421.0,1881.7 1424.9,1877.1 1428.4,1874.2 1431.7,1873.1 1434.6,1873.6 1437.3,1875.8 1439.6,1879.8 1441.6,1885.4 1443.3,1892.6 1444.7,1901.5 1445.8,1912.0 1446.5,1923.9 1446.9,1937.4 1447.1,1952.2 1446.9,1968.2 1446.4,1985.5 1445.7,2003.9 1444.7,2023.3 1443.5,2043.6 1442.0,2064.6 1440.3,2086.2 1438.5,2108.3 1436.4,2130.7 1434.2,2153.3  A 656.600,656.600 0.00 0,1 1335.1,2135.5 L 1335.1,2135.5 1340.8,2113.6 1346.7,2091.9 1352.6,2070.5 1358.5,2049.6 1364.4,2029.4 1370.3,2010.0 1376.1,1991.4 1381.8,1973.9 1387.3,1957.6 1392.8,1942.4 1398.0,1928.6 1403.1,1916.2 1407.9,1905.2 1412.6,1895.8 1416.9,1887.9 1421.0,1881.7 1424.9,1877.1 1428.4,1874.2 1431.7,1873.1 1434.6,1873.6 1437.3,1875.8 1439.6,1879.8 1441.6,1885.4 1443.3,1892.6 1444.7,1901.5 1445.8,1912.0 1446.5,1923.9 1446.9,1937.4 1447.1,1952.2 1446.9,1968.2 1446.4,1985.5 1445.7,2003.9 1444.7,2023.3 1443.5,2043.6 1442.0,2064.6 1440.3,2086.2 1438.5,2108.3 1436.4,2130.7 1434.2,2153.3  Z" style="stroke-width: 0.0;  fill: rgb(0,0,0); opacity: 0.167;" />
<path d="M 1220.363,905.924 A 656.600,656.600 0.00 0,1 1314.5,870.1 L 1314.5,870.1 1320.9,891.9 1327.4,913.4 1333.7,934.6 1340.0,955.3 1346.2,975.4 1352.2,994.7 1358.0,1013.2 1363.5,1030.6 1368.8,1046.9 1373.8,1062.1 1378.5,1075.9 1382.9,1088.4 1386.9,1099.4 1390.5,1108.9 1393.7,1116.9 1396.5,1123.3 1398.9,1128.0 1400.8,1131.1 1402.3,1132.5 1403.4,1132.2 1404.0,1130.2 1404.2,1126.6 1403.9,1121.3 1403.2,1114.4 1402.0,1105.9 1400.5,1095.8 1398.5,1084.2 1396.1,1071.3 1393.3,1056.9 1390.2,1041.3 1386.8,1024.5 1383.0,1006.6 1378.9,987.7 1374.6,967.9 1370.0,947.4 1365.3,926.3 1360.3,904.7 1355.3,882.8 1350.1,860.7  A 656.600,656.600 0.00 0,1 1353.9,859.9 L 1353.9,859.9 1358.9,882.0 1363.6,904.1 1368.1,925.8 1372.2,947.2 1376.1,967.9 1379.5,988.0 1382.5,1007.3 1385.1,1025.7 1387.2,1043.0 1388.8,1059.1 1389.9,1074.1 1390.5,1087.7 1390.5,1100.0 1390.0,1110.8 1388.9,1120.2 1387.2,1128.0 1384.9,1134.2 1382.1,1138.9 1378.7,1141.9 1374.7,1143.2 1370.2,1143.0 1365.1,1141.1 1359.5,1137.6 1353.3,1132.5 1346.7,1125.8 1339.6,1117.6 1332.0,1107.9 1324.1,1096.8 1315.7,1084.4 1307.0,1070.6 1298.0,1055.7 1288.7,1039.7 1279.2,1022.6 1269.5,1004.7 1259.7,986.0 1249.9,966.6 1240.0,946.7 1230.1,926.4 1220.4,905.9  Z" style="stroke-width: 0.0;  fill: rgb(0,0,0); opacity: 0.167;" />
<path d="M 1426.484,2152.471 A 656.600,656.600 0.00 0,1 1342.6,2137.4 L 1342.6,2137.4 1348.4,2114.9 1354.9,2092.6 1361.8,2070.7 1369.3,2049.2 1377.4,2028.3 1385.9,2008.1 1395.0,1988.7 1404.5,1970.3 1414.5,1953.0 1425.0,1936.8 1435.8,1921.8 1447.1,1908.1 1458.8,1895.7 1470.8,1884.8 1483.2,1875.3 1495.8,1867.3 1508.8,1860.9 1522.0,1856.1 1535.5,1852.9 1549.1,1851.2 1563.0,1851.2 1577.0,1852.7 1591.1,1855.9 1605.3,1860.6 1619.5,1866.9 1633.8,1874.7 1648.0,1883.9 1662.2,1894.6 1676.4,1906.6 1690.3,1919.8 1704.2,1934.3 1717.8,1949.9 1731.2,1966.6 1744.3,1984.2 1757.0,2002.6 1769.4,2021.7 1781.4,2041.4 1792.9,2061.5 1803.9,2082.0  A 656.600,656.600 0.00 0,1 1726.0,2116.5 L 1726.0,2116.5 1717.9,2095.1 1709.5,2073.9 1700.8,2053.1 1691.9,2032.9 1682.7,2013.3 1673.4,1994.6 1663.8,1976.8 1654.2,1960.0 1644.5,1944.3 1634.7,1929.9 1624.9,1916.8 1615.1,1905.1 1605.3,1894.9 1595.5,1886.1 1585.9,1878.9 1576.3,1873.4 1566.9,1869.4 1557.7,1867.1 1548.6,1866.5 1539.7,1867.6 1531.0,1870.3 1522.5,1874.8 1514.3,1880.8 1506.3,1888.5 1498.6,1897.8 1491.3,1908.6 1484.2,1920.8 1477.4,1934.5 1471.0,1949.6 1464.9,1965.9 1459.2,1983.4 1453.8,2002.0 1448.7,2021.6 1444.1,2042.0 1439.8,2063.2 1435.9,2084.9 1432.4,2107.2 1429.2,2129.7 1426.5,2152.5  Z" style="stroke-width: 0.0;  fill: rgb(0,0,0); opacity: 0.167;" />
<path d="M 1390.015,852.677 A 656.600,656.600 0.00 0,1 1463.2,844.4 L 1463.2,844.4 1465.1,871.1 1468.1,898.3 1471.9,925.7 1476.7,953.4 1482.5,981.4 1489.2,1009.5 1496.8,1037.7 1505.3,1066.0 1514.8,1094.3 1525.1,1122.6 1536.3,1150.7 1548.5,1178.8 1561.4,1206.6 1575.2,1234.3 1589.8,1261.6 1605.3,1288.7 1621.5,1315.3 1638.4,1341.6 1656.1,1367.5 1674.5,1392.8 1693.5,1417.6 1713.3,1441.9 1733.6,1465.6 1754.5,1488.7 1775.9,1511.1 1797.9,1532.8 1820.4,1553.7 1843.3,1574.0 1866.6,1593.4 1890.2,1612.0 1914.2,1629.8 1938.4,1646.7 1962.9,1662.7 1987.5,1677.8 2012.3,1691.9 2037.1,1705.1 2062.0,1717.3 2086.9,1728.5 2111.7,1738.7  A 656.600,656.600 0.00 0,1 2079.3,1809.1 L 2079.3,1809.1 2055.1,1795.7 2030.9,1781.3 2006.7,1766.0 1982.5,1749.7 1958.4,1732.5 1934.3,1714.4 1910.5,1695.5 1886.8,1675.8 1863.3,1655.4 1840.0,1634.1 1817.0,1612.2 1794.3,1589.6 1771.9,1566.3 1749.8,1542.5 1728.2,1518.0 1706.9,1493.0 1686.1,1467.6 1665.8,1441.6 1646.0,1415.2 1626.6,1388.4 1607.9,1361.2 1589.7,1333.7 1572.1,1305.9 1555.1,1277.8 1538.7,1249.6 1523.1,1221.1 1508.1,1192.5 1493.8,1163.8 1480.3,1135.0 1467.5,1106.2 1455.5,1077.5 1444.3,1048.8 1434.0,1020.1 1424.4,991.6 1415.8,963.3 1408.0,935.2 1401.1,907.4 1395.1,879.9 1390.0,852.7  Z" style="stroke-width: 0.0;  fill: rgb(0,0,0); opacity: 0.167;" />
<path d="M 1390.015,852.677 A 656.600,656.600 0.00 0,1 1463.2,844.4 L 1463.2,844.4 1464.2,867.5 1464.7,890.6 1464.6,913.5 1463.9,936.0 1462.6,958.1 1460.7,979.6 1458.1,1000.4 1454.8,1020.4 1450.8,1039.5 1446.1,1057.6 1440.7,1074.6 1434.6,1090.5 1427.8,1105.0 1420.3,1118.3 1412.1,1130.3 1403.2,1140.8 1393.6,1149.9 1383.4,1157.5 1372.5,1163.6 1361.0,1168.2 1348.9,1171.2 1336.3,1172.8 1323.1,1172.7 1309.4,1171.2 1295.2,1168.2 1280.6,1163.7 1265.6,1157.8 1250.3,1150.5 1234.7,1141.9 1218.9,1132.0 1202.9,1120.9 1186.7,1108.6 1170.5,1095.3 1154.3,1081.1 1138.1,1066.0 1122.1,1050.1 1106.3,1033.5 1090.8,1016.4 1075.6,999.0  A 656.600,656.600 0.00 0,1 1144.1,948.2 L 1144.1,948.2 1156.6,967.3 1169.4,986.1 1182.3,1004.5 1195.3,1022.2 1208.2,1039.3 1221.2,1055.6 1234.0,1070.9 1246.7,1085.2 1259.1,1098.4 1271.3,1110.4 1283.1,1121.1 1294.6,1130.5 1305.6,1138.4 1316.2,1145.0 1326.4,1150.0 1336.0,1153.4 1345.1,1155.4 1353.6,1155.7 1361.5,1154.4 1368.9,1151.6 1375.5,1147.2 1381.6,1141.2 1387.0,1133.6 1391.8,1124.6 1395.9,1114.0 1399.3,1102.1 1402.1,1088.7 1404.2,1074.1 1405.7,1058.2 1406.6,1041.1 1406.9,1023.0 1406.6,1003.9 1405.7,983.9 1404.2,963.2 1402.3,941.8 1399.8,919.9 1397.0,897.7 1393.7,875.2 1390.0,852.7  Z" style="stroke-width: 0.0;  fill: rgb(0,0,0); opacity: 0.167;" />
<path d="M 1426.484,2152.471 A 656.600,656.600 0.00 0,1 1342.6,2137.4 L 1342.6,2137.4 1349.7,2110.2 1357.8,2082.7 1366.7,2054.9 1376.5,2026.9 1387.1,1998.7 1398.5,1970.3 1410.8,1941.8 1423.7,1913.2 1437.4,1884.5 1451.8,1855.8 1466.9,1827.1 1482.6,1798.4 1499.0,1769.8 1516.0,1741.3 1533.5,1712.9 1551.6,1684.7 1570.2,1656.7 1589.4,1629.0 1609.0,1601.5 1629.1,1574.4 1649.6,1547.5 1670.5,1521.1 1691.7,1495.1 1713.4,1469.5 1735.3,1444.4 1757.6,1419.8 1780.1,1395.7 1802.9,1372.3 1825.9,1349.4 1849.1,1327.2 1872.5,1305.7 1896.1,1284.9 1919.7,1264.8 1943.5,1245.6 1967.4,1227.1 1991.3,1209.5 2015.2,1192.8 2039.1,1177.1 2063.1,1162.2  A 656.600,656.600 0.00 0,1 2102.1,1238.0 L 2102.1,1238.0 2077.4,1249.3 2052.6,1261.5 2027.8,1274.8 2003.0,1289.0 1978.3,1304.1 1953.7,1320.2 1929.3,1337.2 1905.1,1355.0 1881.0,1373.7 1857.3,1393.2 1833.9,1413.4 1810.8,1434.4 1788.1,1456.2 1765.8,1478.6 1744.0,1501.6 1722.7,1525.3 1701.9,1549.6 1681.6,1574.4 1662.0,1599.7 1642.9,1625.5 1624.5,1651.8 1606.7,1678.4 1589.6,1705.4 1573.2,1732.8 1557.6,1760.4 1542.7,1788.3 1528.6,1816.4 1515.3,1844.6 1502.9,1872.9 1491.2,1901.3 1480.4,1929.8 1470.5,1958.2 1461.5,1986.5 1453.3,2014.8 1446.1,2042.8 1439.8,2070.7 1434.4,2098.3 1430.0,2125.6 1426.5,2152.5  Z" style="stroke-width: 0.0;  fill: rgb(0,0,0); opacity: 0.167;" />
<path d="M 1434.195,2153.294 A 656.600,656.600 0.00 0,1 1331.3,2134.6 L 1331.3,2134.6 1337.9,2108.0 1343.8,2080.7 1348.9,2052.8 1353.3,2024.2 1357.0,1995.2 1359.9,1965.6 1362.1,1935.6 1363.5,1905.1 1364.1,1874.3 1364.0,1843.2 1363.2,1811.8 1361.6,1780.2 1359.2,1748.5 1356.1,1716.6 1352.3,1684.6 1347.7,1652.5 1342.4,1620.5 1336.4,1588.6 1329.6,1556.7 1322.2,1525.0 1314.0,1493.4 1305.2,1462.1 1295.8,1431.1 1285.6,1400.3 1274.8,1370.0 1263.4,1340.0 1251.4,1310.5 1238.8,1281.5 1225.6,1253.0 1211.9,1225.1 1197.6,1197.8 1182.8,1171.1 1167.6,1145.2 1151.8,1120.0 1135.6,1095.6 1119.0,1072.0 1102.0,1049.3 1084.6,1027.4 1066.8,1006.6  A 656.600,656.600 0.00 0,1 1154.0,942.0 L 1154.0,942.0 1168.7,966.5 1183.2,991.9 1197.2,1018.1 1210.9,1045.0 1224.3,1072.7 1237.3,1101.0 1249.9,1129.9 1262.2,1159.5 1274.1,1189.5 1285.7,1220.1 1296.9,1251.2 1307.7,1282.7 1318.2,1314.5 1328.3,1346.7 1338.1,1379.3 1347.4,1412.1 1356.4,1445.1 1364.9,1478.3 1373.1,1511.7 1380.9,1545.2 1388.2,1578.8 1395.1,1612.4 1401.5,1646.0 1407.5,1679.6 1413.1,1713.1 1418.2,1746.5 1422.7,1779.7 1426.8,1812.7 1430.4,1845.6 1433.4,1878.1 1435.9,1910.4 1437.8,1942.3 1439.2,1973.9 1440.0,2005.0 1440.1,2035.7 1439.6,2065.9 1438.5,2095.6 1436.7,2124.7 1434.2,2153.3  Z" style="stroke-width: 0.0;  fill: rgb(0,0,0); opacity: 0.167;" />
<path d="M 886.227,1266.748 A 656.600,656.600 0.00 0,1 933.0,1168.9 L 933.0,1168.9 953.4,1180.4 974.0,1191.4 994.9,1201.7 1015.9,1211.2 1036.9,1219.9 1057.8,1227.7 1078.6,1234.5 1099.0,1240.3 1119.2,1245.0 1138.9,1248.6 1158.1,1251.0 1176.7,1252.2 1194.8,1252.1 1212.1,1250.8 1228.8,1248.2 1244.6,1244.3 1259.6,1239.0 1273.8,1232.5 1287.1,1224.7 1299.4,1215.6 1310.8,1205.2 1321.2,1193.6 1330.6,1180.7 1339.0,1166.7 1346.4,1151.6 1352.7,1135.4 1358.1,1118.2 1362.5,1100.0 1365.8,1081.0 1368.2,1061.1 1369.6,1040.4 1370.1,1019.2 1369.6,997.4 1368.3,975.1 1366.2,952.4 1363.2,929.6 1359.5,906.6 1355.1,883.6 1350.1,860.7  A 656.600,656.600 0.00 0,1 1353.9,859.9 L 1353.9,859.9 1358.8,883.1 1363.0,906.5 1366.4,930.1 1369.0,953.6 1370.7,977.0 1371.5,1000.1 1371.4,1023.0 1370.2,1045.4 1368.1,1067.3 1364.9,1088.6 1360.6,1109.2 1355.3,1129.1 1348.9,1148.2 1341.4,1166.4 1332.9,1183.6 1323.3,1199.9 1312.6,1215.2 1300.9,1229.4 1288.1,1242.5 1274.3,1254.5 1259.6,1265.3 1243.9,1275.0 1227.3,1283.5 1209.8,1290.7 1191.5,1296.8 1172.4,1301.7 1152.7,1305.4 1132.2,1307.9 1111.2,1309.2 1089.7,1309.5 1067.7,1308.6 1045.4,1306.6 1022.7,1303.6 999.9,1299.6 977.0,1294.7 954.0,1288.9 931.2,1282.2 908.6,1274.8 886.2,1266.7  Z" style="stroke-width: 0.0;  fill: rgb(0,0,0); opacity: 0.167;" />
<path d="M 937.940,1839.429 A 656.600,656.600 0.00 0,1 901.9,1770.8 L 901.9,1770.8 923.7,1761.3 946.0,1752.5 968.5,1744.5 991.2,1737.3 1014.0,1731.0 1036.8,1725.6 1059.5,1721.2 1082.0,1717.9 1104.3,1715.7 1126.2,1714.7 1147.7,1714.8 1168.7,1716.1 1189.2,1718.7 1209.1,1722.4 1228.4,1727.4 1246.9,1733.7 1264.7,1741.2 1281.8,1750.0 1297.9,1760.0 1313.2,1771.2 1327.7,1783.6 1341.2,1797.2 1353.7,1811.9 1365.3,1827.7 1375.9,1844.5 1385.5,1862.3 1394.1,1881.1 1401.7,1900.8 1408.3,1921.2 1414.0,1942.4 1418.6,1964.3 1422.3,1986.8 1425.0,2009.7 1426.7,2033.1 1427.6,2056.7 1427.6,2080.5 1426.7,2104.4 1425.1,2128.3 1422.6,2152.0  A 656.600,656.600 0.00 0,1 1346.3,2138.4 L 1346.3,2138.4 1351.5,2115.6 1356.0,2092.7 1359.9,2069.8 1363.0,2047.0 1365.3,2024.4 1366.8,2002.3 1367.5,1980.6 1367.2,1959.4 1366.0,1938.9 1363.8,1919.2 1360.7,1900.3 1356.6,1882.3 1351.4,1865.3 1345.3,1849.3 1338.2,1834.4 1330.0,1820.6 1320.8,1808.0 1310.7,1796.6 1299.6,1786.5 1287.5,1777.7 1274.5,1770.1 1260.6,1763.9 1245.8,1759.0 1230.2,1755.3 1213.8,1753.0 1196.7,1752.0 1178.9,1752.3 1160.5,1753.8 1141.6,1756.5 1122.1,1760.4 1102.2,1765.5 1082.0,1771.6 1061.5,1778.8 1040.8,1786.9 1020.0,1795.9 999.2,1805.8 978.6,1816.4 958.1,1827.6 937.9,1839.4  Z" style="stroke-width: 0.0;  fill: rgb(0,0,0); opacity: 0.167;" />
<path d="M 2113.081,1735.063 A 656.600,656.600 0.00 0,1 2077.5,1812.5 L 2077.5,1812.5 2053.3,1799.0 2029.2,1784.4 2005.0,1768.9 1980.9,1752.5 1956.9,1735.2 1932.9,1717.0 1909.1,1697.9 1885.5,1678.1 1862.1,1657.5 1838.9,1636.1 1815.9,1614.1 1793.3,1591.3 1771.0,1568.0 1749.0,1544.0 1727.4,1519.4 1706.2,1494.3 1685.5,1468.7 1665.2,1442.7 1645.5,1416.2 1626.2,1389.3 1607.5,1362.0 1589.3,1334.4 1571.8,1306.6 1554.8,1278.4 1538.5,1250.1 1522.9,1221.6 1507.9,1192.9 1493.7,1164.2 1480.2,1135.4 1467.4,1106.5 1455.5,1077.7 1444.3,1048.9 1433.9,1020.3 1424.4,991.8 1415.8,963.4 1408.0,935.3 1401.1,907.4 1395.1,879.9 1390.0,852.7  A 656.600,656.600 0.00 0,1 1463.2,844.4 L 1463.2,844.4 1465.1,871.1 1468.1,898.2 1471.9,925.6 1476.7,953.3 1482.5,981.2 1489.2,1009.3 1496.8,1037.5 1505.4,1065.8 1514.8,1094.0 1525.2,1122.2 1536.4,1150.4 1548.6,1178.3 1561.6,1206.1 1575.4,1233.7 1590.0,1261.0 1605.5,1287.9 1621.7,1314.5 1638.7,1340.7 1656.5,1366.5 1674.9,1391.7 1694.0,1416.5 1713.8,1440.7 1734.1,1464.2 1755.1,1487.2 1776.6,1509.5 1798.6,1531.0 1821.1,1551.9 1844.1,1572.0 1867.4,1591.3 1891.1,1609.7 1915.2,1627.4 1939.5,1644.1 1964.0,1660.0 1988.7,1674.9 2013.5,1688.9 2038.4,1702.0 2063.4,1714.0 2088.3,1725.0 2113.1,1735.1  Z" style="stroke-width: 0.0;  fill: rgb(0,0,0); opacity: 0.167;" />
<path d="M 1430.338,2152.894 A 656.600,656.600 0.00 0,1 1338.8,2136.5 L 1338.8,2136.5 1345.8,2107.7 1352.3,2078.3 1358.3,2048.3 1364.0,2017.7 1369.2,1986.6 1374.1,1954.9 1378.6,1922.9 1382.9,1890.3 1386.8,1857.4 1390.4,1824.2 1393.8,1790.6 1397.0,1756.7 1399.8,1722.5 1402.5,1688.2 1404.9,1653.6 1407.1,1618.9 1409.1,1584.0 1410.9,1549.1 1412.5,1514.1 1413.9,1479.0 1415.1,1444.0 1416.1,1409.0 1416.9,1374.1 1417.5,1339.3 1417.8,1304.7 1417.9,1270.2 1417.7,1235.9 1417.3,1201.9 1416.6,1168.1 1415.6,1134.7 1414.3,1101.6 1412.7,1068.8 1410.7,1036.5 1408.4,1004.6 1405.6,973.1 1402.4,942.2 1398.8,911.8 1394.7,881.9 1390.0,852.7  A 656.600,656.600 0.00 0,1 1463.2,844.4 L 1463.2,844.4 1464.7,875.0 1465.7,906.1 1466.4,937.6 1466.7,969.5 1466.8,1001.8 1466.6,1034.5 1466.2,1067.5 1465.7,1100.9 1465.0,1134.5 1464.2,1168.4 1463.3,1202.5 1462.3,1236.9 1461.3,1271.4 1460.3,1306.1 1459.2,1341.0 1458.2,1375.9 1457.2,1411.0 1456.3,1446.1 1455.4,1481.3 1454.5,1516.5 1453.6,1551.6 1452.8,1586.7 1452.1,1621.8 1451.3,1656.8 1450.6,1691.6 1449.9,1726.3 1449.1,1760.9 1448.4,1795.2 1447.6,1829.4 1446.7,1863.3 1445.7,1896.9 1444.6,1930.2 1443.3,1963.2 1441.9,1995.9 1440.2,2028.1 1438.2,2060.0 1436.0,2091.4 1433.3,2122.4 1430.3,2152.9  Z" style="stroke-width: 0.0;  fill: rgb(0,0,0); opacity: 0.167;" />
<path d="M 1434.195,2153.294 A 656.600,656.600 0.00 0,1 1331.3,2134.6 L 1331.3,2134.6 1338.2,2110.5 1346.1,2086.3 1354.9,2062.3 1364.7,2038.5 1375.4,2014.9 1387.1,1991.6 1399.8,1968.8 1413.3,1946.5 1427.8,1924.7 1443.2,1903.6 1459.4,1883.2 1476.5,1863.5 1494.4,1844.6 1513.1,1826.6 1532.6,1809.6 1552.8,1793.4 1573.7,1778.3 1595.3,1764.1 1617.5,1751.1 1640.3,1739.1 1663.7,1728.2 1687.5,1718.4 1711.9,1709.7 1736.6,1702.2 1761.7,1695.9 1787.2,1690.6 1812.8,1686.6 1838.7,1683.6 1864.8,1681.8 1890.9,1681.1 1917.0,1681.5 1943.1,1683.0 1969.0,1685.5 1994.8,1689.1 2020.4,1693.6 2045.6,1699.0 2070.4,1705.3 2094.7,1712.5 2118.5,1720.5  A 656.600,656.600 0.00 0,1 2069.9,1826.1 L 2069.9,1826.1 2048.8,1814.4 2027.1,1803.5 2005.0,1793.3 1982.6,1783.9 1959.9,1775.4 1937.0,1767.9 1914.0,1761.3 1891.0,1755.9 1868.0,1751.6 1845.2,1748.4 1822.5,1746.5 1800.0,1745.8 1777.9,1746.3 1756.1,1748.1 1734.7,1751.2 1713.8,1755.7 1693.3,1761.4 1673.5,1768.4 1654.2,1776.7 1635.6,1786.3 1617.6,1797.1 1600.4,1809.2 1583.9,1822.5 1568.1,1837.0 1553.1,1852.6 1539.0,1869.3 1525.7,1887.0 1513.2,1905.7 1501.6,1925.3 1490.9,1945.7 1481.1,1966.9 1472.1,1988.8 1464.1,2011.3 1456.9,2034.3 1450.6,2057.7 1445.2,2081.4 1440.7,2105.3 1437.0,2129.3 1434.2,2153.3  Z" style="stroke-width: 0.0;  fill: rgb(0,0,0); opacity: 0.167;" />
<path d="M 1295.993,2124.103 A 656.600,656.600 0.00 0,1 1216.9,2092.4 L 1216.9,2092.4 1228.0,2068.1 1238.5,2042.9 1248.3,2017.0 1257.4,1990.4 1265.8,1963.2 1273.4,1935.4 1280.3,1907.0 1286.4,1878.1 1291.7,1848.8 1296.2,1819.0 1299.8,1789.0 1302.7,1758.6 1304.7,1728.0 1305.8,1697.2 1306.1,1666.2 1305.5,1635.1 1304.1,1604.0 1301.8,1572.9 1298.6,1541.8 1294.6,1510.8 1289.8,1479.9 1284.1,1449.2 1277.5,1418.7 1270.2,1388.5 1262.1,1358.6 1253.1,1329.1 1243.4,1300.0 1233.0,1271.4 1221.8,1243.2 1209.9,1215.6 1197.3,1188.6 1184.1,1162.2 1170.2,1136.5 1155.8,1111.5 1140.7,1087.3 1125.2,1063.9 1109.1,1041.3 1092.6,1019.7 1075.6,999.0  A 656.600,656.600 0.00 0,1 1144.1,948.2 L 1144.1,948.2 1158.8,971.8 1173.0,996.2 1186.8,1021.4 1200.1,1047.5 1212.9,1074.3 1225.2,1101.8 1237.0,1130.0 1248.3,1158.8 1259.1,1188.2 1269.3,1218.1 1278.9,1248.6 1288.0,1279.4 1296.5,1310.7 1304.4,1342.4 1311.8,1374.4 1318.5,1406.6 1324.6,1439.1 1330.1,1471.8 1335.0,1504.6 1339.3,1537.5 1342.9,1570.5 1345.9,1603.5 1348.2,1636.4 1349.9,1669.3 1350.9,1702.1 1351.3,1734.8 1351.0,1767.2 1350.1,1799.3 1348.5,1831.2 1346.2,1862.8 1343.3,1893.9 1339.7,1924.6 1335.4,1954.9 1330.5,1984.7 1324.9,2013.8 1318.7,2042.4 1311.8,2070.4 1304.2,2097.6 1296.0,2124.1  Z" style="stroke-width: 0.0;  fill: rgb(0,0,0); opacity: 0.167;" />
<path d="M 1422.632,2152.026 A 656.600,656.600 0.00 0,1 1346.3,2138.4 L 1346.3,2138.4 1351.5,2115.6 1356.0,2092.7 1359.9,2069.8 1363.0,2047.0 1365.3,2024.4 1366.8,2002.3 1367.5,1980.6 1367.2,1959.4 1366.0,1938.9 1363.8,1919.2 1360.7,1900.3 1356.6,1882.3 1351.4,1865.3 1345.3,1849.3 1338.2,1834.4 1330.0,1820.6 1320.8,1808.0 1310.7,1796.6 1299.6,1786.5 1287.5,1777.7 1274.5,1770.1 1260.6,1763.9 1245.8,1759.0 1230.2,1755.3 1213.8,1753.0 1196.7,1752.0 1178.9,1752.3 1160.5,1753.8 1141.6,1756.5 1122.1,1760.4 1102.2,1765.5 1082.0,1771.6 1061.5,1778.8 1040.8,1786.9 1020.0,1795.9 999.2,1805.8 978.6,1816.4 958.1,1827.6 937.9,1839.4  A 656.600,656.600 0.00 0,1 901.9,1770.8 L 901.9,1770.8 923.7,1761.3 946.0,1752.5 968.5,1744.5 991.2,1737.3 1014.0,1731.0 1036.8,1725.6 1059.5,1721.2 1082.0,1717.9 1104.3,1715.7 1126.2,1714.7 1147.7,1714.8 1168.7,1716.1 1189.2,1718.7 1209.1,1722.4 1228.4,1727.4 1246.9,1733.7 1264.7,1741.2 1281.8,1750.0 1297.9,1760.0 1313.2,1771.2 1327.7,1783.6 1341.2,1797.2 1353.7,1811.9 1365.3,1827.7 1375.9,1844.5 1385.5,1862.3 1394.1,1881.1 1401.7,1900.8 1408.3,1921.2 1414.0,1942.4 1418.6,1964.3 1422.3,1986.8 1425.0,2009.7 1426.7,2033.1 1427.6,2056.7 1427.6,2080.5 1426.7,2104.4 1425.1,2128.3 1422.6,2152.0  Z" style="stroke-width: 0.0;  fill: rgb(0,0,0); opacity: 0.167;" />
<path d="M 1803.948,2082.013 A 656.600,656.600 0.00 0,1 1726.0,2116.5 L 1726.0,2116.5 1717.9,2095.1 1709.5,2073.9 1700.8,2053.1 1691.9,2032.9 1682.7,2013.3 1673.4,1994.6 1663.8,1976.8 1654.2,1960.0 1644.5,1944.3 1634.7,1929.9 1624.9,1916.8 1615.1,1905.1 1605.3,1894.9 1595.5,1886.1 1585.9,1878.9 1576.3,1873.4 1566.9,1869.4 1557.7,1867.1 1548.6,1866.5 1539.7,1867.6 1531.0,1870.3 1522.5,1874.8 1514.3,1880.8 1506.3,1888.5 1498.6,1897.8 1491.3,1908.6 1484.2,1920.8 1477.4,1934.5 1471.0,1949.6 1464.9,1965.9 1459.2,1983.4 1453.8,2002.0 1448.7,2021.6 1444.1,2042.0 1439.8,2063.2 1435.9,2084.9 1432.4,2107.2 1429.2,2129.7 1426.5,2152.5  A 656.600,656.600 0.00 0,1 1342.6,2137.4 L 1342.6,2137.4 1348.4,2114.9 1354.9,2092.6 1361.8,2070.7 1369.3,2049.2 1377.4,2028.3 1385.9,2008.1 1395.0,1988.7 1404.5,1970.3 1414.5,1953.0 1425.0,1936.8 1435.8,1921.8 1447.1,1908.1 1458.8,1895.7 1470.8,1884.8 1483.2,1875.3 1495.8,1867.3 1508.8,1860.9 1522.0,1856.1 1535.5,1852.9 1549.1,1851.2 1563.0,1851.2 1577.0,1852.7 1591.1,1855.9 1605.3,1860.6 1619.5,1866.9 1633.8,1874.7 1648.0,1883.9 1662.2,1894.6 1676.4,1906.6 1690.3,1919.8 1704.2,1934.3 1717.8,1949.9 1731.2,1966.6 1744.3,1984.2 1757.0,2002.6 1769.4,2021.7 1781.4,2041.4 1792.9,2061.5 1803.9,2082.0  Z" style="stroke-width: 0.0;  fill: rgb(0,0,0); opacity: 0.167;" />
<path d="M 886.227,1266.748 A 656.600,656.600 0.00 0,1 933.0,1168.9 L 933.0,1168.9 955.9,1182.8 978.7,1197.7 1001.4,1213.7 1023.9,1230.6 1046.1,1248.4 1068.1,1267.1 1089.8,1286.8 1111.1,1307.2 1132.0,1328.5 1152.5,1350.6 1172.5,1373.4 1191.9,1397.0 1210.8,1421.2 1229.1,1446.1 1246.9,1471.5 1263.9,1497.6 1280.3,1524.1 1296.0,1551.2 1310.9,1578.7 1325.2,1606.6 1338.6,1634.9 1351.2,1663.5 1363.1,1692.3 1374.1,1721.5 1384.3,1750.8 1393.6,1780.2 1402.1,1809.7 1409.7,1839.3 1416.4,1868.9 1422.2,1898.4 1427.1,1927.9 1431.1,1957.1 1434.3,1986.2 1436.5,2015.0 1437.8,2043.5 1438.2,2071.7 1437.8,2099.4 1436.4,2126.6 1434.2,2153.3  A 656.600,656.600 0.00 0,1 1331.3,2134.6 L 1331.3,2134.6 1337.4,2109.6 1342.7,2084.2 1347.2,2058.2 1350.7,2031.8 1353.3,2005.0 1354.9,1977.9 1355.5,1950.7 1355.1,1923.2 1353.7,1895.7 1351.3,1868.1 1347.8,1840.5 1343.3,1813.1 1337.7,1785.7 1331.1,1758.6 1323.4,1731.7 1314.7,1705.0 1304.9,1678.8 1294.1,1652.9 1282.3,1627.4 1269.5,1602.5 1255.7,1578.0 1241.0,1554.2 1225.3,1530.9 1208.8,1508.3 1191.5,1486.3 1173.3,1465.1 1154.3,1444.6 1134.6,1424.9 1114.3,1406.0 1093.3,1387.9 1071.8,1370.7 1049.7,1354.4 1027.2,1339.0 1004.2,1324.5 981.0,1311.0 957.5,1298.4 933.8,1286.9 910.0,1276.3 886.2,1266.7  Z" style="stroke-width: 0.0;  fill: rgb(0,0,0); opacity: 0.167;" />
<path d="M 1390.015,852.677 A 656.600,656.600 0.00 0,1 1463.2,844.4 L 1463.2,844.4 1464.7,875.0 1465.7,906.1 1466.4,937.6 1466.7,969.5 1466.8,1001.8 1466.6,1034.5 1466.2,1067.5 1465.7,1100.9 1465.0,1134.5 1464.2,1168.4 1463.3,1202.5 1462.3,1236.9 1461.3,1271.4 1460.3,1306.1 1459.2,1341.0 1458.2,1375.9 1457.2,1411.0 1456.3,1446.1 1455.4,1481.3 1454.5,1516.5 1453.6,1551.6 1452.8,1586.7 1452.1,1621.8 1451.3,1656.8 1450.6,1691.6 1449.9,1726.3 1449.1,1760.9 1448.4,1795.2 1447.6,1829.4 1446.7,1863.3 1445.7,1896.9 1444.6,1930.2 1443.3,1963.2 1441.9,1995.9 1440.2,2028.1 1438.2,2060.0 1436.0,2091.4 1433.3,2122.4 1430.3,2152.9  A 656.600,656.600 0.00 0,1 1338.8,2136.5 L 1338.8,2136.5 1345.8,2107.7 1352.3,2078.3 1358.3,2048.3 1364.0,2017.7 1369.2,1986.6 1374.1,1954.9 1378.6,1922.9 1382.9,1890.3 1386.8,1857.4 1390.4,1824.2 1393.8,1790.6 1397.0,1756.7 1399.8,1722.5 1402.5,1688.2 1404.9,1653.6 1407.1,1618.9 1409.1,1584.0 1410.9,1549.1 1412.5,1514.1 1413.9,1479.0 1415.1,1444.0 1416.1,1409.0 1416.9,1374.1 1417.5,1339.3 1417.8,1304.7 1417.9,1270.2 1417.7,1235.9 1417.3,1201.9 1416.6,1168.1 1415.6,1134.7 1414.3,1101.6 1412.7,1068.8 1410.7,1036.5 1408.4,1004.6 1405.6,973.1 1402.4,942.2 1398.8,911.8 1394.7,881.9 1390.0,852.7  Z" style="stroke-width: 0.0;  fill: rgb(0,0,0); opacity: 0.167;" />
<path d="M 1350.115,860.736 A 656.600,656.600 0.00 0,1 1353.9,859.9 L 1353.9,859.9 1358.8,883.0 1363.0,906.4 1366.4,929.9 1369.1,953.3 1370.8,976.6 1371.6,999.6 1371.5,1022.3 1370.5,1044.6 1368.4,1066.3 1365.3,1087.4 1361.1,1107.8 1355.9,1127.4 1349.6,1146.2 1342.3,1164.1 1333.8,1181.1 1324.3,1197.1 1313.8,1212.0 1302.2,1225.8 1289.6,1238.5 1276.0,1250.1 1261.4,1260.5 1245.9,1269.7 1229.4,1277.7 1212.2,1284.5 1194.1,1290.0 1175.2,1294.4 1155.6,1297.5 1135.4,1299.5 1114.6,1300.3 1093.3,1300.0 1071.5,1298.5 1049.4,1296.0 1027.0,1292.4 1004.4,1287.9 981.7,1282.4 959.0,1276.0 936.4,1268.8 914.0,1260.9 891.9,1252.3  A 656.600,656.600 0.00 0,1 925.3,1182.4 L 925.3,1182.4 946.0,1193.4 967.0,1203.9 988.2,1213.7 1009.5,1222.7 1030.8,1230.9 1052.0,1238.2 1073.1,1244.5 1093.8,1249.8 1114.3,1253.9 1134.3,1257.0 1153.8,1258.9 1172.7,1259.6 1191.0,1259.0 1208.6,1257.2 1225.5,1254.1 1241.6,1249.7 1256.9,1244.0 1271.3,1237.1 1284.8,1228.8 1297.3,1219.3 1308.9,1208.6 1319.5,1196.6 1329.1,1183.4 1337.7,1169.1 1345.3,1153.7 1351.8,1137.2 1357.3,1119.8 1361.8,1101.4 1365.3,1082.1 1367.8,1062.0 1369.3,1041.2 1369.8,1019.8 1369.5,997.8 1368.2,975.4 1366.1,952.7 1363.2,929.7 1359.5,906.7 1355.2,883.6 1350.1,860.7  Z" style="stroke-width: 0.0;  fill: rgb(0,0,0); opacity: 0.167;" />
<path d="M 1422.632,2152.026 A 656.600,656.600 0.00 0,1 1346.3,2138.4 L 1346.3,2138.4 1353.4,2108.3 1360.1,2077.7 1366.5,2046.7 1372.8,2015.2 1378.9,1983.3 1384.8,1951.0 1390.7,1918.4 1396.5,1885.5 1402.3,1852.3 1408.0,1818.8 1413.8,1785.1 1419.6,1751.3 1425.4,1717.2 1431.4,1683.0 1437.4,1648.7 1443.5,1614.3 1449.7,1579.8 1456.0,1545.3 1462.3,1510.8 1468.8,1476.3 1475.4,1441.8 1482.1,1407.3 1488.9,1373.0 1495.7,1338.7 1502.6,1304.6 1509.5,1270.6 1516.4,1236.7 1523.3,1203.0 1530.2,1169.6 1537.0,1136.3 1543.7,1103.3 1550.3,1070.5 1556.7,1038.0 1562.8,1005.8 1568.8,973.8 1574.4,942.2 1579.6,911.0 1584.5,880.0 1588.9,849.4  A 656.600,656.600 0.00 0,1 1664.9,864.5 L 1664.9,864.5 1657.4,894.3 1650.3,924.6 1643.3,955.4 1636.6,986.7 1630.1,1018.5 1623.7,1050.6 1617.5,1083.0 1611.3,1115.9 1605.2,1149.0 1599.2,1182.3 1593.1,1216.0 1587.0,1249.8 1581.0,1283.8 1574.8,1318.0 1568.6,1352.3 1562.4,1386.7 1556.1,1421.2 1549.7,1455.7 1543.3,1490.3 1536.8,1524.8 1530.2,1559.3 1523.6,1593.8 1517.0,1628.2 1510.3,1662.6 1503.5,1696.8 1496.8,1730.8 1490.1,1764.7 1483.5,1798.5 1476.9,1832.0 1470.4,1865.3 1464.1,1898.3 1457.9,1931.1 1451.9,1963.7 1446.2,1995.9 1440.7,2027.8 1435.6,2059.4 1430.8,2090.6 1426.5,2121.5 1422.6,2152.0  Z" style="stroke-width: 0.0;  fill: rgb(0,0,0); opacity: 0.167;" />
<path d="M 1434.195,2153.294 A 656.600,656.600 0.00 0,1 1331.3,2134.6 L 1331.3,2134.6 1337.4,2109.6 1342.7,2084.2 1347.2,2058.2 1350.7,2031.8 1353.3,2005.0 1354.9,1977.9 1355.5,1950.7 1355.1,1923.2 1353.7,1895.7 1351.3,1868.1 1347.8,1840.5 1343.3,1813.1 1337.7,1785.7 1331.1,1758.6 1323.4,1731.7 1314.7,1705.0 1304.9,1678.8 1294.1,1652.9 1282.3,1627.4 1269.5,1602.5 1255.7,1578.0 1241.0,1554.2 1225.3,1530.9 1208.8,1508.3 1191.5,1486.3 1173.3,1465.1 1154.3,1444.6 1134.6,1424.9 1114.3,1406.0 1093.3,1387.9 1071.8,1370.7 1049.7,1354.4 1027.2,1339.0 1004.2,1324.5 981.0,1311.0 957.5,1298.4 933.8,1286.9 910.0,1276.3 886.2,1266.7  A 656.600,656.600 0.00 0,1 933.0,1168.9 L 933.0,1168.9 955.9,1182.8 978.7,1197.7 1001.4,1213.7 1023.9,1230.6 1046.1,1248.4 1068.1,1267.1 1089.8,1286.8 1111.1,1307.2 1132.0,1328.5 1152.5,1350.6 1172.5,1373.4 1191.9,1397.0 1210.8,1421.2 1229.1,1446.1 1246.9,1471.5 1263.9,1497.6 1280.3,1524.1 1296.0,1551.2 1310.9,1578.7 1325.2,1606.6 1338.6,1634.9 1351.2,1663.5 1363.1,1692.3 1374.1,1721.5 1384.3,1750.8 1393.6,1780.2 1402.1,1809.7 1409.7,1839.3 1416.4,1868.9 1422.2,1898.4 1427.1,1927.9 1431.1,1957.1 1434.3,1986.2 1436.5,2015.0 1437.8,2043.5 1438.2,2071.7 1437.8,2099.4 1436.4,2126.6 1434.2,2153.3  Z" style="stroke-width: 0.0;  fill: rgb(0,0,0); opacity: 0.167;" />
<path d="M 1588.906,849.447 A 656.600,656.600 0.00 0,1 1664.9,864.5 L 1664.9,864.5 1657.4,894.3 1650.3,924.6 1643.3,955.4 1636.6,986.7 1630.1,1018.5 1623.7,1050.6 1617.5,1083.0 1611.3,1115.9 1605.2,1149.0 1599.2,1182.3 1593.1,1216.0 1587.0,1249.8 1581.0,1283.8 1574.8,1318.0 1568.6,1352.3 1562.4,1386.7 1556.1,1421.2 1549.7,1455.7 1543.3,1490.3 1536.8,1524.8 1530.2,1559.3 1523.6,1593.8 1517.0,1628.2 1510.3,1662.6 1503.5,1696.8 1496.8,1730.8 1490.1,1764.7 1483.5,1798.5 1476.9,1832.0 1470.4,1865.3 1464.1,1898.3 1457.9,1931.1 1451.9,1963.7 1446.2,1995.9 1440.7,2027.8 1435.6,2059.4 1430.8,2090.6 1426.5,2121.5 1422.6,2152.0  A 656.600,656.600 0.00 0,1 1346.3,2138.4 L 1346.3,2138.4 1353.4,2108.3 1360.1,2077.7 1366.5,2046.7 1372.8,2015.2 1378.9,1983.3 1384.8,1951.0 1390.7,1918.4 1396.5,1885.5 1402.3,1852.3 1408.0,1818.8 1413.8,1785.1 1419.6,1751.3 1425.4,1717.2 1431.4,1683.0 1437.4,1648.7 1443.5,1614.3 1449.7,1579.8 1456.0,1545.3 1462.3,1510.8 1468.8,1476.3 1475.4,1441.8 1482.1,1407.3 1488.9,1373.0 1495.7,1338.7 1502.6,1304.6 1509.5,1270.6 1516.4,1236.7 1523.3,1203.0 1530.2,1169.6 1537.0,1136.3 1543.7,1103.3 1550.3,1070.5 1556.7,1038.0 1562.8,1005.8 1568.8,973.8 1574.4,942.2 1579.6,911.0 1584.5,880.0 1588.9,849.4  Z" style="stroke-width: 0.0;  fill: rgb(0,0,0); opacity: 0.167;" />
<path d="M 1072.689,1001.474 A 656.600,656.600 0.00 0,1 1147.4,946.1 L 1147.4,946.1 1159.8,965.3 1172.4,984.2 1185.2,1002.6 1198.0,1020.4 1210.9,1037.6 1223.7,1053.9 1236.4,1069.4 1248.9,1083.8 1261.2,1097.0 1273.3,1109.1 1285.0,1119.9 1296.3,1129.3 1307.3,1137.4 1317.8,1144.0 1327.8,1149.0 1337.3,1152.6 1346.3,1154.6 1354.7,1155.0 1362.5,1153.8 1369.7,1151.0 1376.3,1146.6 1382.3,1140.7 1387.6,1133.2 1392.3,1124.2 1396.3,1113.7 1399.7,1101.8 1402.4,1088.5 1404.5,1073.9 1406.0,1058.0 1406.8,1041.0 1407.0,1022.9 1406.7,1003.8 1405.7,983.8 1404.3,963.1 1402.3,941.8 1399.9,919.9 1397.0,897.7 1393.7,875.2 1390.0,852.7  A 656.600,656.600 0.00 0,1 1463.2,844.4 L 1463.2,844.4 1464.2,867.5 1464.7,890.6 1464.6,913.5 1463.9,936.1 1462.6,958.2 1460.6,979.7 1458.0,1000.6 1454.6,1020.6 1450.6,1039.7 1445.9,1057.8 1440.5,1074.9 1434.3,1090.7 1427.4,1105.4 1419.9,1118.7 1411.6,1130.7 1402.6,1141.3 1393.0,1150.5 1382.7,1158.1 1371.7,1164.3 1360.1,1169.0 1348.0,1172.1 1335.2,1173.7 1321.9,1173.8 1308.1,1172.3 1293.8,1169.4 1279.1,1165.0 1264.1,1159.2 1248.6,1152.0 1232.9,1143.5 1217.0,1133.7 1200.8,1122.7 1184.5,1110.5 1168.2,1097.3 1151.9,1083.1 1135.6,1068.1 1119.5,1052.3 1103.6,1035.9 1087.9,1018.9 1072.7,1001.5  Z" style="stroke-width: 0.0;  fill: rgb(0,0,0); opacity: 0.167;" />
<path d="M 1295.993,2124.103 A 656.600,656.600 0.00 0,1 1213.4,2090.7 L 1213.4,2090.7 1223.3,2070.4 1233.3,2050.2 1243.2,2030.4 1253.1,2011.1 1262.8,1992.4 1272.3,1974.5 1281.5,1957.4 1290.4,1941.3 1299.0,1926.3 1307.1,1912.5 1314.8,1899.9 1322.0,1888.6 1328.7,1878.8 1334.8,1870.4 1340.4,1863.4 1345.4,1858.1 1349.8,1854.2 1353.5,1852.0 1356.6,1851.4 1359.1,1852.4 1360.9,1855.0 1362.1,1859.2 1362.6,1865.0 1362.4,1872.3 1361.6,1881.2 1360.2,1891.5 1358.2,1903.3 1355.6,1916.4 1352.3,1930.8 1348.6,1946.4 1344.3,1963.1 1339.6,1980.8 1334.3,1999.5 1328.7,2019.0 1322.7,2039.2 1316.4,2059.9 1309.8,2081.1 1303.0,2102.5 1296.0,2124.1  A 656.600,656.600 0.00 0,1 1213.4,2090.7 L 1213.4,2090.7 1223.3,2070.4 1233.3,2050.2 1243.2,2030.4 1253.1,2011.1 1262.8,1992.4 1272.3,1974.5 1281.5,1957.4 1290.4,1941.3 1299.0,1926.3 1307.1,1912.5 1314.8,1899.9 1322.0,1888.6 1328.7,1878.8 1334.8,1870.4 1340.4,1863.4 1345.4,1858.1 1349.8,1854.2 1353.5,1852.0 1356.6,1851.4 1359.1,1852.4 1360.9,1855.0 1362.1,1859.2 1362.6,1865.0 1362.4,1872.3 1361.6,1881.2 1360.2,1891.5 1358.2,1903.3 1355.6,1916.4 1352.3,1930.8 1348.6,1946.4 1344.3,1963.1 1339.6,1980.8 1334.3,1999.5 1328.7,2019.0 1322.7,2039.2 1316.4,2059.9 1309.8,2081.1 1303.0,2102.5 1296.0,2124.1  Z" style="stroke-width: 0.0;  fill: rgb(0,0,0); opacity: 0.167;" />
<path d="M 1066.831,1006.555 A 656.600,656.600 0.00 0,1 1154.0,942.0 L 1154.0,942.0 1168.7,966.5 1183.2,991.9 1197.2,1018.1 1210.9,1045.0 1224.3,1072.7 1237.3,1101.0 1249.9,1129.9 1262.2,1159.5 1274.1,1189.5 1285.7,1220.1 1296.9,1251.2 1307.7,1282.7 1318.2,1314.5 1328.3,1346.7 1338.1,1379.3 1347.4,1412.1 1356.4,1445.1 1364.9,1478.3 1373.1,1511.7 1380.9,1545.2 1388.2,1578.8 1395.1,1612.4 1401.5,1646.0 1407.5,1679.6 1413.1,1713.1 1418.2,1746.5 1422.7,1779.7 1426.8,1812.7 1430.4,1845.6 1433.4,1878.1 1435.9,1910.4 1437.8,1942.3 1439.2,1973.9 1440.0,2005.0 1440.1,2035.7 1439.6,2065.9 1438.5,2095.6 1436.7,2124.7 1434.2,2153.3  A 656.600,656.600 0.00 0,1 1331.3,2134.6 L 1331.3,2134.6 1337.9,2108.0 1343.8,2080.7 1348.9,2052.8 1353.3,2024.2 1357.0,1995.2 1359.9,1965.6 1362.1,1935.6 1363.5,1905.1 1364.1,1874.3 1364.0,1843.2 1363.2,1811.8 1361.6,1780.2 1359.2,1748.5 1356.1,1716.6 1352.3,1684.6 1347.7,1652.5 1342.4,1620.5 1336.4,1588.6 1329.6,1556.7 1322.2,1525.0 1314.0,1493.4 1305.2,1462.1 1295.8,1431.1 1285.6,1400.3 1274.8,1370.0 1263.4,1340.0 1251.4,1310.5 1238.8,1281.5 1225.6,1253.0 1211.9,1225.1 1197.6,1197.8 1182.8,1171.1 1167.6,1145.2 1151.8,1120.0 1135.6,1095.6 1119.0,1072.0 1102.0,1049.3 1084.6,1027.4 1066.8,1006.6  Z" style="stroke-width: 0.0;  fill: rgb(0,0,0); opacity: 0.167;" />
<path d="M 1078.606,996.462 A 656.600,656.600 0.00 0,1 1140.9,950.3 L 1140.9,950.3 1155.7,973.7 1170.0,998.0 1183.9,1023.2 1197.3,1049.1 1210.2,1075.8 1222.6,1103.2 1234.6,1131.3 1245.9,1160.0 1256.8,1189.3 1267.1,1219.2 1276.8,1249.5 1285.9,1280.3 1294.5,1311.5 1302.5,1343.1 1309.8,1374.9 1316.6,1407.1 1322.7,1439.5 1328.2,1472.1 1333.1,1504.9 1337.4,1537.7 1341.0,1570.6 1343.9,1603.5 1346.2,1636.4 1347.8,1669.3 1348.8,1702.0 1349.1,1734.5 1348.8,1766.9 1347.7,1799.0 1346.0,1830.8 1343.7,1862.3 1340.6,1893.4 1336.9,1924.0 1332.5,1954.2 1327.5,1983.9 1321.8,2013.0 1315.4,2041.5 1308.4,2069.3 1300.7,2096.5 1292.3,2122.9  A 656.600,656.600 0.00 0,1 1220.4,2094.1 L 1220.4,2094.1 1231.4,2069.6 1241.7,2044.4 1251.4,2018.4 1260.4,1991.7 1268.6,1964.4 1276.2,1936.4 1282.9,1907.9 1288.9,1879.0 1294.1,1849.5 1298.5,1819.7 1302.1,1789.6 1304.8,1759.1 1306.7,1728.4 1307.8,1697.5 1308.0,1666.4 1307.4,1635.3 1305.9,1604.0 1303.6,1572.8 1300.4,1541.6 1296.4,1510.5 1291.5,1479.5 1285.9,1448.7 1279.4,1418.1 1272.0,1387.8 1263.9,1357.8 1255.0,1328.2 1245.4,1299.0 1235.0,1270.2 1223.9,1242.0 1212.1,1214.2 1199.6,1187.1 1186.4,1160.6 1172.6,1134.8 1158.3,1109.7 1143.3,1085.3 1127.9,1061.8 1111.9,1039.1 1095.5,1017.3 1078.6,996.5  Z" style="stroke-width: 0.0;  fill: rgb(0,0,0); opacity: 0.167;" />
</g>
</svg>
