<?xml version="1.0" encoding="utf-8" standalone="no"?>
<!DOCTYPE svg PUBLIC "-//W3C//DTD SVG 1.1//EN" "http://www.w3.org/Graphics/SVG/1.1/DTD/svg11.dtd">
<svg width="3000px" height="3000px" version="1.1" xmlns="http://www.w3.org/2000/svg" xmlns:xlink="http://www.w3.org/1999/xlink">
<g id="ideograms">
<path d="M1500.000,830.000 A670.000,670.000 40.000 0,1 1758.224,881.760 L1789.057,807.941 A750.000,750.000 0.000 0,0 1500.000,750.000 Z" style="stroke-linecap:round;fill:rgb(228,26,28);" />
<path d="M1792.483,897.212 A670.000,670.000 40.000 0,1 2159.859,1616.128 L2238.649,1629.994 A750.000,750.000 0.000 0,0 1827.407,825.237 Z" style="stroke-linecap:round;fill:rgb(114,91,130);" />
<path d="M2152.310,1652.944 A670.000,670.000 40.000 0,1 2038.296,1898.920 L2102.571,1946.552 A750.000,750.000 0.000 0,0 2230.198,1671.206 Z" style="stroke-linecap:round;fill:rgb(61,141,149);" />
<path d="M2015.082,1928.475 A670.000,670.000 40.000 0,1 1470.336,2169.343 L1466.794,2249.265 A750.000,750.000 0.000 0,0 2076.584,1979.636 Z" style="stroke-linecap:round;fill:rgb(77,174,74);" />
<path d="M1432.852,2166.627 A670.000,670.000 40.000 0,1 1327.865,2147.510 L1307.312,2224.825 A750.000,750.000 0.000 0,0 1424.834,2246.224 Z" style="stroke-linecap:round;fill:rgb(127,110,133);" />
<path d="M1291.830,2136.840 A670.000,670.000 40.000 0,1 1207.517,2102.788 L1172.593,2174.763 A750.000,750.000 0.000 0,0 1266.974,2212.881 Z" style="stroke-linecap:round;fill:rgb(185,93,109);" />
<path d="M1174.178,2085.440 A670.000,670.000 40.000 0,1 833.373,1432.852 L753.776,1424.834 A750.000,750.000 0.000 0,0 1135.274,2155.344 Z" style="stroke-linecap:round;fill:rgb(255,129,0);" />
<path d="M838.187,1395.580 A670.000,670.000 40.000 0,1 1003.065,1050.605 L943.729,996.946 A750.000,750.000 0.000 0,0 759.165,1383.112 Z" style="stroke-linecap:round;fill:rgb(255,213,34);" />
<path d="M1029.044,1023.449 A670.000,670.000 40.000 0,1 1181.115,910.753 L1143.039,840.395 A750.000,750.000 0.000 0,0 972.811,966.547 Z" style="stroke-linecap:round;fill:rgb(225,198,47);" />
<path d="M1214.656,893.800 A670.000,670.000 40.000 0,1 1310.722,857.292 L1288.121,780.551 A750.000,750.000 0.000 0,0 1180.585,821.417 Z" style="stroke-linecap:round;fill:rgb(167,87,43);" />
<path d="M1347.056,847.690 A670.000,670.000 40.000 0,1 1350.911,846.798 L1333.109,768.804 A750.000,750.000 0.000 0,0 1328.794,769.802 Z" style="stroke-linecap:round;fill:rgb(221,115,143);" />
<path d="M1387.771,839.466 A670.000,670.000 40.000 0,1 1462.433,831.054 L1457.947,751.180 A750.000,750.000 0.000 0,0 1374.370,760.597 Z" style="stroke-linecap:round;fill:rgb(214,137,178);" />
</g>
<g id="track_0">
<path d="M 1390.015,852.677 A 656.600,656.600 0.00 0,1 1463.2,844.4 L 1463.2,844.4 1464.1,868.6 1464.2,892.9 1463.5,917.2 1461.8,941.5 1459.3,965.6 1455.8,989.5 1451.3,1013.0 1445.9,1036.1 1439.4,1058.6 1432.0,1080.5 1423.6,1101.7 1414.2,1122.2 1403.7,1141.8 1392.3,1160.6 1380.0,1178.4 1366.6,1195.2 1352.4,1211.0 1337.2,1225.7 1321.1,1239.4 1304.2,1251.8 1286.4,1263.2 1267.8,1273.3 1248.5,1282.2 1228.5,1290.0 1207.8,1296.5 1186.5,1301.8 1164.6,1305.9 1142.3,1308.9 1119.5,1310.6 1096.4,1311.2 1073.0,1310.7 1049.4,1309.0 1025.6,1306.3 1001.8,1302.6 978.0,1297.9 954.3,1292.3 930.8,1285.8 907.6,1278.4 884.9,1270.4  A 656.600,656.600 0.00 0,1 935.0,1165.6 L 935.0,1165.6 955.4,1177.2 976.1,1188.3 997.1,1198.7 1018.3,1208.4 1039.5,1217.2 1060.6,1225.1 1081.7,1231.9 1102.5,1237.8 1123.1,1242.5 1143.3,1246.1 1163.1,1248.5 1182.3,1249.7 1201.0,1249.6 1219.1,1248.2 1236.6,1245.5 1253.3,1241.5 1269.2,1236.2 1284.4,1229.5 1298.7,1221.6 1312.1,1212.4 1324.7,1201.8 1336.3,1190.1 1346.9,1177.1 1356.7,1162.9 1365.4,1147.6 1373.2,1131.2 1380.0,1113.8 1385.8,1095.3 1390.6,1076.0 1394.5,1055.9 1397.5,1035.0 1399.5,1013.5 1400.6,991.3 1400.8,968.7 1400.2,945.8 1398.8,922.6 1396.5,899.3 1393.6,875.9 1390.0,852.7  Z" style="stroke-width: 0.0;  fill: rgb(0,0,0); opacity: 0.167;" />
<path d="M 1078.606,996.462 A 656.600,656.600 0.00 0,1 1140.9,950.3 L 1140.9,950.3 1153.3,969.3 1165.8,988.0 1178.2,1006.4 1190.5,1024.3 1202.6,1041.5 1214.4,1058.1 1225.8,1073.8 1236.8,1088.5 1247.3,1102.3 1257.3,1114.9 1266.7,1126.3 1275.5,1136.4 1283.7,1145.3 1291.1,1152.7 1297.8,1158.7 1303.7,1163.3 1308.8,1166.4 1313.2,1168.0 1316.7,1168.0 1319.4,1166.6 1321.2,1163.6 1322.2,1159.1 1322.4,1153.1 1321.8,1145.6 1320.3,1136.7 1318.0,1126.5 1315.0,1114.9 1311.2,1102.0 1306.6,1087.9 1301.4,1072.7 1295.5,1056.4 1289.1,1039.2 1282.0,1021.1 1274.4,1002.2 1266.4,982.8 1258.0,962.8 1249.2,942.4 1240.2,921.8 1230.9,901.1  A 656.600,656.600 0.00 0,1 1303.4,873.5 L 1303.4,873.5 1310.1,895.4 1316.4,917.2 1322.3,938.8 1327.7,960.1 1332.5,981.0 1336.8,1001.3 1340.4,1020.9 1343.4,1039.7 1345.7,1057.7 1347.2,1074.6 1348.0,1090.5 1347.9,1105.2 1347.1,1118.7 1345.4,1130.9 1342.9,1141.8 1339.6,1151.3 1335.4,1159.4 1330.4,1166.0 1324.5,1171.2 1317.8,1174.8 1310.3,1177.0 1302.0,1177.6 1293.0,1176.8 1283.2,1174.5 1272.6,1170.7 1261.4,1165.5 1249.6,1159.0 1237.2,1151.0 1224.3,1141.8 1210.8,1131.4 1196.9,1119.8 1182.7,1107.2 1168.1,1093.5 1153.4,1079.0 1138.4,1063.6 1123.4,1047.6 1108.3,1030.9 1093.4,1013.9 1078.6,996.5  Z" style="stroke-width: 0.0;  fill: rgb(0,0,0); opacity: 0.167;" />
<path d="M 2118.462,1720.517 A 656.600,656.600 0.00 0,1 2069.9,1826.1 L 2069.9,1826.1 2050.3,1814.7 2030.8,1803.3 2011.8,1792.0 1993.2,1780.7 1975.3,1769.6 1958.1,1758.7 1941.8,1748.1 1926.5,1737.9 1912.2,1728.0 1899.1,1718.6 1887.2,1709.6 1876.7,1701.2 1867.5,1693.4 1859.7,1686.2 1853.4,1679.6 1848.6,1673.6 1845.3,1668.3 1843.6,1663.8 1843.5,1659.9 1844.9,1656.7 1847.9,1654.3 1852.5,1652.6 1858.7,1651.7 1866.3,1651.4 1875.4,1651.9 1886.0,1653.1 1897.9,1655.0 1911.2,1657.6 1925.7,1660.8 1941.4,1664.6 1958.2,1669.0 1975.9,1674.0 1994.6,1679.5 2014.0,1685.4 2034.1,1691.8 2054.7,1698.5 2075.8,1705.6 2097.1,1713.0 2118.5,1720.5  A 656.600,656.600 0.00 0,1 2069.9,1826.1 L 2069.9,1826.1 2050.3,1814.7 2030.8,1803.3 2011.8,1792.0 1993.2,1780.7 1975.3,1769.6 1958.1,1758.7 1941.8,1748.1 1926.5,1737.9 1912.2,1728.0 1899.1,1718.6 1887.2,1709.6 1876.7,1701.2 1867.5,1693.4 1859.7,1686.2 1853.4,1679.6 1848.6,1673.6 1845.3,1668.3 1843.6,1663.8 1843.5,1659.9 1844.9,1656.7 1847.9,1654.3 1852.5,1652.6 1858.7,1651.7 1866.3,1651.4 1875.4,1651.9 1886.0,1653.1 1897.9,1655.0 1911.2,1657.6 1925.7,1660.8 1941.4,1664.6 1958.2,1669.0 1975.9,1674.0 1994.6,1679.5 2014.0,1685.4 2034.1,1691.8 2054.7,1698.5 2075.8,1705.6 2097.1,1713.0 2118.5,1720.5  Z" style="stroke-width: 0.0;  fill: rgb(0,0,0); opacity: 0.167;" />
<path d="M 1581.217,848.442 A 656.600,656.600 0.00 0,1 1672.4,866.4 L 1672.4,866.4 1664.6,896.1 1657.1,926.3 1649.9,956.9 1642.9,988.1 1636.1,1019.7 1629.5,1051.7 1622.9,1084.1 1616.5,1116.8 1610.2,1149.8 1603.9,1183.2 1597.7,1216.7 1591.5,1250.5 1585.2,1284.5 1579.0,1318.7 1572.7,1353.0 1566.3,1387.4 1560.0,1421.9 1553.6,1456.4 1547.1,1491.0 1540.6,1525.5 1534.0,1560.1 1527.5,1594.6 1520.9,1629.0 1514.2,1663.4 1507.6,1697.6 1501.1,1731.7 1494.5,1765.6 1488.0,1799.4 1481.7,1832.9 1475.4,1866.3 1469.3,1899.3 1463.4,1932.2 1457.6,1964.7 1452.2,1996.9 1447.0,2028.8 1442.2,2060.4 1437.8,2091.6 1433.8,2122.4 1430.3,2152.9  A 656.600,656.600 0.00 0,1 1338.8,2136.5 L 1338.8,2136.5 1346.2,2106.6 1353.2,2076.2 1360.0,2045.3 1366.5,2013.9 1372.9,1982.1 1379.1,1950.0 1385.2,1917.5 1391.3,1884.6 1397.3,1851.5 1403.2,1818.1 1409.2,1784.4 1415.2,1750.6 1421.2,1716.5 1427.2,1682.4 1433.4,1648.0 1439.5,1613.6 1445.8,1579.2 1452.2,1544.6 1458.6,1510.1 1465.1,1475.5 1471.7,1441.0 1478.3,1406.6 1485.0,1372.2 1491.7,1337.9 1498.5,1303.7 1505.3,1269.6 1512.1,1235.7 1518.8,1202.0 1525.5,1168.5 1532.1,1135.2 1538.5,1102.2 1544.8,1069.4 1551.0,1036.9 1556.8,1004.6 1562.5,972.7 1567.7,941.1 1572.7,909.9 1577.2,879.0 1581.2,848.4  Z" style="stroke-width: 0.0;  fill: rgb(0,0,0); opacity: 0.167;" />
<path d="M 1063.924,1009.122 A 656.600,656.600 0.00 0,1 1157.3,940.0 L 1157.3,940.0 1169.3,959.3 1181.6,978.4 1194.0,997.1 1206.4,1015.2 1218.9,1032.5 1231.3,1049.1 1243.6,1064.8 1255.8,1079.4 1267.7,1092.9 1279.4,1105.2 1290.7,1116.3 1301.7,1125.9 1312.3,1134.2 1322.4,1141.0 1332.1,1146.3 1341.3,1150.1 1349.9,1152.3 1358.0,1152.9 1365.5,1151.9 1372.4,1149.3 1378.8,1145.1 1384.5,1139.3 1389.5,1132.0 1394.0,1123.1 1397.8,1112.8 1401.0,1101.0 1403.5,1087.8 1405.4,1073.3 1406.7,1057.5 1407.4,1040.6 1407.5,1022.5 1407.0,1003.5 1406.0,983.6 1404.4,963.0 1402.4,941.7 1399.9,919.8 1397.0,897.6 1393.7,875.2 1390.0,852.7  A 656.600,656.600 0.00 0,1 1463.2,844.4 L 1463.2,844.4 1464.2,867.6 1464.7,890.7 1464.6,913.6 1463.8,936.2 1462.4,958.4 1460.4,980.0 1457.7,1000.9 1454.2,1021.0 1450.1,1040.2 1445.2,1058.5 1439.7,1075.6 1433.4,1091.6 1426.3,1106.4 1418.6,1119.9 1410.1,1132.1 1400.9,1142.8 1391.1,1152.2 1380.5,1160.1 1369.3,1166.5 1357.5,1171.3 1345.1,1174.7 1332.0,1176.5 1318.4,1176.9 1304.4,1175.7 1289.8,1173.1 1274.8,1168.9 1259.4,1163.4 1243.6,1156.5 1227.5,1148.3 1211.3,1138.8 1194.8,1128.0 1178.2,1116.2 1161.5,1103.3 1144.8,1089.4 1128.2,1074.7 1111.7,1059.2 1095.5,1043.0 1079.5,1026.3 1063.9,1009.1  Z" style="stroke-width: 0.0;  fill: rgb(0,0,0); opacity: 0.167;" />
<path d="M 1295.993,2124.103 A 656.600,656.600 0.00 0,1 1213.4,2090.7 L 1213.4,2090.7 1223.3,2070.4 1233.3,2050.2 1243.2,2030.4 1253.1,2011.1 1262.8,1992.4 1272.3,1974.5 1281.5,1957.4 1290.4,1941.3 1299.0,1926.3 1307.1,1912.5 1314.8,1899.9 1322.0,1888.6 1328.7,1878.8 1334.8,1870.4 1340.4,1863.4 1345.4,1858.1 1349.8,1854.2 1353.5,1852.0 1356.6,1851.4 1359.1,1852.4 1360.9,1855.0 1362.1,1859.2 1362.6,1865.0 1362.4,1872.3 1361.6,1881.2 1360.2,1891.5 1358.2,1903.3 1355.6,1916.4 1352.3,1930.8 1348.6,1946.4 1344.3,1963.1 1339.6,1980.8 1334.3,1999.5 1328.7,2019.0 1322.7,2039.2 1316.4,2059.9 1309.8,2081.1 1303.0,2102.5 1296.0,2124.1  A 656.600,656.600 0.00 0,1 1213.4,2090.7 L 1213.4,2090.7 1223.3,2070.4 1233.3,2050.2 1243.2,2030.4 1253.1,2011.1 1262.8,1992.4 1272.3,1974.5 1281.5,1957.4 1290.4,1941.3 1299.0,1926.3 1307.1,1912.5 1314.8,1899.9 1322.0,1888.6 1328.7,1878.8 1334.8,1870.4 1340.4,1863.4 1345.4,1858.1 1349.8,1854.2 1353.5,1852.0 1356.6,1851.4 1359.1,1852.4 1360.9,1855.0 1362.1,1859.2 1362.6,1865.0 1362.4,1872.3 1361.6,1881.2 1360.2,1891.5 1358.2,1903.3 1355.6,1916.4 1352.3,1930.8 1348.6,1946.4 1344.3,1963.1 1339.6,1980.8 1334.3,1999.5 1328.7,2019.0 1322.7,2039.2 1316.4,2059.9 1309.8,2081.1 1303.0,2102.5 1296.0,2124.1  Z" style="stroke-width: 0.0;  fill: rgb(0,0,0); opacity: 0.167;" />
<path d="M 1063.924,1009.122 A 656.600,656.600 0.00 0,1 1157.3,940.0 L 1157.3,940.0 1171.9,964.6 1186.2,990.1 1200.1,1016.4 1213.7,1043.4 1226.9,1071.1 1239.7,1099.5 1252.3,1128.6 1264.4,1158.2 1276.2,1188.3 1287.6,1219.0 1298.7,1250.1 1309.4,1281.7 1319.8,1313.6 1329.8,1345.9 1339.4,1378.5 1348.6,1411.3 1357.5,1444.4 1366.0,1477.7 1374.0,1511.1 1381.7,1544.7 1388.9,1578.3 1395.7,1611.9 1402.1,1645.6 1408.0,1679.2 1413.5,1712.7 1418.5,1746.1 1423.0,1779.4 1427.1,1812.5 1430.6,1845.3 1433.6,1877.9 1436.0,1910.2 1437.9,1942.2 1439.3,1973.7 1440.0,2004.9 1440.1,2035.6 1439.6,2065.8 1438.5,2095.6 1436.7,2124.7 1434.2,2153.3  A 656.600,656.600 0.00 0,1 1331.3,2134.6 L 1331.3,2134.6 1337.9,2108.0 1343.8,2080.7 1348.9,2052.8 1353.3,2024.3 1356.9,1995.3 1359.8,1965.7 1362.0,1935.7 1363.3,1905.3 1364.0,1874.6 1363.8,1843.5 1362.9,1812.2 1361.3,1780.6 1358.9,1748.9 1355.7,1717.0 1351.8,1685.1 1347.2,1653.1 1341.8,1621.1 1335.7,1589.2 1328.9,1557.4 1321.3,1525.7 1313.1,1494.2 1304.2,1463.0 1294.6,1432.0 1284.4,1401.4 1273.5,1371.1 1262.0,1341.2 1249.9,1311.8 1237.2,1282.9 1223.9,1254.5 1210.0,1226.6 1195.6,1199.4 1180.7,1172.9 1165.3,1147.1 1149.5,1122.0 1133.1,1097.7 1116.4,1074.2 1099.3,1051.6 1081.8,1029.9 1063.9,1009.1  Z" style="stroke-width: 0.0;  fill: rgb(0,0,0); opacity: 0.167;" />
<path d="M 886.227,1266.748 A 656.600,656.600 0.00 0,1 933.0,1168.9 L 933.0,1168.9 952.5,1180.4 971.9,1191.9 990.8,1203.4 1009.3,1214.8 1027.2,1226.1 1044.2,1237.0 1060.5,1247.7 1075.8,1258.0 1090.0,1267.9 1103.0,1277.4 1114.9,1286.3 1125.4,1294.6 1134.6,1302.4 1142.4,1309.6 1148.7,1316.1 1153.5,1321.9 1156.8,1327.0 1158.5,1331.4 1158.7,1335.1 1157.3,1338.0 1154.3,1340.2 1149.8,1341.6 1143.8,1342.2 1136.2,1342.1 1127.2,1341.3 1116.8,1339.8 1104.9,1337.5 1091.8,1334.6 1077.4,1330.9 1061.9,1326.7 1045.2,1321.9 1027.6,1316.5 1009.1,1310.5 989.8,1304.1 969.9,1297.3 949.4,1290.1 928.6,1282.5 907.5,1274.7 886.2,1266.7  A 656.600,656.600 0.00 0,1 933.0,1168.9 L 933.0,1168.9 952.5,1180.4 971.9,1191.9 990.8,1203.4 1009.3,1214.8 1027.2,1226.1 1044.2,1237.0 1060.5,1247.7 1075.8,1258.0 1090.0,1267.9 1103.0,1277.4 1114.9,1286.3 1125.4,1294.6 1134.6,1302.4 1142.4,1309.6 1148.7,1316.1 1153.5,1321.9 1156.8,1327.0 1158.5,1331.4 1158.7,1335.1 1157.3,1338.0 1154.3,1340.2 1149.8,1341.6 1143.8,1342.2 1136.2,1342.1 1127.2,1341.3 1116.8,1339.8 1104.9,1337.5 1091.8,1334.6 1077.4,1330.9 1061.9,1326.7 1045.2,1321.9 1027.6,1316.5 1009.1,1310.5 989.8,1304.1 969.9,1297.3 949.4,1290.1 928.6,1282.5 907.5,1274.7 886.2,1266.7  Z" style="stroke-width: 0.0;  fill: rgb(0,0,0); opacity: 0.167;" />
<path d="M 1350.115,860.736 A 656.600,656.600 0.00 0,1 1353.9,859.9 L 1353.9,859.9 1359.7,883.5 1366.4,907.1 1374.0,930.5 1382.5,953.7 1391.8,976.4 1402.1,998.8 1413.1,1020.5 1425.1,1041.6 1437.8,1062.0 1451.4,1081.5 1465.8,1100.2 1481.0,1117.9 1496.9,1134.6 1513.6,1150.3 1531.0,1164.8 1549.1,1178.2 1567.9,1190.4 1587.2,1201.4 1607.2,1211.1 1627.7,1219.6 1648.7,1226.8 1670.1,1232.6 1692.0,1237.2 1714.3,1240.4 1736.9,1242.4 1759.8,1243.0 1782.9,1242.4 1806.1,1240.5 1829.5,1237.5 1852.9,1233.2 1876.3,1227.7 1899.7,1221.2 1922.8,1213.6 1945.8,1204.9 1968.5,1195.4 1990.8,1184.9 2012.7,1173.7 2034.1,1161.7 2054.9,1149.0  A 656.600,656.600 0.00 0,1 2108.1,1252.3 L 2108.1,1252.3 2084.9,1261.3 2061.2,1269.5 2037.0,1276.8 2012.3,1283.3 1987.4,1288.8 1962.2,1293.4 1936.8,1296.9 1911.4,1299.4 1885.9,1300.9 1860.4,1301.1 1835.0,1300.3 1809.8,1298.3 1784.8,1295.2 1760.1,1290.8 1735.7,1285.3 1711.7,1278.6 1688.1,1270.7 1665.0,1261.6 1642.4,1251.4 1620.4,1240.0 1599.0,1227.5 1578.2,1213.9 1558.1,1199.2 1538.7,1183.5 1520.1,1166.8 1502.2,1149.2 1485.2,1130.6 1469.0,1111.2 1453.6,1091.0 1439.1,1070.0 1425.5,1048.4 1412.8,1026.2 1401.0,1003.5 1390.2,980.3 1380.3,956.8 1371.3,932.9 1363.3,908.9 1356.2,884.8 1350.1,860.7  Z" style="stroke-width: 0.0;  fill: rgb(0,0,0); opacity: 0.167;" />
<path d="M 1072.689,1001.474 A 656.600,656.600 0.00 0,1 1147.4,946.1 L 1147.4,946.1 1161.9,969.8 1176.0,994.3 1189.7,1019.7 1202.9,1045.8 1215.5,1072.7 1227.7,1100.3 1239.4,1128.6 1250.5,1157.5 1261.2,1187.0 1271.2,1217.0 1280.8,1247.5 1289.7,1278.4 1298.1,1309.8 1305.9,1341.5 1313.1,1373.5 1319.7,1405.8 1325.7,1438.4 1331.2,1471.1 1335.9,1503.9 1340.1,1536.9 1343.6,1569.9 1346.5,1603.0 1348.8,1636.0 1350.4,1668.9 1351.4,1701.8 1351.7,1734.4 1351.3,1766.9 1350.3,1799.1 1348.7,1831.0 1346.4,1862.5 1343.4,1893.7 1339.8,1924.5 1335.5,1954.8 1330.6,1984.5 1325.0,2013.8 1318.7,2042.4 1311.8,2070.3 1304.2,2097.6 1296.0,2124.1  A 656.600,656.600 0.00 0,1 1213.4,2090.7 L 1213.4,2090.7 1224.6,2066.5 1235.2,2041.4 1245.1,2015.7 1254.4,1989.2 1262.9,1962.0 1270.6,1934.3 1277.6,1906.0 1283.8,1877.2 1289.3,1848.0 1293.8,1818.4 1297.6,1788.4 1300.5,1758.1 1302.6,1727.6 1303.8,1696.9 1304.1,1666.0 1303.6,1635.0 1302.2,1604.0 1299.9,1573.0 1296.8,1542.0 1292.8,1511.0 1288.0,1480.3 1282.3,1449.7 1275.7,1419.3 1268.4,1389.2 1260.2,1359.4 1251.2,1330.0 1241.5,1301.0 1231.0,1272.5 1219.7,1244.5 1207.8,1217.0 1195.1,1190.1 1181.8,1163.8 1167.8,1138.2 1153.3,1113.4 1138.2,1089.3 1122.5,1066.0 1106.3,1043.6 1089.7,1022.1 1072.7,1001.5  Z" style="stroke-width: 0.0;  fill: rgb(0,0,0); opacity: 0.167;" />
<path d="M 1350.115,860.736 A 656.600,656.600 0.00 0,1 1353.9,859.9 L 1353.9,859.9 1359.0,881.9 1364.0,903.8 1369.1,925.4 1374.1,946.5 1379.0,966.9 1383.8,986.5 1388.4,1005.3 1392.9,1023.1 1397.2,1039.7 1401.2,1055.1 1405.0,1069.2 1408.6,1081.9 1411.9,1093.2 1414.9,1102.9 1417.6,1111.0 1420.0,1117.6 1422.1,1122.4 1423.9,1125.6 1425.3,1127.1 1426.3,1126.9 1427.1,1125.0 1427.5,1121.4 1427.5,1116.1 1427.3,1109.1 1426.6,1100.5 1425.7,1090.4 1424.4,1078.8 1422.9,1065.6 1421.0,1051.2 1418.9,1035.4 1416.4,1018.4 1413.8,1000.3 1410.9,981.1 1407.8,961.2 1404.5,940.4 1401.1,919.0 1397.5,897.2 1393.8,875.0 1390.0,852.7  A 656.600,656.600 0.00 0,1 1463.2,844.4 L 1463.2,844.4 1464.4,867.1 1465.4,889.6 1466.3,911.8 1466.9,933.5 1467.4,954.5 1467.6,974.9 1467.6,994.3 1467.4,1012.7 1466.9,1030.1 1466.2,1046.2 1465.2,1061.0 1463.9,1074.4 1462.4,1086.4 1460.6,1096.9 1458.5,1105.8 1456.2,1113.0 1453.6,1118.6 1450.7,1122.5 1447.6,1124.7 1444.2,1125.2 1440.6,1124.0 1436.8,1121.0 1432.7,1116.4 1428.4,1110.1 1423.9,1102.2 1419.2,1092.6 1414.4,1081.6 1409.4,1069.1 1404.2,1055.1 1399.0,1039.9 1393.6,1023.4 1388.2,1005.8 1382.7,987.1 1377.2,967.5 1371.7,947.2 1366.2,926.2 1360.7,904.7 1355.4,882.8 1350.1,860.7  Z" style="stroke-width: 0.0;  fill: rgb(0,0,0); opacity: 0.167;" />
<path d="M 2118.462,1720.517 A 656.600,656.600 0.00 0,1 2069.9,1826.1 L 2069.9,1826.1 2048.8,1814.4 2027.1,1803.5 2005.0,1793.3 1982.6,1783.9 1959.9,1775.4 1937.0,1767.9 1914.0,1761.3 1891.0,1755.9 1868.0,1751.6 1845.2,1748.4 1822.5,1746.5 1800.0,1745.8 1777.9,1746.3 1756.1,1748.1 1734.7,1751.2 1713.8,1755.7 1693.3,1761.4 1673.5,1768.4 1654.2,1776.7 1635.6,1786.3 1617.6,1797.1 1600.4,1809.2 1583.9,1822.5 1568.1,1837.0 1553.1,1852.6 1539.0,1869.3 1525.7,1887.0 1513.2,1905.7 1501.6,1925.3 1490.9,1945.7 1481.1,1966.9 1472.1,1988.8 1464.1,2011.3 1456.9,2034.3 1450.6,2057.7 1445.2,2081.4 1440.7,2105.3 1437.0,2129.3 1434.2,2153.3  A 656.600,656.600 0.00 0,1 1331.3,2134.6 L 1331.3,2134.6 1338.2,2110.5 1346.1,2086.3 1354.9,2062.3 1364.7,2038.5 1375.4,2014.9 1387.1,1991.6 1399.8,1968.8 1413.3,1946.5 1427.8,1924.7 1443.2,1903.6 1459.4,1883.2 1476.5,1863.5 1494.4,1844.6 1513.1,1826.6 1532.6,1809.6 1552.8,1793.4 1573.7,1778.3 1595.3,1764.1 1617.5,1751.1 1640.3,1739.1 1663.7,1728.2 1687.5,1718.4 1711.9,1709.7 1736.6,1702.2 1761.7,1695.9 1787.2,1690.6 1812.8,1686.6 1838.7,1683.6 1864.8,1681.8 1890.9,1681.1 1917.0,1681.5 1943.1,1683.0 1969.0,1685.5 1994.8,1689.1 2020.4,1693.6 2045.6,1699.0 2070.4,1705.3 2094.7,1712.5 2118.5,1720.5  Z" style="stroke-width: 0.0;  fill: rgb(0,0,0); opacity: 0.167;" />
<path d="M 1434.195,2153.294 A 656.600,656.600 0.00 0,1 1331.3,2134.6 L 1331.3,2134.6 1337.2,2112.7 1343.2,2091.0 1349.2,2069.6 1355.3,2048.8 1361.4,2028.6 1367.4,2009.2 1373.3,1990.7 1379.2,1973.3 1384.9,1956.9 1390.4,1941.8 1395.8,1928.0 1401.0,1915.6 1406.0,1904.7 1410.8,1895.3 1415.3,1887.5 1419.5,1881.3 1423.5,1876.8 1427.2,1873.9 1430.5,1872.8 1433.6,1873.3 1436.4,1875.6 1438.8,1879.5 1440.9,1885.2 1442.7,1892.5 1444.2,1901.4 1445.3,1911.9 1446.1,1923.8 1446.6,1937.3 1446.8,1952.1 1446.7,1968.2 1446.3,1985.5 1445.6,2003.9 1444.6,2023.3 1443.4,2043.5 1442.0,2064.6 1440.3,2086.2 1438.4,2108.3 1436.4,2130.7 1434.2,2153.3  A 656.600,656.600 0.00 0,1 1331.3,2134.6 L 1331.3,2134.6 1337.2,2112.7 1343.2,2091.0 1349.2,2069.6 1355.3,2048.8 1361.4,2028.6 1367.4,2009.2 1373.3,1990.7 1379.2,1973.3 1384.9,1956.9 1390.4,1941.8 1395.8,1928.0 1401.0,1915.6 1406.0,1904.7 1410.8,1895.3 1415.3,1887.5 1419.5,1881.3 1423.5,1876.8 1427.2,1873.9 1430.5,1872.8 1433.6,1873.3 1436.4,1875.6 1438.8,1879.5 1440.9,1885.2 1442.7,1892.5 1444.2,1901.4 1445.3,1911.9 1446.1,1923.8 1446.6,1937.3 1446.8,1952.1 1446.7,1968.2 1446.3,1985.5 1445.6,2003.9 1444.6,2023.3 1443.4,2043.5 1442.0,2064.6 1440.3,2086.2 1438.4,2108.3 1436.4,2130.7 1434.2,2153.3  Z" style="stroke-width: 0.0;  fill: rgb(0,0,0); opacity: 0.167;" />
<path d="M 1220.363,905.924 A 656.600,656.600 0.00 0,1 1314.5,870.1 L 1314.5,870.1 1320.9,891.9 1327.4,913.4 1333.7,934.6 1340.0,955.3 1346.2,975.4 1352.2,994.7 1358.0,1013.2 1363.5,1030.6 1368.8,1046.9 1373.8,1062.1 1378.5,1075.9 1382.9,1088.4 1386.9,1099.4 1390.5,1108.9 1393.7,1116.9 1396.5,1123.3 1398.9,1128.0 1400.8,1131.1 1402.3,1132.5 1403.4,1132.2 1404.0,1130.2 1404.2,1126.6 1403.9,1121.3 1403.2,1114.4 1402.0,1105.9 1400.5,1095.8 1398.5,1084.2 1396.1,1071.3 1393.3,1056.9 1390.2,1041.3 1386.8,1024.5 1383.0,1006.6 1378.9,987.7 1374.6,967.9 1370.0,947.4 1365.3,926.3 1360.3,904.7 1355.3,882.8 1350.1,860.7  A 656.600,656.600 0.00 0,1 1353.9,859.9 L 1353.9,859.9 1358.9,882.0 1363.6,904.1 1368.1,925.8 1372.2,947.2 1376.1,967.9 1379.5,988.0 1382.5,1007.3 1385.1,1025.7 1387.2,1043.0 1388.8,1059.1 1389.9,1074.1 1390.5,1087.7 1390.5,1100.0 1390.0,1110.8 1388.9,1120.2 1387.2,1128.0 1384.9,1134.2 1382.1,1138.9 1378.7,1141.9 1374.7,1143.2 1370.2,1143.0 1365.1,1141.1 1359.5,1137.6 1353.3,1132.5 1346.7,1125.8 1339.6,1117.6 1332.0,1107.9 1324.1,1096.8 1315.7,1084.4 1307.0,1070.6 1298.0,1055.7 1288.7,1039.7 1279.2,1022.6 1269.5,1004.7 1259.7,986.0 1249.9,966.6 1240.0,946.7 1230.1,926.4 1220.4,905.9  Z" style="stroke-width: 0.0;  fill: rgb(0,0,0); opacity: 0.167;" />
<path d="M 1390.015,852.677 A 656.600,656.600 0.00 0,1 1463.2,844.4 L 1463.2,844.4 1464.4,867.1 1465.4,889.6 1466.3,911.8 1466.9,933.5 1467.4,954.5 1467.6,974.9 1467.6,994.3 1467.4,1012.7 1466.9,1030.1 1466.2,1046.2 1465.2,1061.0 1463.9,1074.4 1462.4,1086.4 1460.6,1096.9 1458.5,1105.8 1456.2,1113.0 1453.6,1118.6 1450.7,1122.5 1447.6,1124.7 1444.2,1125.2 1440.6,1124.0 1436.8,1121.0 1432.7,1116.4 1428.4,1110.1 1423.9,1102.2 1419.2,1092.6 1414.4,1081.6 1409.4,1069.1 1404.2,1055.1 1399.0,1039.9 1393.6,1023.4 1388.2,1005.8 1382.7,987.1 1377.2,967.5 1371.7,947.2 1366.2,926.2 1360.7,904.7 1355.4,882.8 1350.1,860.7  A 656.600,656.600 0.00 0,1 1353.9,859.9 L 1353.9,859.9 1359.0,881.9 1364.0,903.8 1369.1,925.4 1374.1,946.5 1379.0,966.9 1383.8,986.5 1388.4,1005.3 1392.9,1023.1 1397.2,1039.7 1401.2,1055.1 1405.0,1069.2 1408.6,1081.9 1411.9,1093.2 1414.9,1102.9 1417.6,1111.0 1420.0,1117.6 1422.1,1122.4 1423.9,1125.6 1425.3,1127.1 1426.3,1126.9 1427.1,1125.0 1427.5,1121.4 1427.5,1116.1 1427.3,1109.1 1426.6,1100.5 1425.7,1090.4 1424.4,1078.8 1422.9,1065.6 1421.0,1051.2 1418.9,1035.4 1416.4,1018.4 1413.8,1000.3 1410.9,981.1 1407.8,961.2 1404.5,940.4 1401.1,919.0 1397.5,897.2 1393.8,875.0 1390.0,852.7  Z" style="stroke-width: 0.0;  fill: rgb(0,0,0); opacity: 0.167;" />
<path d="M 1434.195,2153.294 A 656.600,656.600 0.00 0,1 1331.3,2134.6 L 1331.3,2134.6 1337.6,2112.1 1344.5,2089.8 1351.9,2067.9 1359.9,2046.5 1368.5,2025.6 1377.6,2005.5 1387.3,1986.2 1397.4,1967.8 1408.0,1950.5 1419.1,1934.3 1430.6,1919.3 1442.5,1905.5 1454.9,1893.1 1467.6,1882.2 1480.6,1872.6 1494.0,1864.6 1507.7,1858.1 1521.6,1853.2 1535.8,1849.8 1550.2,1848.1 1564.7,1847.9 1579.5,1849.3 1594.3,1852.3 1609.2,1856.8 1624.2,1862.9 1639.2,1870.4 1654.1,1879.5 1669.1,1889.9 1683.9,1901.6 1698.5,1914.7 1713.0,1928.9 1727.3,1944.3 1741.3,1960.7 1755.1,1978.0 1768.4,1996.1 1781.4,2015.0 1794.0,2034.5 1806.1,2054.4 1817.6,2074.7  A 656.600,656.600 0.00 0,1 1711.4,2121.7 L 1711.4,2121.7 1703.8,2100.1 1696.0,2078.7 1687.9,2057.8 1679.5,2037.4 1671.0,2017.6 1662.2,1998.7 1653.4,1980.7 1644.4,1963.7 1635.3,1947.9 1626.2,1933.3 1617.1,1920.0 1608.0,1908.1 1598.9,1897.7 1589.8,1888.8 1580.9,1881.4 1572.0,1875.7 1563.3,1871.6 1554.7,1869.2 1546.2,1868.4 1538.0,1869.3 1529.9,1872.0 1522.1,1876.3 1514.5,1882.2 1507.2,1889.8 1500.1,1899.0 1493.3,1909.7 1486.8,1921.9 1480.6,1935.6 1474.7,1950.6 1469.1,1966.9 1463.8,1984.3 1458.9,2002.9 1454.3,2022.4 1450.1,2042.8 1446.2,2064.0 1442.7,2085.8 1439.5,2108.0 1436.7,2130.6 1434.2,2153.3  Z" style="stroke-width: 0.0;  fill: rgb(0,0,0); opacity: 0.167;" />
<path d="M 1350.115,860.736 A 656.600,656.600 0.00 0,1 1353.9,859.9 L 1353.9,859.9 1358.9,882.0 1363.6,904.0 1368.1,925.8 1372.3,947.1 1376.1,967.9 1379.6,988.0 1382.6,1007.2 1385.3,1025.6 1387.4,1042.9 1389.1,1059.0 1390.2,1073.9 1390.9,1087.5 1391.0,1099.8 1390.5,1110.6 1389.5,1119.9 1387.9,1127.7 1385.7,1133.9 1383.0,1138.5 1379.7,1141.4 1375.8,1142.7 1371.3,1142.4 1366.4,1140.5 1360.9,1136.9 1354.8,1131.7 1348.3,1125.0 1341.4,1116.7 1333.9,1107.0 1326.1,1095.8 1317.9,1083.3 1309.3,1069.5 1300.5,1054.5 1291.3,1038.4 1282.0,1021.3 1272.4,1003.3 1262.7,984.6 1253.0,965.1 1243.2,945.2 1233.5,924.8 1223.9,904.3  A 656.600,656.600 0.00 0,1 1310.8,871.3 L 1310.8,871.3 1317.3,892.9 1323.9,914.4 1330.4,935.6 1336.8,956.3 1343.1,976.3 1349.3,995.6 1355.2,1014.0 1360.9,1031.4 1366.4,1047.7 1371.5,1062.8 1376.4,1076.5 1380.9,1089.0 1385.0,1100.0 1388.7,1109.4 1392.1,1117.4 1395.0,1123.7 1397.5,1128.4 1399.6,1131.4 1401.2,1132.8 1402.4,1132.5 1403.1,1130.5 1403.3,1126.8 1403.2,1121.5 1402.5,1114.6 1401.5,1106.0 1400.0,1095.9 1398.1,1084.4 1395.8,1071.4 1393.1,1057.0 1390.0,1041.3 1386.6,1024.5 1382.9,1006.6 1378.8,987.7 1374.5,967.9 1370.0,947.4 1365.2,926.3 1360.3,904.7 1355.3,882.8 1350.1,860.7  Z" style="stroke-width: 0.0;  fill: rgb(0,0,0); opacity: 0.167;" />
<path d="M 1390.015,852.677 A 656.600,656.600 0.00 0,1 1463.2,844.4 L 1463.2,844.4 1465.1,871.0 1468.1,898.0 1471.9,925.4 1476.8,952.9 1482.5,980.7 1489.3,1008.7 1496.9,1036.7 1505.5,1064.8 1515.0,1092.9 1525.5,1120.9 1536.8,1148.8 1549.0,1176.6 1562.1,1204.1 1576.0,1231.4 1590.8,1258.4 1606.4,1285.1 1622.8,1311.3 1639.9,1337.2 1657.8,1362.6 1676.4,1387.4 1695.7,1411.8 1715.7,1435.5 1736.2,1458.7 1757.4,1481.1 1779.1,1502.9 1801.4,1524.0 1824.1,1544.4 1847.3,1563.9 1870.8,1582.7 1894.8,1600.6 1919.0,1617.7 1943.5,1633.8 1968.3,1649.1 1993.2,1663.5 2018.2,1676.8 2043.3,1689.3 2068.4,1700.7 2093.5,1711.1 2118.5,1720.5  A 656.600,656.600 0.00 0,1 2069.9,1826.1 L 2069.9,1826.1 2046.0,1811.9 2022.1,1796.8 1998.3,1780.7 1974.4,1763.6 1950.7,1745.7 1927.0,1727.0 1903.5,1707.4 1880.2,1687.0 1857.1,1665.9 1834.2,1644.0 1811.6,1621.4 1789.3,1598.2 1767.2,1574.4 1745.6,1549.9 1724.3,1525.0 1703.4,1499.4 1682.9,1473.4 1662.9,1447.0 1643.4,1420.1 1624.3,1392.9 1605.8,1365.3 1587.9,1337.4 1570.5,1309.2 1553.8,1280.8 1537.6,1252.2 1522.1,1223.5 1507.3,1194.6 1493.2,1165.6 1479.8,1136.6 1467.2,1107.6 1455.3,1078.6 1444.2,1049.7 1433.9,1020.9 1424.4,992.3 1415.7,963.8 1408.0,935.6 1401.1,907.6 1395.1,880.0 1390.0,852.7  Z" style="stroke-width: 0.0;  fill: rgb(0,0,0); opacity: 0.167;" />
<path d="M 937.940,1839.429 A 656.600,656.600 0.00 0,1 901.9,1770.8 L 901.9,1770.8 923.0,1760.9 943.9,1750.4 964.4,1739.3 984.4,1727.7 1003.6,1715.6 1022.1,1703.0 1039.6,1690.1 1056.2,1676.7 1071.7,1663.1 1086.0,1649.1 1099.1,1634.8 1110.8,1620.2 1121.2,1605.5 1130.2,1590.6 1137.7,1575.5 1143.6,1560.3 1148.1,1545.0 1150.9,1529.7 1152.2,1514.3 1151.9,1499.0 1150.1,1483.7 1146.6,1468.5 1141.6,1453.4 1135.0,1438.5 1127.0,1423.7 1117.5,1409.1 1106.5,1394.8 1094.2,1380.7 1080.6,1366.9 1065.8,1353.5 1049.8,1340.4 1032.7,1327.7 1014.6,1315.4 995.7,1303.6 976.0,1292.3 955.6,1281.5 934.7,1271.2 913.5,1261.4 891.9,1252.3  A 656.600,656.600 0.00 0,1 925.3,1182.4 L 925.3,1182.4 946.0,1194.3 966.5,1206.9 986.4,1220.2 1005.8,1234.2 1024.6,1248.7 1042.6,1263.9 1059.7,1279.6 1075.9,1295.8 1091.0,1312.5 1105.0,1329.6 1117.9,1347.1 1129.5,1364.9 1139.9,1383.1 1148.9,1401.5 1156.5,1420.2 1162.8,1439.1 1167.6,1458.2 1170.9,1477.4 1172.7,1496.6 1173.1,1515.9 1172.0,1535.3 1169.4,1554.5 1165.4,1573.8 1159.9,1592.9 1152.9,1611.9 1144.6,1630.6 1135.0,1649.2 1124.1,1667.5 1111.9,1685.4 1098.5,1703.1 1084.0,1720.3 1068.5,1737.1 1052.0,1753.5 1034.6,1769.3 1016.4,1784.6 997.5,1799.3 978.1,1813.4 958.2,1826.8 937.9,1839.4  Z" style="stroke-width: 0.0;  fill: rgb(0,0,0); opacity: 0.167;" />
<path d="M 1390.015,852.677 A 656.600,656.600 0.00 0,1 1463.2,844.4 L 1463.2,844.4 1464.2,867.6 1464.7,890.7 1464.6,913.6 1463.8,936.2 1462.4,958.4 1460.4,980.0 1457.7,1000.9 1454.2,1021.0 1450.1,1040.2 1445.2,1058.5 1439.7,1075.6 1433.4,1091.6 1426.3,1106.4 1418.6,1119.9 1410.1,1132.1 1400.9,1142.8 1391.1,1152.2 1380.5,1160.1 1369.3,1166.5 1357.5,1171.3 1345.1,1174.7 1332.0,1176.5 1318.4,1176.9 1304.4,1175.7 1289.8,1173.1 1274.8,1168.9 1259.4,1163.4 1243.6,1156.5 1227.5,1148.3 1211.3,1138.8 1194.8,1128.0 1178.2,1116.2 1161.5,1103.3 1144.8,1089.4 1128.2,1074.7 1111.7,1059.2 1095.5,1043.0 1079.5,1026.3 1063.9,1009.1  A 656.600,656.600 0.00 0,1 1157.3,940.0 L 1157.3,940.0 1169.3,959.3 1181.6,978.4 1194.0,997.1 1206.4,1015.2 1218.9,1032.5 1231.3,1049.1 1243.6,1064.8 1255.8,1079.4 1267.7,1092.9 1279.4,1105.2 1290.7,1116.3 1301.7,1125.9 1312.3,1134.2 1322.4,1141.0 1332.1,1146.3 1341.3,1150.1 1349.9,1152.3 1358.0,1152.9 1365.5,1151.9 1372.4,1149.3 1378.8,1145.1 1384.5,1139.3 1389.5,1132.0 1394.0,1123.1 1397.8,1112.8 1401.0,1101.0 1403.5,1087.8 1405.4,1073.3 1406.7,1057.5 1407.4,1040.6 1407.5,1022.5 1407.0,1003.5 1406.0,983.6 1404.4,963.0 1402.4,941.7 1399.9,919.8 1397.0,897.6 1393.7,875.2 1390.0,852.7  Z" style="stroke-width: 0.0;  fill: rgb(0,0,0); opacity: 0.167;" />
<path d="M 1066.831,1006.555 A 656.600,656.600 0.00 0,1 1154.0,942.0 L 1154.0,942.0 1169.4,966.1 1185.7,990.3 1202.9,1014.4 1220.9,1038.6 1239.7,1062.8 1259.3,1087.0 1279.6,1111.1 1300.6,1135.1 1322.3,1159.1 1344.6,1183.0 1367.4,1206.7 1390.9,1230.3 1414.8,1253.8 1439.2,1277.0 1464.1,1300.0 1489.4,1322.9 1515.1,1345.4 1541.1,1367.7 1567.5,1389.7 1594.1,1411.3 1621.1,1432.6 1648.2,1453.5 1675.5,1474.0 1703.1,1494.1 1730.7,1513.7 1758.5,1532.8 1786.3,1551.5 1814.2,1569.5 1842.2,1587.1 1870.1,1604.0 1898.0,1620.3 1925.9,1635.9 1953.6,1650.8 1981.3,1665.0 2008.8,1678.5 2036.2,1691.2 2063.4,1703.0 2090.4,1714.0 2117.1,1724.2  A 656.600,656.600 0.00 0,1 2071.8,1822.7 L 2071.8,1822.7 2045.9,1807.7 2019.8,1792.0 1993.6,1775.6 1967.3,1758.6 1940.7,1741.0 1914.1,1722.9 1887.3,1704.2 1860.4,1685.1 1833.4,1665.6 1806.3,1645.6 1779.1,1625.3 1751.9,1604.7 1724.5,1583.8 1697.1,1562.6 1669.7,1541.2 1642.3,1519.6 1614.9,1497.9 1587.5,1475.9 1560.1,1453.9 1532.8,1431.7 1505.6,1409.5 1478.5,1387.1 1451.6,1364.8 1424.8,1342.3 1398.2,1319.9 1371.9,1297.4 1345.8,1275.0 1320.1,1252.5 1294.6,1230.1 1269.5,1207.6 1244.9,1185.2 1220.6,1162.8 1196.9,1140.4 1173.7,1118.1 1151.0,1095.8 1128.9,1073.5 1107.5,1051.2 1086.8,1028.9 1066.8,1006.6  Z" style="stroke-width: 0.0;  fill: rgb(0,0,0); opacity: 0.167;" />
<path d="M 2117.149,1724.166 A 656.600,656.600 0.00 0,1 2071.8,1822.7 L 2071.8,1822.7 2045.9,1807.7 2019.8,1792.0 1993.6,1775.6 1967.3,1758.6 1940.7,1741.0 1914.1,1722.9 1887.3,1704.2 1860.4,1685.1 1833.4,1665.6 1806.3,1645.6 1779.1,1625.3 1751.9,1604.7 1724.5,1583.8 1697.1,1562.6 1669.7,1541.2 1642.3,1519.6 1614.9,1497.9 1587.5,1475.9 1560.1,1453.9 1532.8,1431.7 1505.6,1409.5 1478.5,1387.1 1451.6,1364.8 1424.8,1342.3 1398.2,1319.9 1371.9,1297.4 1345.8,1275.0 1320.1,1252.5 1294.6,1230.1 1269.5,1207.6 1244.9,1185.2 1220.6,1162.8 1196.9,1140.4 1173.7,1118.1 1151.0,1095.8 1128.9,1073.5 1107.5,1051.2 1086.8,1028.9 1066.8,1006.6  A 656.600,656.600 0.00 0,1 1154.0,942.0 L 1154.0,942.0 1169.4,966.1 1185.7,990.3 1202.9,1014.4 1220.9,1038.6 1239.7,1062.8 1259.3,1087.0 1279.6,1111.1 1300.6,1135.1 1322.3,1159.1 1344.6,1183.0 1367.4,1206.7 1390.9,1230.3 1414.8,1253.8 1439.2,1277.0 1464.1,1300.0 1489.4,1322.9 1515.1,1345.4 1541.1,1367.7 1567.5,1389.7 1594.1,1411.3 1621.1,1432.6 1648.2,1453.5 1675.5,1474.0 1703.1,1494.1 1730.7,1513.7 1758.5,1532.8 1786.3,1551.5 1814.2,1569.5 1842.2,1587.1 1870.1,1604.0 1898.0,1620.3 1925.9,1635.9 1953.6,1650.8 1981.3,1665.0 2008.8,1678.5 2036.2,1691.2 2063.4,1703.0 2090.4,1714.0 2117.1,1724.2  Z" style="stroke-width: 0.0;  fill: rgb(0,0,0); opacity: 0.167;" />
<path d="M 1434.195,2153.294 A 656.600,656.600 0.00 0,1 1335.1,2135.5 L 1335.1,2135.5 1342.2,2106.8 1348.8,2077.5 1355.1,2047.5 1360.9,2017.0 1366.3,1985.9 1371.3,1954.3 1376.0,1922.3 1380.4,1889.8 1384.5,1856.9 1388.3,1823.7 1391.8,1790.1 1395.1,1756.2 1398.1,1722.1 1400.9,1687.8 1403.4,1653.2 1405.8,1618.5 1407.9,1583.7 1409.8,1548.7 1411.5,1513.7 1413.0,1478.7 1414.3,1443.7 1415.4,1408.8 1416.3,1373.9 1416.9,1339.1 1417.3,1304.5 1417.5,1270.0 1417.4,1235.7 1417.0,1201.7 1416.4,1168.0 1415.4,1134.5 1414.2,1101.4 1412.6,1068.7 1410.6,1036.4 1408.3,1004.5 1405.6,973.0 1402.4,942.1 1398.8,911.7 1394.7,881.9 1390.0,852.7  A 656.600,656.600 0.00 0,1 1463.2,844.4 L 1463.2,844.4 1464.7,875.1 1465.7,906.2 1466.4,937.7 1466.8,969.6 1466.9,1001.9 1466.7,1034.6 1466.4,1067.7 1465.8,1101.0 1465.2,1134.6 1464.4,1168.5 1463.5,1202.7 1462.6,1237.0 1461.7,1271.6 1460.7,1306.3 1459.8,1341.1 1458.9,1376.1 1458.0,1411.2 1457.1,1446.3 1456.3,1481.4 1455.5,1516.6 1454.8,1551.8 1454.1,1586.9 1453.4,1622.0 1452.8,1656.9 1452.2,1691.8 1451.6,1726.5 1451.0,1761.1 1450.4,1795.4 1449.7,1829.6 1449.0,1863.5 1448.2,1897.1 1447.2,1930.4 1446.1,1963.4 1444.8,1996.1 1443.3,2028.4 1441.6,2060.3 1439.5,2091.7 1437.0,2122.8 1434.2,2153.3  Z" style="stroke-width: 0.0;  fill: rgb(0,0,0); opacity: 0.167;" />
<path d="M 1434.195,2153.294 A 656.600,656.600 0.00 0,1 1331.3,2134.6 L 1331.3,2134.6 1339.0,2107.3 1347.5,2079.8 1356.9,2052.0 1367.2,2024.0 1378.3,1995.7 1390.1,1967.3 1402.8,1938.8 1416.1,1910.1 1430.2,1881.4 1444.9,1852.7 1460.3,1823.9 1476.3,1795.2 1492.9,1766.5 1510.1,1737.9 1527.9,1709.4 1546.1,1681.0 1564.9,1652.9 1584.1,1625.0 1603.8,1597.3 1623.9,1569.9 1644.4,1542.8 1665.3,1516.1 1686.5,1489.8 1708.1,1463.9 1730.0,1438.4 1752.1,1413.5 1774.5,1389.0 1797.1,1365.1 1820.0,1341.8 1843.0,1319.2 1866.2,1297.1 1889.5,1275.8 1913.0,1255.2 1936.5,1235.4 1960.1,1216.4 1983.8,1198.2 2007.5,1180.9 2031.2,1164.5 2054.9,1149.0  A 656.600,656.600 0.00 0,1 2108.1,1252.3 L 2108.1,1252.3 2083.3,1262.9 2058.3,1274.6 2033.4,1287.2 2008.5,1300.8 1983.6,1315.3 1958.8,1330.8 1934.2,1347.2 1909.8,1364.5 1885.6,1382.6 1861.8,1401.5 1838.2,1421.3 1815.0,1441.8 1792.2,1463.0 1769.8,1484.9 1747.9,1507.6 1726.5,1530.8 1705.7,1554.7 1685.4,1579.1 1665.7,1604.1 1646.7,1629.6 1628.3,1655.5 1610.6,1681.9 1593.6,1708.6 1577.3,1735.7 1561.8,1763.1 1547.0,1790.7 1533.1,1818.6 1520.0,1846.7 1507.7,1874.8 1496.3,1903.1 1485.8,1931.4 1476.1,1959.7 1467.3,1987.9 1459.5,2016.1 1452.5,2044.0 1446.5,2071.8 1441.5,2099.3 1437.4,2126.5 1434.2,2153.3  Z" style="stroke-width: 0.0;  fill: rgb(0,0,0); opacity: 0.167;" />
<path d="M 1230.931,901.063 A 656.600,656.600 0.00 0,1 1303.4,873.5 L 1303.4,873.5 1310.1,896.1 1316.2,918.8 1321.5,941.7 1326.0,964.6 1329.7,987.3 1332.5,1009.7 1334.4,1031.9 1335.3,1053.6 1335.2,1074.8 1334.0,1095.3 1331.8,1115.2 1328.5,1134.4 1324.0,1152.7 1318.5,1170.2 1311.9,1186.7 1304.1,1202.2 1295.2,1216.7 1285.2,1230.1 1274.1,1242.4 1262.0,1253.6 1248.8,1263.6 1234.6,1272.5 1219.4,1280.2 1203.3,1286.6 1186.3,1291.9 1168.4,1296.0 1149.8,1298.9 1130.4,1300.6 1110.4,1301.2 1089.8,1300.6 1068.7,1299.0 1047.1,1296.3 1025.2,1292.6 1003.1,1288.0 980.7,1282.4 958.4,1276.0 936.0,1268.8 913.8,1260.9 891.9,1252.3  A 656.600,656.600 0.00 0,1 925.3,1182.4 L 925.3,1182.4 945.7,1193.3 966.3,1203.8 986.9,1213.7 1007.5,1222.8 1028.0,1231.2 1048.2,1238.8 1068.0,1245.5 1087.5,1251.2 1106.4,1255.9 1124.7,1259.6 1142.3,1262.1 1159.2,1263.5 1175.2,1263.7 1190.4,1262.7 1204.7,1260.5 1218.0,1257.1 1230.3,1252.4 1241.6,1246.5 1251.7,1239.4 1260.8,1231.1 1268.7,1221.5 1275.5,1210.8 1281.2,1198.9 1285.7,1186.0 1289.1,1171.9 1291.3,1156.8 1292.4,1140.8 1292.4,1123.9 1291.4,1106.1 1289.3,1087.6 1286.1,1068.3 1282.0,1048.5 1277.0,1028.1 1271.1,1007.4 1264.4,986.3 1257.0,965.0 1248.9,943.6 1240.2,922.3 1230.9,901.1  Z" style="stroke-width: 0.0;  fill: rgb(0,0,0); opacity: 0.167;" />
<path d="M 1434.195,2153.294 A 656.600,656.600 0.00 0,1 1331.3,2134.6 L 1331.3,2134.6 1337.9,2108.0 1343.8,2080.7 1348.9,2052.8 1353.3,2024.3 1356.9,1995.3 1359.8,1965.7 1362.0,1935.7 1363.3,1905.3 1364.0,1874.6 1363.8,1843.5 1362.9,1812.2 1361.3,1780.6 1358.9,1748.9 1355.7,1717.0 1351.8,1685.1 1347.2,1653.1 1341.8,1621.1 1335.7,1589.2 1328.9,1557.4 1321.3,1525.7 1313.1,1494.2 1304.2,1463.0 1294.6,1432.0 1284.4,1401.4 1273.5,1371.1 1262.0,1341.2 1249.9,1311.8 1237.2,1282.9 1223.9,1254.5 1210.0,1226.6 1195.6,1199.4 1180.7,1172.9 1165.3,1147.1 1149.5,1122.0 1133.1,1097.7 1116.4,1074.2 1099.3,1051.6 1081.8,1029.9 1063.9,1009.1  A 656.600,656.600 0.00 0,1 1157.3,940.0 L 1157.3,940.0 1171.9,964.6 1186.2,990.1 1200.1,1016.4 1213.7,1043.4 1226.9,1071.1 1239.7,1099.5 1252.3,1128.6 1264.4,1158.2 1276.2,1188.3 1287.6,1219.0 1298.7,1250.1 1309.4,1281.7 1319.8,1313.6 1329.8,1345.9 1339.4,1378.5 1348.6,1411.3 1357.5,1444.4 1366.0,1477.7 1374.0,1511.1 1381.7,1544.7 1388.9,1578.3 1395.7,1611.9 1402.1,1645.6 1408.0,1679.2 1413.5,1712.7 1418.5,1746.1 1423.0,1779.4 1427.1,1812.5 1430.6,1845.3 1433.6,1877.9 1436.0,1910.2 1437.9,1942.2 1439.3,1973.7 1440.0,2004.9 1440.1,2035.6 1439.6,2065.8 1438.5,2095.6 1436.7,2124.7 1434.2,2153.3  Z" style="stroke-width: 0.0;  fill: rgb(0,0,0); opacity: 0.167;" />
<path d="M 1390.015,852.677 A 656.600,656.600 0.00 0,1 1463.2,844.4 L 1463.2,844.4 1465.2,874.0 1467.8,904.0 1471.0,934.4 1474.8,965.3 1479.1,996.5 1483.9,1028.2 1489.2,1060.1 1494.9,1092.4 1501.0,1125.0 1507.6,1157.8 1514.4,1190.8 1521.6,1224.1 1529.1,1257.5 1536.9,1291.1 1545.0,1324.8 1553.3,1358.6 1561.9,1392.4 1570.6,1426.3 1579.6,1460.2 1588.8,1494.0 1598.2,1527.7 1607.8,1561.4 1617.6,1594.9 1627.6,1628.2 1637.7,1661.4 1648.0,1694.3 1658.5,1726.9 1669.1,1759.2 1679.9,1791.2 1691.0,1822.8 1702.2,1853.9 1713.6,1884.7 1725.3,1914.9 1737.1,1944.6 1749.3,1973.7 1761.6,2002.3 1774.3,2030.1 1787.2,2057.3 1800.5,2083.8  A 656.600,656.600 0.00 0,1 1729.6,2115.1 L 1729.6,2115.1 1719.2,2086.4 1709.0,2057.2 1699.1,2027.4 1689.4,1997.0 1679.8,1966.2 1670.4,1935.0 1661.2,1903.4 1652.0,1871.4 1642.9,1839.0 1633.8,1806.4 1624.8,1773.5 1615.7,1740.3 1606.7,1707.0 1597.7,1673.4 1588.7,1639.8 1579.6,1606.0 1570.5,1572.1 1561.4,1538.1 1552.3,1504.2 1543.2,1470.2 1534.0,1436.2 1524.9,1402.3 1515.7,1368.4 1506.6,1334.6 1497.5,1300.9 1488.5,1267.4 1479.6,1234.0 1470.7,1200.8 1462.0,1167.8 1453.5,1135.1 1445.2,1102.5 1437.1,1070.2 1429.2,1038.2 1421.7,1006.5 1414.5,975.0 1407.6,943.9 1401.3,913.2 1395.4,882.7 1390.0,852.7  Z" style="stroke-width: 0.0;  fill: rgb(0,0,0); opacity: 0.167;" />
<path d="M 887.615,1263.128 A 656.600,656.600 0.00 0,1 931.0,1172.3 L 931.0,1172.3 956.0,1187.1 981.1,1202.7 1006.3,1219.2 1031.6,1236.5 1056.9,1254.5 1082.3,1273.2 1107.7,1292.6 1133.2,1312.5 1158.6,1333.1 1184.1,1354.2 1209.5,1375.9 1234.8,1398.0 1260.1,1420.6 1285.3,1443.6 1310.4,1467.1 1335.3,1490.8 1360.1,1514.9 1384.7,1539.3 1409.2,1564.0 1433.4,1588.9 1457.3,1614.0 1481.0,1639.4 1504.3,1664.9 1527.3,1690.5 1550.0,1716.3 1572.3,1742.1 1594.1,1768.1 1615.5,1794.1 1636.4,1820.1 1656.7,1846.2 1676.6,1872.2 1695.8,1898.2 1714.4,1924.2 1732.3,1950.1 1749.6,1976.0 1766.1,2001.7 1781.8,2027.4 1796.7,2053.0 1810.8,2078.4  A 656.600,656.600 0.00 0,1 1718.7,2119.1 L 1718.7,2119.1 1709.0,2093.0 1698.4,2066.7 1686.8,2040.2 1674.3,2013.6 1661.0,1987.0 1646.8,1960.2 1631.7,1933.5 1615.9,1906.7 1599.3,1880.1 1581.9,1853.5 1563.9,1827.0 1545.1,1800.7 1525.7,1774.5 1505.6,1748.6 1485.0,1722.9 1463.7,1697.5 1441.9,1672.5 1419.6,1647.7 1396.9,1623.4 1373.6,1599.4 1350.0,1576.0 1325.9,1552.9 1301.5,1530.4 1276.7,1508.5 1251.7,1487.0 1226.4,1466.2 1200.8,1446.0 1175.0,1426.5 1149.1,1407.7 1123.0,1389.5 1096.9,1372.1 1070.6,1355.5 1044.3,1339.7 1018.0,1324.7 991.7,1310.6 965.5,1297.3 939.4,1285.0 913.4,1273.6 887.6,1263.1  Z" style="stroke-width: 0.0;  fill: rgb(0,0,0); opacity: 0.167;" />
<path d="M 884.860,1270.377 A 656.600,656.600 0.00 0,1 935.0,1165.6 L 935.0,1165.6 955.2,1177.2 975.8,1188.3 996.7,1198.7 1017.6,1208.3 1038.5,1217.2 1059.3,1225.1 1080.0,1232.1 1100.4,1238.0 1120.4,1242.8 1140.1,1246.5 1159.2,1249.1 1177.8,1250.4 1195.8,1250.4 1213.0,1249.2 1229.6,1246.7 1245.4,1242.9 1260.3,1237.8 1274.4,1231.4 1287.6,1223.6 1299.9,1214.6 1311.2,1204.3 1321.6,1192.8 1330.9,1180.1 1339.3,1166.2 1346.7,1151.1 1353.0,1135.0 1358.3,1117.8 1362.6,1099.7 1366.0,1080.7 1368.3,1060.8 1369.7,1040.3 1370.1,1019.0 1369.7,997.2 1368.4,975.0 1366.2,952.4 1363.2,929.5 1359.5,906.6 1355.1,883.6 1350.1,860.7  A 656.600,656.600 0.00 0,1 1353.9,859.9 L 1353.9,859.9 1358.8,883.1 1363.0,906.6 1366.4,930.1 1369.0,953.7 1370.7,977.1 1371.5,1000.3 1371.3,1023.1 1370.2,1045.6 1368.0,1067.5 1364.8,1088.9 1360.5,1109.6 1355.2,1129.5 1348.7,1148.7 1341.2,1166.9 1332.7,1184.3 1323.0,1200.7 1312.3,1216.0 1300.5,1230.3 1287.7,1243.5 1273.9,1255.6 1259.1,1266.6 1243.4,1276.3 1226.7,1284.9 1209.2,1292.3 1190.9,1298.5 1171.8,1303.5 1152.0,1307.3 1131.5,1310.0 1110.4,1311.5 1088.8,1311.8 1066.8,1311.1 1044.4,1309.3 1021.7,1306.4 998.8,1302.6 975.8,1297.8 952.8,1292.1 929.9,1285.6 907.2,1278.3 884.9,1270.4  Z" style="stroke-width: 0.0;  fill: rgb(0,0,0); opacity: 0.167;" />
<path d="M 2115.815,1727.806 A 656.600,656.600 0.00 0,1 2073.7,1819.3 L 2073.7,1819.3 2049.9,1806.5 2025.2,1794.4 1999.6,1782.8 1973.4,1771.8 1946.4,1761.4 1918.8,1751.7 1890.5,1742.7 1861.7,1734.4 1832.4,1726.8 1802.6,1719.9 1772.4,1713.8 1741.8,1708.4 1710.9,1703.7 1679.7,1699.9 1648.3,1696.8 1616.6,1694.5 1584.9,1692.9 1553.0,1692.2 1521.1,1692.3 1489.2,1693.1 1457.3,1694.7 1425.5,1697.2 1393.9,1700.4 1362.4,1704.4 1331.2,1709.1 1300.2,1714.6 1269.6,1720.9 1239.3,1727.9 1209.5,1735.7 1180.1,1744.1 1151.2,1753.3 1122.9,1763.1 1095.2,1773.6 1068.1,1784.8 1041.7,1796.5 1016.1,1808.9 991.2,1821.8 967.2,1835.3 944.0,1849.3  A 656.600,656.600 0.00 0,1 897.2,1760.2 L 897.2,1760.2 923.2,1749.4 950.1,1739.1 977.7,1729.3 1006.0,1720.1 1035.0,1711.4 1064.6,1703.2 1094.8,1695.5 1125.5,1688.4 1156.7,1681.7 1188.4,1675.6 1220.5,1670.0 1252.9,1665.0 1285.7,1660.4 1318.8,1656.4 1352.1,1652.9 1385.6,1649.9 1419.2,1647.4 1453.0,1645.5 1486.9,1644.1 1520.8,1643.2 1554.7,1642.8 1588.5,1642.9 1622.2,1643.6 1655.9,1644.8 1689.3,1646.6 1722.5,1648.8 1755.5,1651.6 1788.2,1655.0 1820.5,1658.8 1852.4,1663.2 1883.9,1668.2 1915.0,1673.7 1945.5,1679.8 1975.5,1686.4 2004.9,1693.5 2033.7,1701.3 2061.8,1709.5 2089.2,1718.4 2115.8,1727.8  Z" style="stroke-width: 0.0;  fill: rgb(0,0,0); opacity: 0.167;" />
<path d="M 1800.506,2083.798 A 656.600,656.600 0.00 0,1 1729.6,2115.1 L 1729.6,2115.1 1719.2,2086.4 1709.0,2057.2 1699.1,2027.4 1689.4,1997.0 1679.8,1966.2 1670.4,1935.0 1661.2,1903.4 1652.0,1871.4 1642.9,1839.0 1633.8,1806.4 1624.8,1773.5 1615.7,1740.3 1606.7,1707.0 1597.7,1673.4 1588.7,1639.8 1579.6,1606.0 1570.5,1572.1 1561.4,1538.1 1552.3,1504.2 1543.2,1470.2 1534.0,1436.2 1524.9,1402.3 1515.7,1368.4 1506.6,1334.6 1497.5,1300.9 1488.5,1267.4 1479.6,1234.0 1470.7,1200.8 1462.0,1167.8 1453.5,1135.1 1445.2,1102.5 1437.1,1070.2 1429.2,1038.2 1421.7,1006.5 1414.5,975.0 1407.6,943.9 1401.3,913.2 1395.4,882.7 1390.0,852.7  A 656.600,656.600 0.00 0,1 1463.2,844.4 L 1463.2,844.4 1465.2,874.0 1467.8,904.0 1471.0,934.4 1474.8,965.3 1479.1,996.5 1483.9,1028.2 1489.2,1060.1 1494.9,1092.4 1501.0,1125.0 1507.6,1157.8 1514.4,1190.8 1521.6,1224.1 1529.1,1257.5 1536.9,1291.1 1545.0,1324.8 1553.3,1358.6 1561.9,1392.4 1570.6,1426.3 1579.6,1460.2 1588.8,1494.0 1598.2,1527.7 1607.8,1561.4 1617.6,1594.9 1627.6,1628.2 1637.7,1661.4 1648.0,1694.3 1658.5,1726.9 1669.1,1759.2 1679.9,1791.2 1691.0,1822.8 1702.2,1853.9 1713.6,1884.7 1725.3,1914.9 1737.1,1944.6 1749.3,1973.7 1761.6,2002.3 1774.3,2030.1 1787.2,2057.3 1800.5,2083.8  Z" style="stroke-width: 0.0;  fill: rgb(0,0,0); opacity: 0.167;" />
<path d="M 946.113,1852.609 A 656.600,656.600 0.00 0,1 895.6,1756.6 L 895.6,1756.6 917.8,1747.6 940.4,1739.3 963.2,1731.8 986.3,1725.2 1009.4,1719.4 1032.6,1714.6 1055.6,1710.8 1078.5,1708.1 1101.1,1706.5 1123.4,1706.0 1145.4,1706.6 1166.8,1708.5 1187.8,1711.6 1208.1,1715.9 1227.8,1721.4 1246.8,1728.2 1265.1,1736.2 1282.6,1745.5 1299.3,1755.9 1315.1,1767.6 1330.1,1780.4 1344.1,1794.4 1357.1,1809.5 1369.3,1825.6 1380.4,1842.8 1390.5,1861.0 1399.7,1880.0 1407.9,1900.0 1415.0,1920.7 1421.2,1942.2 1426.3,1964.3 1430.5,1986.9 1433.7,2010.1 1436.0,2033.6 1437.4,2057.4 1437.8,2081.4 1437.4,2105.4 1436.2,2129.4 1434.2,2153.3  A 656.600,656.600 0.00 0,1 1331.3,2134.6 L 1331.3,2134.6 1337.0,2112.0 1342.1,2089.3 1346.5,2066.6 1350.3,2044.1 1353.2,2021.8 1355.4,1999.9 1356.7,1978.5 1357.1,1957.6 1356.6,1937.5 1355.1,1918.1 1352.7,1899.5 1349.3,1881.9 1344.8,1865.2 1339.4,1849.6 1333.0,1835.1 1325.5,1821.8 1317.0,1809.6 1307.6,1798.7 1297.2,1789.1 1285.7,1780.7 1273.4,1773.7 1260.2,1768.0 1246.0,1763.6 1231.1,1760.5 1215.3,1758.8 1198.8,1758.3 1181.6,1759.1 1163.7,1761.2 1145.3,1764.5 1126.4,1769.0 1107.0,1774.6 1087.2,1781.3 1067.2,1789.0 1047.0,1797.6 1026.6,1807.2 1006.3,1817.6 986.0,1828.6 965.9,1840.4 946.1,1852.6  Z" style="stroke-width: 0.0;  fill: rgb(0,0,0); opacity: 0.167;" />
<path d="M 1803.948,2082.013 A 656.600,656.600 0.00 0,1 1726.0,2116.5 L 1726.0,2116.5 1715.4,2088.5 1704.2,2060.3 1692.2,2031.9 1679.7,2003.2 1666.6,1974.2 1652.9,1945.1 1638.8,1915.7 1624.2,1886.1 1609.2,1856.4 1593.8,1826.5 1578.1,1796.5 1562.1,1766.3 1545.7,1736.1 1529.1,1705.7 1512.3,1675.3 1495.2,1644.8 1478.0,1614.4 1460.6,1583.9 1443.1,1553.5 1425.4,1523.1 1407.6,1492.8 1389.7,1462.6 1371.7,1432.6 1353.7,1402.7 1335.5,1373.1 1317.3,1343.6 1299.1,1314.5 1280.8,1285.6 1262.5,1257.1 1244.1,1229.0 1225.6,1201.2 1207.1,1174.0 1188.6,1147.2 1170.0,1120.9 1151.3,1095.2 1132.5,1070.1 1113.7,1045.7 1094.7,1022.0 1075.6,999.0  A 656.600,656.600 0.00 0,1 1144.1,948.2 L 1144.1,948.2 1160.7,974.3 1177.2,1001.0 1193.6,1028.2 1209.9,1055.8 1226.2,1083.9 1242.5,1112.4 1258.9,1141.2 1275.3,1170.4 1291.7,1199.8 1308.3,1229.5 1324.9,1259.3 1341.7,1289.3 1358.5,1319.5 1375.5,1349.7 1392.6,1380.1 1409.8,1410.5 1427.1,1440.9 1444.6,1471.3 1462.2,1501.7 1479.8,1532.1 1497.6,1562.3 1515.4,1592.5 1533.3,1622.6 1551.2,1652.6 1569.1,1682.5 1587.1,1712.2 1604.9,1741.7 1622.8,1771.1 1640.5,1800.3 1658.1,1829.4 1675.6,1858.2 1692.8,1886.9 1709.8,1915.3 1726.5,1943.6 1742.9,1971.7 1758.8,1999.5 1774.4,2027.2 1789.4,2054.7 1803.9,2082.0  Z" style="stroke-width: 0.0;  fill: rgb(0,0,0); opacity: 0.167;" />
<path d="M 890.455,1255.912 A 656.600,656.600 0.00 0,1 927.2,1179.0 L 927.2,1179.0 949.6,1192.1 971.9,1206.2 994.0,1221.3 1015.7,1237.4 1037.2,1254.4 1058.2,1272.3 1078.7,1291.1 1098.8,1310.8 1118.3,1331.3 1137.1,1352.5 1155.3,1374.5 1172.8,1397.3 1189.5,1420.7 1205.4,1444.7 1220.5,1469.4 1234.8,1494.6 1248.2,1520.4 1260.6,1546.6 1272.1,1573.3 1282.7,1600.4 1292.3,1627.8 1300.9,1655.6 1308.5,1683.6 1315.1,1711.8 1320.7,1740.2 1325.3,1768.7 1328.8,1797.2 1331.4,1825.8 1332.9,1854.3 1333.4,1882.7 1333.0,1910.9 1331.5,1939.0 1329.1,1966.7 1325.8,1994.2 1321.6,2021.2 1316.4,2047.8 1310.4,2073.8 1303.6,2099.3 1296.0,2124.1  A 656.600,656.600 0.00 0,1 1216.9,2092.4 L 1216.9,2092.4 1227.3,2069.6 1237.0,2046.0 1245.8,2022.0 1253.9,1997.4 1261.0,1972.4 1267.2,1947.0 1272.5,1921.3 1276.7,1895.4 1279.8,1869.3 1281.9,1843.1 1282.8,1816.9 1282.6,1790.6 1281.3,1764.5 1278.8,1738.4 1275.2,1712.6 1270.4,1686.9 1264.4,1661.6 1257.2,1636.6 1248.9,1611.9 1239.5,1587.7 1228.9,1563.9 1217.2,1540.7 1204.4,1518.0 1190.6,1495.9 1175.8,1474.4 1160.0,1453.5 1143.2,1433.4 1125.6,1414.0 1107.1,1395.3 1087.9,1377.4 1067.9,1360.4 1047.3,1344.2 1026.0,1328.8 1004.3,1314.3 982.1,1300.8 959.5,1288.1 936.6,1276.4 913.6,1265.7 890.5,1255.9  Z" style="stroke-width: 0.0;  fill: rgb(0,0,0); opacity: 0.167;" />
<path d="M 890.455,1255.912 A 656.600,656.600 0.00 0,1 927.2,1179.0 L 927.2,1179.0 951.1,1191.9 975.8,1204.2 1001.4,1215.9 1027.7,1227.0 1054.7,1237.5 1082.3,1247.4 1110.6,1256.5 1139.5,1265.0 1168.8,1272.9 1198.7,1280.0 1229.0,1286.3 1259.7,1292.0 1290.7,1296.9 1322.0,1301.0 1353.5,1304.4 1385.2,1307.0 1417.1,1308.9 1449.1,1310.0 1481.2,1310.3 1513.2,1309.8 1545.3,1308.5 1577.2,1306.5 1609.0,1303.7 1640.7,1300.2 1672.1,1295.9 1703.3,1290.8 1734.1,1285.0 1764.6,1278.4 1794.7,1271.2 1824.3,1263.2 1853.4,1254.5 1882.0,1245.2 1910.0,1235.1 1937.4,1224.5 1964.1,1213.2 1990.0,1201.3 2015.2,1188.8 2039.6,1175.8 2063.1,1162.2  A 656.600,656.600 0.00 0,1 2102.1,1238.0 L 2102.1,1238.0 2076.1,1248.9 2049.4,1259.2 2021.9,1268.9 1993.7,1278.2 1964.8,1286.8 1935.4,1295.0 1905.3,1302.6 1874.7,1309.6 1843.6,1316.2 1812.0,1322.1 1780.1,1327.6 1747.7,1332.4 1715.1,1336.8 1682.2,1340.6 1649.0,1343.8 1615.6,1346.5 1582.1,1348.6 1548.4,1350.2 1514.7,1351.3 1480.9,1351.8 1447.2,1351.7 1413.5,1351.1 1379.9,1350.0 1346.5,1348.3 1313.2,1346.0 1280.2,1343.2 1247.4,1339.8 1215.0,1335.9 1182.8,1331.4 1151.1,1326.4 1119.9,1320.8 1089.1,1314.6 1058.8,1307.9 1029.1,1300.7 1000.0,1292.8 971.5,1284.4 943.7,1275.5 916.7,1266.0 890.5,1255.9  Z" style="stroke-width: 0.0;  fill: rgb(0,0,0); opacity: 0.167;" />
<path d="M 2054.925,1149.028 A 656.600,656.600 0.00 0,1 2108.1,1252.3 L 2108.1,1252.3 2083.3,1262.9 2058.3,1274.6 2033.4,1287.2 2008.5,1300.8 1983.6,1315.3 1958.8,1330.8 1934.2,1347.2 1909.8,1364.5 1885.6,1382.6 1861.8,1401.5 1838.2,1421.3 1815.0,1441.8 1792.2,1463.0 1769.8,1484.9 1747.9,1507.6 1726.5,1530.8 1705.7,1554.7 1685.4,1579.1 1665.7,1604.1 1646.7,1629.6 1628.3,1655.5 1610.6,1681.9 1593.6,1708.6 1577.3,1735.7 1561.8,1763.1 1547.0,1790.7 1533.1,1818.6 1520.0,1846.7 1507.7,1874.8 1496.3,1903.1 1485.8,1931.4 1476.1,1959.7 1467.3,1987.9 1459.5,2016.1 1452.5,2044.0 1446.5,2071.8 1441.5,2099.3 1437.4,2126.5 1434.2,2153.3  A 656.600,656.600 0.00 0,1 1331.3,2134.6 L 1331.3,2134.6 1339.0,2107.3 1347.5,2079.8 1356.9,2052.0 1367.2,2024.0 1378.3,1995.7 1390.1,1967.3 1402.8,1938.8 1416.1,1910.1 1430.2,1881.4 1444.9,1852.7 1460.3,1823.9 1476.3,1795.2 1492.9,1766.5 1510.1,1737.9 1527.9,1709.4 1546.1,1681.0 1564.9,1652.9 1584.1,1625.0 1603.8,1597.3 1623.9,1569.9 1644.4,1542.8 1665.3,1516.1 1686.5,1489.8 1708.1,1463.9 1730.0,1438.4 1752.1,1413.5 1774.5,1389.0 1797.1,1365.1 1820.0,1341.8 1843.0,1319.2 1866.2,1297.1 1889.5,1275.8 1913.0,1255.2 1936.5,1235.4 1960.1,1216.4 1983.8,1198.2 2007.5,1180.9 2031.2,1164.5 2054.9,1149.0  Z" style="stroke-width: 0.0;  fill: rgb(0,0,0); opacity: 0.167;" />
<path d="M 886.227,1266.748 A 656.600,656.600 0.00 0,1 933.0,1168.9 L 933.0,1168.9 952.7,1180.3 972.5,1191.3 992.1,1202.0 1011.5,1212.1 1030.5,1221.7 1049.0,1230.6 1067.0,1238.8 1084.3,1246.2 1100.8,1252.8 1116.5,1258.4 1131.2,1263.2 1144.9,1267.0 1157.6,1269.7 1169.1,1271.4 1179.5,1272.1 1188.7,1271.6 1196.5,1270.1 1203.2,1267.5 1208.5,1263.7 1212.5,1258.9 1215.1,1253.0 1216.4,1246.0 1216.4,1237.9 1215.1,1228.9 1212.5,1218.8 1208.6,1207.8 1203.5,1195.9 1197.2,1183.2 1189.7,1169.6 1181.2,1155.3 1171.5,1140.3 1161.0,1124.8 1149.5,1108.7 1137.2,1092.2 1124.2,1075.4 1110.5,1058.3 1096.4,1041.0 1081.7,1023.8 1066.8,1006.6  A 656.600,656.600 0.00 0,1 1154.0,942.0 L 1154.0,942.0 1165.9,961.8 1177.4,981.8 1188.3,1002.0 1198.5,1022.1 1207.9,1042.2 1216.4,1062.0 1224.1,1081.6 1230.8,1100.8 1236.4,1119.5 1240.9,1137.6 1244.3,1155.2 1246.5,1172.1 1247.5,1188.2 1247.2,1203.6 1245.7,1218.1 1242.9,1231.6 1238.8,1244.3 1233.4,1256.0 1226.7,1266.6 1218.8,1276.3 1209.6,1284.8 1199.2,1292.3 1187.5,1298.8 1174.7,1304.1 1160.8,1308.4 1145.8,1311.6 1129.8,1313.7 1112.8,1314.7 1094.9,1314.8 1076.2,1313.8 1056.7,1311.8 1036.6,1309.0 1016.0,1305.2 994.8,1300.6 973.4,1295.1 951.6,1289.0 929.8,1282.2 907.9,1274.7 886.2,1266.7  Z" style="stroke-width: 0.0;  fill: rgb(0,0,0); opacity: 0.167;" />
<path d="M 1588.906,849.447 A 656.600,656.600 0.00 0,1 1664.9,864.5 L 1664.9,864.5 1659.0,886.5 1652.8,908.4 1646.3,929.9 1639.5,950.8 1632.4,971.2 1625.1,990.7 1617.6,1009.3 1610.0,1026.8 1602.2,1043.3 1594.2,1058.5 1586.2,1072.4 1578.0,1085.0 1569.8,1096.0 1561.5,1105.6 1553.2,1113.5 1544.8,1119.9 1536.5,1124.6 1528.2,1127.6 1520.0,1129.0 1511.8,1128.6 1503.7,1126.6 1495.7,1122.9 1487.8,1117.5 1480.1,1110.4 1472.5,1101.7 1465.0,1091.5 1457.8,1079.8 1450.7,1066.6 1443.9,1052.1 1437.3,1036.2 1430.9,1019.2 1424.8,1001.0 1418.9,981.8 1413.3,961.8 1408.0,940.9 1403.0,919.5 1398.4,897.5 1394.0,875.2 1390.0,852.7  A 656.600,656.600 0.00 0,1 1463.2,844.4 L 1463.2,844.4 1464.5,867.1 1466.1,889.6 1467.7,911.7 1469.6,933.3 1471.5,954.4 1473.7,974.6 1476.0,993.9 1478.4,1012.2 1480.9,1029.4 1483.7,1045.4 1486.5,1060.0 1489.4,1073.3 1492.5,1085.0 1495.7,1095.2 1499.0,1103.9 1502.4,1110.8 1505.9,1116.1 1509.5,1119.8 1513.2,1121.6 1517.0,1121.8 1520.8,1120.2 1524.6,1116.9 1528.6,1111.9 1532.5,1105.2 1536.5,1096.9 1540.5,1086.9 1544.5,1075.5 1548.5,1062.5 1552.5,1048.1 1556.5,1032.4 1560.4,1015.5 1564.3,997.5 1568.1,978.4 1571.8,958.4 1575.5,937.6 1579.0,916.1 1582.5,894.2 1585.8,871.9 1588.9,849.4  Z" style="stroke-width: 0.0;  fill: rgb(0,0,0); opacity: 0.167;" />
<path d="M 2061.056,1158.913 A 656.600,656.600 0.00 0,1 2103.6,1241.6 L 2103.6,1241.6 2077.6,1252.3 2050.7,1262.5 2023.1,1272.1 1994.8,1281.2 1965.9,1289.8 1936.3,1297.8 1906.2,1305.3 1875.5,1312.2 1844.3,1318.6 1812.7,1324.5 1780.7,1329.8 1748.3,1334.6 1715.5,1338.9 1682.5,1342.6 1649.3,1345.8 1615.8,1348.5 1582.2,1350.6 1548.5,1352.2 1514.7,1353.2 1480.9,1353.7 1447.1,1353.7 1413.4,1353.1 1379.7,1352.0 1346.2,1350.3 1312.9,1348.1 1279.8,1345.3 1247.0,1342.0 1214.4,1338.2 1182.3,1333.8 1150.5,1328.9 1119.1,1323.4 1088.3,1317.3 1057.9,1310.7 1028.1,1303.6 998.9,1295.9 970.4,1287.6 942.5,1278.8 915.4,1269.5 889.0,1259.5  A 656.600,656.600 0.00 0,1 929.1,1175.6 L 929.1,1175.6 952.9,1188.6 977.5,1201.0 1002.9,1212.9 1029.1,1224.1 1056.0,1234.7 1083.6,1244.7 1111.8,1254.0 1140.5,1262.6 1169.8,1270.5 1199.6,1277.7 1229.7,1284.1 1260.3,1289.9 1291.2,1294.8 1322.4,1299.0 1353.9,1302.5 1385.5,1305.1 1417.3,1307.0 1449.2,1308.1 1481.2,1308.4 1513.2,1308.0 1545.1,1306.7 1576.9,1304.7 1608.7,1301.8 1640.2,1298.2 1671.6,1293.9 1702.6,1288.7 1733.4,1282.9 1763.8,1276.2 1793.7,1268.9 1823.3,1260.8 1852.3,1252.1 1880.8,1242.6 1908.7,1232.5 1936.0,1221.7 1962.5,1210.3 1988.4,1198.3 2013.4,1185.7 2037.7,1172.6 2061.1,1158.9  Z" style="stroke-width: 0.0;  fill: rgb(0,0,0); opacity: 0.167;" />
<path d="M 2118.462,1720.517 A 656.600,656.600 0.00 0,1 2069.9,1826.1 L 2069.9,1826.1 2046.0,1811.9 2022.1,1796.8 1998.3,1780.7 1974.4,1763.6 1950.7,1745.7 1927.0,1727.0 1903.5,1707.4 1880.2,1687.0 1857.1,1665.9 1834.2,1644.0 1811.6,1621.4 1789.3,1598.2 1767.2,1574.4 1745.6,1549.9 1724.3,1525.0 1703.4,1499.4 1682.9,1473.4 1662.9,1447.0 1643.4,1420.1 1624.3,1392.9 1605.8,1365.3 1587.9,1337.4 1570.5,1309.2 1553.8,1280.8 1537.6,1252.2 1522.1,1223.5 1507.3,1194.6 1493.2,1165.6 1479.8,1136.6 1467.2,1107.6 1455.3,1078.6 1444.2,1049.7 1433.9,1020.9 1424.4,992.3 1415.7,963.8 1408.0,935.6 1401.1,907.6 1395.1,880.0 1390.0,852.7  A 656.600,656.600 0.00 0,1 1463.2,844.4 L 1463.2,844.4 1465.1,871.0 1468.1,898.0 1471.9,925.4 1476.8,952.9 1482.5,980.7 1489.3,1008.7 1496.9,1036.7 1505.5,1064.8 1515.0,1092.9 1525.5,1120.9 1536.8,1148.8 1549.0,1176.6 1562.1,1204.1 1576.0,1231.4 1590.8,1258.4 1606.4,1285.1 1622.8,1311.3 1639.9,1337.2 1657.8,1362.6 1676.4,1387.4 1695.7,1411.8 1715.7,1435.5 1736.2,1458.7 1757.4,1481.1 1779.1,1502.9 1801.4,1524.0 1824.1,1544.4 1847.3,1563.9 1870.8,1582.7 1894.8,1600.6 1919.0,1617.7 1943.5,1633.8 1968.3,1649.1 1993.2,1663.5 2018.2,1676.8 2043.3,1689.3 2068.4,1700.7 2093.5,1711.1 2118.5,1720.5  Z" style="stroke-width: 0.0;  fill: rgb(0,0,0); opacity: 0.167;" />
<path d="M 1390.015,852.677 A 656.600,656.600 0.00 0,1 1463.2,844.4 L 1463.2,844.4 1464.2,871.4 1464.4,899.0 1463.7,926.9 1462.1,955.3 1459.6,984.1 1456.3,1013.1 1452.0,1042.4 1446.9,1071.9 1440.9,1101.5 1434.1,1131.3 1426.4,1161.1 1417.8,1190.9 1408.4,1220.6 1398.2,1250.3 1387.2,1279.8 1375.4,1309.2 1362.8,1338.3 1349.5,1367.2 1335.4,1395.8 1320.7,1424.0 1305.2,1451.8 1289.0,1479.2 1272.2,1506.1 1254.8,1532.5 1236.7,1558.4 1218.2,1583.7 1199.0,1608.3 1179.4,1632.3 1159.3,1655.6 1138.7,1678.2 1117.7,1699.9 1096.4,1720.9 1074.7,1741.1 1052.8,1760.4 1030.5,1778.8 1008.1,1796.2 985.5,1812.7 962.8,1828.2 940.0,1842.7  A 656.600,656.600 0.00 0,1 900.3,1767.3 L 900.3,1767.3 924.0,1756.2 947.6,1744.1 971.2,1731.0 994.6,1716.9 1017.8,1701.8 1040.7,1685.8 1063.2,1668.8 1085.4,1651.0 1107.1,1632.3 1128.3,1612.7 1148.9,1592.4 1169.0,1571.2 1188.4,1549.3 1207.2,1526.7 1225.2,1503.4 1242.5,1479.5 1259.0,1454.9 1274.7,1429.8 1289.6,1404.1 1303.6,1378.0 1316.7,1351.4 1328.9,1324.4 1340.2,1297.1 1350.5,1269.4 1359.9,1241.5 1368.3,1213.3 1375.8,1185.0 1382.3,1156.6 1387.8,1128.1 1392.3,1099.6 1395.8,1071.2 1398.4,1042.9 1400.0,1014.7 1400.6,986.8 1400.3,959.1 1399.1,931.8 1397.0,904.9 1393.9,878.5 1390.0,852.7  Z" style="stroke-width: 0.0;  fill: rgb(0,0,0); opacity: 0.167;" />
<path d="M 1434.195,2153.294 A 656.600,656.600 0.00 0,1 1331.3,2134.6 L 1331.3,2134.6 1338.2,2110.5 1346.1,2086.3 1354.9,2062.3 1364.7,2038.5 1375.4,2014.9 1387.1,1991.6 1399.8,1968.8 1413.3,1946.5 1427.8,1924.7 1443.2,1903.6 1459.4,1883.2 1476.5,1863.5 1494.4,1844.6 1513.1,1826.6 1532.6,1809.6 1552.8,1793.4 1573.7,1778.3 1595.3,1764.1 1617.5,1751.1 1640.3,1739.1 1663.7,1728.2 1687.5,1718.4 1711.9,1709.7 1736.6,1702.2 1761.7,1695.9 1787.2,1690.6 1812.8,1686.6 1838.7,1683.6 1864.8,1681.8 1890.9,1681.1 1917.0,1681.5 1943.1,1683.0 1969.0,1685.5 1994.8,1689.1 2020.4,1693.6 2045.6,1699.0 2070.4,1705.3 2094.7,1712.5 2118.5,1720.5  A 656.600,656.600 0.00 0,1 2069.9,1826.1 L 2069.9,1826.1 2048.8,1814.4 2027.1,1803.5 2005.0,1793.3 1982.6,1783.9 1959.9,1775.4 1937.0,1767.9 1914.0,1761.3 1891.0,1755.9 1868.0,1751.6 1845.2,1748.4 1822.5,1746.5 1800.0,1745.8 1777.9,1746.3 1756.1,1748.1 1734.7,1751.2 1713.8,1755.7 1693.3,1761.4 1673.5,1768.4 1654.2,1776.7 1635.6,1786.3 1617.6,1797.1 1600.4,1809.2 1583.9,1822.5 1568.1,1837.0 1553.1,1852.6 1539.0,1869.3 1525.7,1887.0 1513.2,1905.7 1501.6,1925.3 1490.9,1945.7 1481.1,1966.9 1472.1,1988.8 1464.1,2011.3 1456.9,2034.3 1450.6,2057.7 1445.2,2081.4 1440.7,2105.3 1437.0,2129.3 1434.2,2153.3  Z" style="stroke-width: 0.0;  fill: rgb(0,0,0); opacity: 0.167;" />
<path d="M 944.041,1849.332 A 656.600,656.600 0.00 0,1 897.2,1760.2 L 897.2,1760.2 923.2,1749.4 950.1,1739.1 977.7,1729.3 1006.0,1720.1 1035.0,1711.4 1064.6,1703.2 1094.8,1695.5 1125.5,1688.4 1156.7,1681.7 1188.4,1675.6 1220.5,1670.0 1252.9,1665.0 1285.7,1660.4 1318.8,1656.4 1352.1,1652.9 1385.6,1649.9 1419.2,1647.4 1453.0,1645.5 1486.9,1644.1 1520.8,1643.2 1554.7,1642.8 1588.5,1642.9 1622.2,1643.6 1655.9,1644.8 1689.3,1646.6 1722.5,1648.8 1755.5,1651.6 1788.2,1655.0 1820.5,1658.8 1852.4,1663.2 1883.9,1668.2 1915.0,1673.7 1945.5,1679.8 1975.5,1686.4 2004.9,1693.5 2033.7,1701.3 2061.8,1709.5 2089.2,1718.4 2115.8,1727.8  A 656.600,656.600 0.00 0,1 2073.7,1819.3 L 2073.7,1819.3 2049.9,1806.5 2025.2,1794.4 1999.6,1782.8 1973.4,1771.8 1946.4,1761.4 1918.8,1751.7 1890.5,1742.7 1861.7,1734.4 1832.4,1726.8 1802.6,1719.9 1772.4,1713.8 1741.8,1708.4 1710.9,1703.7 1679.7,1699.9 1648.3,1696.8 1616.6,1694.5 1584.9,1692.9 1553.0,1692.2 1521.1,1692.3 1489.2,1693.1 1457.3,1694.7 1425.5,1697.2 1393.9,1700.4 1362.4,1704.4 1331.2,1709.1 1300.2,1714.6 1269.6,1720.9 1239.3,1727.9 1209.5,1735.7 1180.1,1744.1 1151.2,1753.3 1122.9,1763.1 1095.2,1773.6 1068.1,1784.8 1041.7,1796.5 1016.1,1808.9 991.2,1821.8 967.2,1835.3 944.0,1849.3  Z" style="stroke-width: 0.0;  fill: rgb(0,0,0); opacity: 0.167;" />
<path d="M 1230.931,901.063 A 656.600,656.600 0.00 0,1 1303.4,873.5 L 1303.4,873.5 1311.6,901.1 1319.4,929.4 1326.5,958.3 1333.2,987.9 1339.4,1018.1 1345.1,1048.8 1350.3,1080.1 1355.0,1111.8 1359.3,1144.0 1363.2,1176.6 1366.6,1209.6 1369.6,1242.9 1372.1,1276.4 1374.2,1310.2 1375.9,1344.3 1377.3,1378.5 1378.2,1412.8 1378.6,1447.2 1378.7,1481.7 1378.4,1516.2 1377.7,1550.6 1376.6,1585.0 1375.1,1619.4 1373.2,1653.5 1370.9,1687.5 1368.2,1721.3 1365.0,1754.8 1361.5,1788.0 1357.5,1820.9 1353.1,1853.4 1348.2,1885.5 1342.9,1917.2 1337.1,1948.3 1330.9,1979.0 1324.2,2009.1 1317.0,2038.5 1309.3,2067.3 1301.1,2095.5 1292.3,2122.9  A 656.600,656.600 0.00 0,1 1220.4,2094.1 L 1220.4,2094.1 1231.8,2068.7 1242.8,2042.5 1253.1,2015.6 1263.0,1987.9 1272.2,1959.5 1280.9,1930.5 1289.0,1900.9 1296.5,1870.8 1303.5,1840.1 1309.8,1809.0 1315.6,1777.5 1320.7,1745.5 1325.3,1713.3 1329.3,1680.8 1332.6,1648.0 1335.4,1615.0 1337.5,1581.8 1339.0,1548.6 1339.9,1515.3 1340.2,1481.9 1339.9,1448.6 1339.0,1415.3 1337.4,1382.1 1335.3,1349.1 1332.5,1316.2 1329.1,1283.6 1325.1,1251.3 1320.5,1219.3 1315.3,1187.7 1309.5,1156.5 1303.1,1125.7 1296.1,1095.4 1288.6,1065.7 1280.4,1036.5 1271.6,1008.0 1262.3,980.1 1252.4,953.0 1242.0,926.6 1230.9,901.1  Z" style="stroke-width: 0.0;  fill: rgb(0,0,0); opacity: 0.167;" />
<path d="M 2117.149,1724.166 A 656.600,656.600 0.00 0,1 2071.8,1822.7 L 2071.8,1822.7 2045.0,1807.8 2017.6,1793.1 1989.6,1778.5 1961.1,1764.1 1932.1,1749.7 1902.7,1735.4 1872.9,1721.1 1842.8,1706.8 1812.3,1692.5 1781.6,1678.1 1750.6,1663.8 1719.4,1649.3 1688.0,1634.9 1656.5,1620.3 1624.9,1605.7 1593.1,1591.0 1561.3,1576.3 1529.5,1561.4 1497.6,1546.5 1465.7,1531.6 1433.9,1516.6 1402.2,1501.6 1370.5,1486.6 1338.9,1471.6 1307.4,1456.6 1276.1,1441.7 1244.9,1426.8 1213.8,1412.1 1183.0,1397.4 1152.3,1383.0 1121.8,1368.7 1091.6,1354.7 1061.5,1340.9 1031.7,1327.5 1002.1,1314.4 972.8,1301.8 943.7,1289.6 914.8,1277.9 886.2,1266.7  A 656.600,656.600 0.00 0,1 933.0,1168.9 L 933.0,1168.9 959.5,1184.1 986.6,1199.1 1014.4,1214.0 1042.6,1228.8 1071.3,1243.5 1100.5,1258.1 1130.1,1272.7 1160.1,1287.2 1190.4,1301.8 1221.0,1316.4 1251.8,1330.9 1282.9,1345.6 1314.2,1360.2 1345.7,1374.9 1377.3,1389.7 1409.0,1404.5 1440.7,1419.3 1472.6,1434.2 1504.4,1449.1 1536.3,1464.0 1568.1,1479.0 1599.9,1493.9 1631.7,1508.9 1663.3,1523.8 1694.9,1538.7 1726.3,1553.4 1757.6,1568.1 1788.7,1582.7 1819.6,1597.1 1850.4,1611.3 1881.0,1625.3 1911.3,1639.0 1941.4,1652.4 1971.3,1665.5 2001.0,1678.2 2030.4,1690.5 2059.6,1702.2 2088.5,1713.5 2117.1,1724.2  Z" style="stroke-width: 0.0;  fill: rgb(0,0,0); opacity: 0.167;" />
<path d="M 937.940,1839.429 A 656.600,656.600 0.00 0,1 901.9,1770.8 L 901.9,1770.8 924.0,1760.3 946.0,1748.9 967.6,1736.7 988.8,1723.6 1009.5,1709.6 1029.7,1694.9 1049.1,1679.4 1067.8,1663.2 1085.6,1646.2 1102.5,1628.6 1118.4,1610.3 1133.3,1591.4 1147.1,1571.9 1159.8,1551.8 1171.3,1531.2 1181.6,1510.2 1190.6,1488.7 1198.3,1466.8 1204.8,1444.5 1210.0,1421.9 1213.8,1399.0 1216.3,1375.9 1217.5,1352.7 1217.4,1329.2 1216.0,1305.7 1213.2,1282.1 1209.3,1258.6 1204.1,1235.1 1197.6,1211.7 1190.1,1188.4 1181.4,1165.4 1171.6,1142.7 1160.8,1120.3 1149.1,1098.3 1136.5,1076.8 1123.0,1055.8 1108.8,1035.3 1094.0,1015.5 1078.6,996.5  A 656.600,656.600 0.00 0,1 1140.9,950.3 L 1140.9,950.3 1154.3,971.7 1167.0,993.8 1179.1,1016.6 1190.4,1040.0 1200.8,1064.0 1210.4,1088.5 1219.1,1113.4 1226.8,1138.7 1233.5,1164.4 1239.1,1190.3 1243.7,1216.5 1247.2,1242.7 1249.5,1269.2 1250.7,1295.6 1250.7,1322.1 1249.5,1348.5 1247.2,1374.8 1243.7,1400.9 1239.0,1426.9 1233.1,1452.6 1226.1,1478.0 1217.9,1503.1 1208.6,1527.9 1198.2,1552.1 1186.7,1576.0 1174.1,1599.3 1160.6,1622.1 1146.1,1644.3 1130.6,1665.8 1114.3,1686.7 1097.1,1706.9 1079.2,1726.4 1060.6,1745.1 1041.3,1763.0 1021.5,1780.1 1001.1,1796.3 980.4,1811.6 959.3,1826.0 937.9,1839.4  Z" style="stroke-width: 0.0;  fill: rgb(0,0,0); opacity: 0.167;" />
<path d="M 1295.993,2124.103 A 656.600,656.600 0.00 0,1 1213.4,2090.7 L 1213.4,2090.7 1224.6,2066.5 1235.2,2041.5 1245.1,2015.7 1254.3,1989.2 1262.8,1962.1 1270.6,1934.4 1277.5,1906.2 1283.7,1877.4 1289.1,1848.2 1293.6,1818.6 1297.3,1788.7 1300.2,1758.4 1302.2,1728.0 1303.4,1697.3 1303.6,1666.5 1303.1,1635.5 1301.6,1604.6 1299.2,1573.6 1296.0,1542.6 1292.0,1511.8 1287.0,1481.1 1281.2,1450.6 1274.6,1420.3 1267.1,1390.3 1258.9,1360.6 1249.8,1331.2 1239.9,1302.3 1229.3,1273.9 1217.9,1245.9 1205.9,1218.5 1193.1,1191.7 1179.7,1165.6 1165.6,1140.1 1150.9,1115.4 1135.7,1091.4 1119.9,1068.2 1103.6,1045.9 1086.9,1024.5 1069.8,1004.0  A 656.600,656.600 0.00 0,1 1150.7,944.0 L 1150.7,944.0 1165.1,967.8 1179.1,992.4 1192.6,1017.9 1205.6,1044.1 1218.2,1071.1 1230.2,1098.8 1241.7,1127.2 1252.8,1156.2 1263.2,1185.7 1273.2,1215.8 1282.6,1246.4 1291.4,1277.4 1299.7,1308.8 1307.4,1340.6 1314.5,1372.7 1321.0,1405.0 1326.9,1437.6 1332.2,1470.4 1336.9,1503.3 1340.9,1536.3 1344.4,1569.4 1347.2,1602.5 1349.4,1635.6 1350.9,1668.5 1351.8,1701.4 1352.1,1734.1 1351.7,1766.6 1350.6,1798.8 1348.9,1830.7 1346.6,1862.3 1343.6,1893.6 1339.9,1924.3 1335.6,1954.6 1330.6,1984.4 1325.0,2013.7 1318.7,2042.3 1311.8,2070.3 1304.2,2097.6 1296.0,2124.1  Z" style="stroke-width: 0.0;  fill: rgb(0,0,0); opacity: 0.167;" />
<path d="M 1075.640,998.959 A 656.600,656.600 0.00 0,1 1144.1,948.2 L 1144.1,948.2 1160.7,974.3 1177.2,1001.0 1193.6,1028.2 1209.9,1055.8 1226.2,1083.9 1242.5,1112.4 1258.9,1141.2 1275.3,1170.4 1291.7,1199.8 1308.3,1229.5 1324.9,1259.3 1341.7,1289.3 1358.5,1319.5 1375.5,1349.7 1392.6,1380.1 1409.8,1410.5 1427.1,1440.9 1444.6,1471.3 1462.2,1501.7 1479.8,1532.1 1497.6,1562.3 1515.4,1592.5 1533.3,1622.6 1551.2,1652.6 1569.1,1682.5 1587.1,1712.2 1604.9,1741.7 1622.8,1771.1 1640.5,1800.3 1658.1,1829.4 1675.6,1858.2 1692.8,1886.9 1709.8,1915.3 1726.5,1943.6 1742.9,1971.7 1758.8,1999.5 1774.4,2027.2 1789.4,2054.7 1803.9,2082.0  A 656.600,656.600 0.00 0,1 1726.0,2116.5 L 1726.0,2116.5 1715.4,2088.5 1704.2,2060.3 1692.2,2031.9 1679.7,2003.2 1666.6,1974.2 1652.9,1945.1 1638.8,1915.7 1624.2,1886.1 1609.2,1856.4 1593.8,1826.5 1578.1,1796.5 1562.1,1766.3 1545.7,1736.1 1529.1,1705.7 1512.3,1675.3 1495.2,1644.8 1478.0,1614.4 1460.6,1583.9 1443.1,1553.5 1425.4,1523.1 1407.6,1492.8 1389.7,1462.6 1371.7,1432.6 1353.7,1402.7 1335.5,1373.1 1317.3,1343.6 1299.1,1314.5 1280.8,1285.6 1262.5,1257.1 1244.1,1229.0 1225.6,1201.2 1207.1,1174.0 1188.6,1147.2 1170.0,1120.9 1151.3,1095.2 1132.5,1070.1 1113.7,1045.7 1094.7,1022.0 1075.6,999.0  Z" style="stroke-width: 0.0;  fill: rgb(0,0,0); opacity: 0.167;" />
<path d="M 2054.925,1149.028 A 656.600,656.600 0.00 0,1 2108.1,1252.3 L 2108.1,1252.3 2084.9,1261.3 2061.2,1269.5 2037.0,1276.8 2012.3,1283.3 1987.4,1288.8 1962.2,1293.4 1936.8,1296.9 1911.4,1299.4 1885.9,1300.9 1860.4,1301.1 1835.0,1300.3 1809.8,1298.3 1784.8,1295.2 1760.1,1290.8 1735.7,1285.3 1711.7,1278.6 1688.1,1270.7 1665.0,1261.6 1642.4,1251.4 1620.4,1240.0 1599.0,1227.5 1578.2,1213.9 1558.1,1199.2 1538.7,1183.5 1520.1,1166.8 1502.2,1149.2 1485.2,1130.6 1469.0,1111.2 1453.6,1091.0 1439.1,1070.0 1425.5,1048.4 1412.8,1026.2 1401.0,1003.5 1390.2,980.3 1380.3,956.8 1371.3,932.9 1363.3,908.9 1356.2,884.8 1350.1,860.7  A 656.600,656.600 0.00 0,1 1353.9,859.9 L 1353.9,859.9 1359.7,883.5 1366.4,907.1 1374.0,930.5 1382.5,953.7 1391.8,976.4 1402.1,998.8 1413.1,1020.5 1425.1,1041.6 1437.8,1062.0 1451.4,1081.5 1465.8,1100.2 1481.0,1117.9 1496.9,1134.6 1513.6,1150.3 1531.0,1164.8 1549.1,1178.2 1567.9,1190.4 1587.2,1201.4 1607.2,1211.1 1627.7,1219.6 1648.7,1226.8 1670.1,1232.6 1692.0,1237.2 1714.3,1240.4 1736.9,1242.4 1759.8,1243.0 1782.9,1242.4 1806.1,1240.5 1829.5,1237.5 1852.9,1233.2 1876.3,1227.7 1899.7,1221.2 1922.8,1213.6 1945.8,1204.9 1968.5,1195.4 1990.8,1184.9 2012.7,1173.7 2034.1,1161.7 2054.9,1149.0  Z" style="stroke-width: 0.0;  fill: rgb(0,0,0); opacity: 0.167;" />
<path d="M 1434.195,2153.294 A 656.600,656.600 0.00 0,1 1331.3,2134.6 L 1331.3,2134.6 1337.0,2112.0 1342.1,2089.3 1346.5,2066.6 1350.3,2044.1 1353.2,2021.8 1355.4,1999.9 1356.7,1978.5 1357.1,1957.6 1356.6,1937.5 1355.1,1918.1 1352.7,1899.5 1349.3,1881.9 1344.8,1865.2 1339.4,1849.6 1333.0,1835.1 1325.5,1821.8 1317.0,1809.6 1307.6,1798.7 1297.2,1789.1 1285.7,1780.7 1273.4,1773.7 1260.2,1768.0 1246.0,1763.6 1231.1,1760.5 1215.3,1758.8 1198.8,1758.3 1181.6,1759.1 1163.7,1761.2 1145.3,1764.5 1126.4,1769.0 1107.0,1774.6 1087.2,1781.3 1067.2,1789.0 1047.0,1797.6 1026.6,1807.2 1006.3,1817.6 986.0,1828.6 965.9,1840.4 946.1,1852.6  A 656.600,656.600 0.00 0,1 895.6,1756.6 L 895.6,1756.6 917.8,1747.6 940.4,1739.3 963.2,1731.8 986.3,1725.2 1009.4,1719.4 1032.6,1714.6 1055.6,1710.8 1078.5,1708.1 1101.1,1706.5 1123.4,1706.0 1145.4,1706.6 1166.8,1708.5 1187.8,1711.6 1208.1,1715.9 1227.8,1721.4 1246.8,1728.2 1265.1,1736.2 1282.6,1745.5 1299.3,1755.9 1315.1,1767.6 1330.1,1780.4 1344.1,1794.4 1357.1,1809.5 1369.3,1825.6 1380.4,1842.8 1390.5,1861.0 1399.7,1880.0 1407.9,1900.0 1415.0,1920.7 1421.2,1942.2 1426.3,1964.3 1430.5,1986.9 1433.7,2010.1 1436.0,2033.6 1437.4,2057.4 1437.8,2081.4 1437.4,2105.4 1436.2,2129.4 1434.2,2153.3  Z" style="stroke-width: 0.0;  fill: rgb(0,0,0); opacity: 0.167;" />
<path d="M 887.615,1263.128 A 656.600,656.600 0.00 0,1 931.0,1172.3 L 931.0,1172.3 957.7,1187.3 985.0,1202.2 1012.8,1217.0 1041.1,1231.6 1069.9,1246.2 1099.2,1260.7 1128.9,1275.2 1158.9,1289.6 1189.3,1304.1 1219.9,1318.6 1250.8,1333.1 1282.0,1347.6 1313.3,1362.2 1344.8,1376.8 1376.4,1391.5 1408.1,1406.3 1439.9,1421.1 1471.8,1435.9 1503.6,1450.8 1535.5,1465.8 1567.3,1480.7 1599.1,1495.7 1630.8,1510.7 1662.4,1525.6 1694.0,1540.5 1725.3,1555.4 1756.6,1570.2 1787.7,1584.8 1818.6,1599.3 1849.3,1613.6 1879.9,1627.7 1910.2,1641.5 1940.3,1655.1 1970.1,1668.3 1999.8,1681.2 2029.2,1693.6 2058.3,1705.5 2087.2,1717.0 2115.8,1727.8  A 656.600,656.600 0.00 0,1 2073.7,1819.3 L 2073.7,1819.3 2046.8,1804.6 2019.2,1790.0 1991.1,1775.5 1962.5,1761.2 1933.4,1746.9 1904.0,1732.7 1874.1,1718.5 1843.9,1704.4 1813.4,1690.2 1782.6,1675.9 1751.6,1661.6 1720.3,1647.3 1688.9,1632.9 1657.3,1618.4 1625.7,1603.8 1593.9,1589.2 1562.1,1574.5 1530.3,1559.7 1498.4,1544.8 1466.6,1529.9 1434.8,1514.9 1403.0,1499.9 1371.4,1484.8 1339.8,1469.8 1308.4,1454.7 1277.0,1439.8 1245.9,1424.8 1214.9,1410.0 1184.0,1395.3 1153.4,1380.7 1123.0,1366.3 1092.7,1352.2 1062.7,1338.3 1033.0,1324.7 1003.4,1311.5 974.1,1298.7 945.0,1286.3 916.2,1274.4 887.6,1263.1  Z" style="stroke-width: 0.0;  fill: rgb(0,0,0); opacity: 0.167;" />
<path d="M 1817.610,2074.672 A 656.600,656.600 0.00 0,1 1711.4,2121.7 L 1711.4,2121.7 1703.8,2100.1 1696.0,2078.7 1687.9,2057.8 1679.5,2037.4 1671.0,2017.6 1662.2,1998.7 1653.4,1980.7 1644.4,1963.7 1635.3,1947.9 1626.2,1933.3 1617.1,1920.0 1608.0,1908.1 1598.9,1897.7 1589.8,1888.8 1580.9,1881.4 1572.0,1875.7 1563.3,1871.6 1554.7,1869.2 1546.2,1868.4 1538.0,1869.3 1529.9,1872.0 1522.1,1876.3 1514.5,1882.2 1507.2,1889.8 1500.1,1899.0 1493.3,1909.7 1486.8,1921.9 1480.6,1935.6 1474.7,1950.6 1469.1,1966.9 1463.8,1984.3 1458.9,2002.9 1454.3,2022.4 1450.1,2042.8 1446.2,2064.0 1442.7,2085.8 1439.5,2108.0 1436.7,2130.6 1434.2,2153.3  A 656.600,656.600 0.00 0,1 1331.3,2134.6 L 1331.3,2134.6 1337.6,2112.1 1344.5,2089.8 1351.9,2067.9 1359.9,2046.5 1368.5,2025.6 1377.6,2005.5 1387.3,1986.2 1397.4,1967.8 1408.0,1950.5 1419.1,1934.3 1430.6,1919.3 1442.5,1905.5 1454.9,1893.1 1467.6,1882.2 1480.6,1872.6 1494.0,1864.6 1507.7,1858.1 1521.6,1853.2 1535.8,1849.8 1550.2,1848.1 1564.7,1847.9 1579.5,1849.3 1594.3,1852.3 1609.2,1856.8 1624.2,1862.9 1639.2,1870.4 1654.1,1879.5 1669.1,1889.9 1683.9,1901.6 1698.5,1914.7 1713.0,1928.9 1727.3,1944.3 1741.3,1960.7 1755.1,1978.0 1768.4,1996.1 1781.4,2015.0 1794.0,2034.5 1806.1,2054.4 1817.6,2074.7  Z" style="stroke-width: 0.0;  fill: rgb(0,0,0); opacity: 0.167;" />
<path d="M 1292.312,2122.888 A 656.600,656.600 0.00 0,1 1220.4,2094.1 L 1220.4,2094.1 1231.8,2068.7 1242.8,2042.5 1253.1,2015.6 1263.0,1987.9 1272.2,1959.5 1280.9,1930.5 1289.0,1900.9 1296.5,1870.8 1303.5,1840.1 1309.8,1809.0 1315.6,1777.5 1320.7,1745.5 1325.3,1713.3 1329.3,1680.8 1332.6,1648.0 1335.4,1615.0 1337.5,1581.8 1339.0,1548.6 1339.9,1515.3 1340.2,1481.9 1339.9,1448.6 1339.0,1415.3 1337.4,1382.1 1335.3,1349.1 1332.5,1316.2 1329.1,1283.6 1325.1,1251.3 1320.5,1219.3 1315.3,1187.7 1309.5,1156.5 1303.1,1125.7 1296.1,1095.4 1288.6,1065.7 1280.4,1036.5 1271.6,1008.0 1262.3,980.1 1252.4,953.0 1242.0,926.6 1230.9,901.1  A 656.600,656.600 0.00 0,1 1303.4,873.5 L 1303.4,873.5 1311.6,901.1 1319.4,929.4 1326.5,958.3 1333.2,987.9 1339.4,1018.1 1345.1,1048.8 1350.3,1080.1 1355.0,1111.8 1359.3,1144.0 1363.2,1176.6 1366.6,1209.6 1369.6,1242.9 1372.1,1276.4 1374.2,1310.2 1375.9,1344.3 1377.3,1378.5 1378.2,1412.8 1378.6,1447.2 1378.7,1481.7 1378.4,1516.2 1377.7,1550.6 1376.6,1585.0 1375.1,1619.4 1373.2,1653.5 1370.9,1687.5 1368.2,1721.3 1365.0,1754.8 1361.5,1788.0 1357.5,1820.9 1353.1,1853.4 1348.2,1885.5 1342.9,1917.2 1337.1,1948.3 1330.9,1979.0 1324.2,2009.1 1317.0,2038.5 1309.3,2067.3 1301.1,2095.5 1292.3,2122.9  Z" style="stroke-width: 0.0;  fill: rgb(0,0,0); opacity: 0.167;" />
<path d="M 1063.924,1009.122 A 656.600,656.600 0.00 0,1 1157.3,940.0 L 1157.3,940.0 1169.0,959.3 1180.6,978.7 1191.8,997.8 1202.7,1016.6 1213.1,1035.0 1222.9,1052.8 1232.1,1069.9 1240.6,1086.3 1248.3,1101.8 1255.3,1116.4 1261.4,1129.9 1266.6,1142.4 1270.9,1153.7 1274.3,1163.7 1276.6,1172.6 1277.9,1180.1 1278.3,1186.3 1277.6,1191.1 1275.8,1194.6 1273.0,1196.6 1269.2,1197.3 1264.4,1196.6 1258.6,1194.5 1251.7,1191.0 1244.0,1186.2 1235.3,1180.0 1225.7,1172.6 1215.4,1164.0 1204.2,1154.2 1192.3,1143.3 1179.7,1131.4 1166.5,1118.5 1152.8,1104.7 1138.6,1090.2 1124.0,1074.9 1109.2,1059.0 1094.2,1042.7 1079.0,1026.0 1063.9,1009.1  A 656.600,656.600 0.00 0,1 1157.3,940.0 L 1157.3,940.0 1169.0,959.3 1180.6,978.7 1191.8,997.8 1202.7,1016.6 1213.1,1035.0 1222.9,1052.8 1232.1,1069.9 1240.6,1086.3 1248.3,1101.8 1255.3,1116.4 1261.4,1129.9 1266.6,1142.4 1270.9,1153.7 1274.3,1163.7 1276.6,1172.6 1277.9,1180.1 1278.3,1186.3 1277.6,1191.1 1275.8,1194.6 1273.0,1196.6 1269.2,1197.3 1264.4,1196.6 1258.6,1194.5 1251.7,1191.0 1244.0,1186.2 1235.3,1180.0 1225.7,1172.6 1215.4,1164.0 1204.2,1154.2 1192.3,1143.3 1179.7,1131.4 1166.5,1118.5 1152.8,1104.7 1138.6,1090.2 1124.0,1074.9 1109.2,1059.0 1094.2,1042.7 1079.0,1026.0 1063.9,1009.1  Z" style="stroke-width: 0.0;  fill: rgb(0,0,0); opacity: 0.167;" />
<path d="M 1810.801,2078.383 A 656.600,656.600 0.00 0,1 1718.7,2119.1 L 1718.7,2119.1 1709.0,2093.0 1698.4,2066.7 1686.8,2040.2 1674.3,2013.6 1661.0,1987.0 1646.8,1960.2 1631.7,1933.5 1615.9,1906.7 1599.3,1880.1 1581.9,1853.5 1563.9,1827.0 1545.1,1800.7 1525.7,1774.5 1505.6,1748.6 1485.0,1722.9 1463.7,1697.5 1441.9,1672.5 1419.6,1647.7 1396.9,1623.4 1373.6,1599.4 1350.0,1576.0 1325.9,1552.9 1301.5,1530.4 1276.7,1508.5 1251.7,1487.0 1226.4,1466.2 1200.8,1446.0 1175.0,1426.5 1149.1,1407.7 1123.0,1389.5 1096.9,1372.1 1070.6,1355.5 1044.3,1339.7 1018.0,1324.7 991.7,1310.6 965.5,1297.3 939.4,1285.0 913.4,1273.6 887.6,1263.1  A 656.600,656.600 0.00 0,1 931.0,1172.3 L 931.0,1172.3 956.0,1187.1 981.1,1202.7 1006.3,1219.2 1031.6,1236.5 1056.9,1254.5 1082.3,1273.2 1107.7,1292.6 1133.2,1312.5 1158.6,1333.1 1184.1,1354.2 1209.5,1375.9 1234.8,1398.0 1260.1,1420.6 1285.3,1443.6 1310.4,1467.1 1335.3,1490.8 1360.1,1514.9 1384.7,1539.3 1409.2,1564.0 1433.4,1588.9 1457.3,1614.0 1481.0,1639.4 1504.3,1664.9 1527.3,1690.5 1550.0,1716.3 1572.3,1742.1 1594.1,1768.1 1615.5,1794.1 1636.4,1820.1 1656.7,1846.2 1676.6,1872.2 1695.8,1898.2 1714.4,1924.2 1732.3,1950.1 1749.6,1976.0 1766.1,2001.7 1781.8,2027.4 1796.7,2053.0 1810.8,2078.4  Z" style="stroke-width: 0.0;  fill: rgb(0,0,0); opacity: 0.167;" />
<path d="M 1066.831,1006.555 A 656.600,656.600 0.00 0,1 1154.0,942.0 L 1154.0,942.0 1165.9,961.8 1177.4,981.8 1188.3,1002.0 1198.5,1022.1 1207.9,1042.2 1216.4,1062.0 1224.1,1081.6 1230.8,1100.8 1236.4,1119.5 1240.9,1137.6 1244.3,1155.2 1246.5,1172.1 1247.5,1188.2 1247.2,1203.6 1245.7,1218.1 1242.9,1231.6 1238.8,1244.3 1233.4,1256.0 1226.7,1266.6 1218.8,1276.3 1209.6,1284.8 1199.2,1292.3 1187.5,1298.8 1174.7,1304.1 1160.8,1308.4 1145.8,1311.6 1129.8,1313.7 1112.8,1314.7 1094.9,1314.8 1076.2,1313.8 1056.7,1311.8 1036.6,1309.0 1016.0,1305.2 994.8,1300.6 973.4,1295.1 951.6,1289.0 929.8,1282.2 907.9,1274.7 886.2,1266.7  A 656.600,656.600 0.00 0,1 933.0,1168.9 L 933.0,1168.9 952.7,1180.3 972.5,1191.3 992.1,1202.0 1011.5,1212.1 1030.5,1221.7 1049.0,1230.6 1067.0,1238.8 1084.3,1246.2 1100.8,1252.8 1116.5,1258.4 1131.2,1263.2 1144.9,1267.0 1157.6,1269.7 1169.1,1271.4 1179.5,1272.1 1188.7,1271.6 1196.5,1270.1 1203.2,1267.5 1208.5,1263.7 1212.5,1258.9 1215.1,1253.0 1216.4,1246.0 1216.4,1237.9 1215.1,1228.9 1212.5,1218.8 1208.6,1207.8 1203.5,1195.9 1197.2,1183.2 1189.7,1169.6 1181.2,1155.3 1171.5,1140.3 1161.0,1124.8 1149.5,1108.7 1137.2,1092.2 1124.2,1075.4 1110.5,1058.3 1096.4,1041.0 1081.7,1023.8 1066.8,1006.6  Z" style="stroke-width: 0.0;  fill: rgb(0,0,0); opacity: 0.167;" />
<path d="M 937.940,1839.429 A 656.600,656.600 0.00 0,1 901.9,1770.8 L 901.9,1770.8 925.5,1759.6 949.1,1747.4 972.6,1734.1 996.0,1719.8 1019.1,1704.6 1041.9,1688.4 1064.4,1671.4 1086.5,1653.4 1108.1,1634.5 1129.3,1614.8 1149.8,1594.3 1169.8,1573.1 1189.2,1551.0 1207.9,1528.3 1225.9,1504.9 1243.1,1480.8 1259.6,1456.2 1275.2,1430.9 1290.0,1405.2 1304.0,1379.0 1317.0,1352.3 1329.2,1325.2 1340.4,1297.8 1350.8,1270.0 1360.1,1242.0 1368.5,1213.8 1375.9,1185.4 1382.4,1157.0 1387.9,1128.4 1392.4,1099.9 1395.9,1071.4 1398.5,1043.1 1400.0,1014.9 1400.7,986.9 1400.4,959.2 1399.1,931.9 1397.0,905.0 1393.9,878.6 1390.0,852.7  A 656.600,656.600 0.00 0,1 1463.2,844.4 L 1463.2,844.4 1464.2,871.4 1464.4,898.9 1463.7,926.9 1462.1,955.2 1459.6,983.9 1456.2,1012.9 1452.0,1042.2 1446.8,1071.6 1440.8,1101.2 1434.0,1130.9 1426.2,1160.7 1417.6,1190.4 1408.2,1220.1 1398.0,1249.8 1386.9,1279.2 1375.1,1308.5 1362.4,1337.6 1349.1,1366.4 1334.9,1394.9 1320.1,1423.0 1304.5,1450.7 1288.3,1478.0 1271.4,1504.9 1253.9,1531.2 1235.8,1556.9 1217.1,1582.1 1197.9,1606.6 1178.2,1630.5 1158.0,1653.7 1137.4,1676.1 1116.3,1697.8 1094.9,1718.6 1073.2,1738.6 1051.1,1757.8 1028.8,1776.0 1006.3,1793.4 983.6,1809.7 960.8,1825.1 937.9,1839.4  Z" style="stroke-width: 0.0;  fill: rgb(0,0,0); opacity: 0.167;" />
<path d="M 891.907,1252.317 A 656.600,656.600 0.00 0,1 925.3,1182.4 L 925.3,1182.4 946.0,1194.3 966.5,1206.9 986.4,1220.2 1005.8,1234.2 1024.6,1248.7 1042.6,1263.9 1059.7,1279.6 1075.9,1295.8 1091.0,1312.5 1105.0,1329.6 1117.9,1347.1 1129.5,1364.9 1139.9,1383.1 1148.9,1401.5 1156.5,1420.2 1162.8,1439.1 1167.6,1458.2 1170.9,1477.4 1172.7,1496.6 1173.1,1515.9 1172.0,1535.3 1169.4,1554.5 1165.4,1573.8 1159.9,1592.9 1152.9,1611.9 1144.6,1630.6 1135.0,1649.2 1124.1,1667.5 1111.9,1685.4 1098.5,1703.1 1084.0,1720.3 1068.5,1737.1 1052.0,1753.5 1034.6,1769.3 1016.4,1784.6 997.5,1799.3 978.1,1813.4 958.2,1826.8 937.9,1839.4  A 656.600,656.600 0.00 0,1 901.9,1770.8 L 901.9,1770.8 923.0,1760.9 943.9,1750.4 964.4,1739.3 984.4,1727.7 1003.6,1715.6 1022.1,1703.0 1039.6,1690.1 1056.2,1676.7 1071.7,1663.1 1086.0,1649.1 1099.1,1634.8 1110.8,1620.2 1121.2,1605.5 1130.2,1590.6 1137.7,1575.5 1143.6,1560.3 1148.1,1545.0 1150.9,1529.7 1152.2,1514.3 1151.9,1499.0 1150.1,1483.7 1146.6,1468.5 1141.6,1453.4 1135.0,1438.5 1127.0,1423.7 1117.5,1409.1 1106.5,1394.8 1094.2,1380.7 1080.6,1366.9 1065.8,1353.5 1049.8,1340.4 1032.7,1327.7 1014.6,1315.4 995.7,1303.6 976.0,1292.3 955.6,1281.5 934.7,1271.2 913.5,1261.4 891.9,1252.3  Z" style="stroke-width: 0.0;  fill: rgb(0,0,0); opacity: 0.167;" />
<path d="M 884.860,1270.377 A 656.600,656.600 0.00 0,1 935.0,1165.6 L 935.0,1165.6 957.8,1179.6 980.5,1194.7 1003.1,1210.8 1025.6,1227.8 1047.8,1245.8 1069.7,1264.7 1091.3,1284.4 1112.5,1305.0 1133.3,1326.4 1153.7,1348.7 1173.6,1371.6 1193.0,1395.3 1211.8,1419.6 1230.1,1444.6 1247.7,1470.1 1264.7,1496.3 1281.0,1523.0 1296.6,1550.1 1311.5,1577.7 1325.7,1605.7 1339.0,1634.1 1351.6,1662.7 1363.4,1691.7 1374.4,1720.9 1384.5,1750.2 1393.8,1779.7 1402.3,1809.3 1409.8,1839.0 1416.5,1868.6 1422.3,1898.2 1427.2,1927.6 1431.2,1956.9 1434.3,1986.1 1436.5,2014.9 1437.8,2043.4 1438.2,2071.6 1437.8,2099.3 1436.4,2126.6 1434.2,2153.3  A 656.600,656.600 0.00 0,1 1331.3,2134.6 L 1331.3,2134.6 1337.4,2109.7 1342.7,2084.2 1347.1,2058.2 1350.7,2031.9 1353.2,2005.1 1354.8,1978.1 1355.4,1950.9 1355.1,1923.4 1353.6,1896.0 1351.2,1868.4 1347.7,1840.9 1343.2,1813.5 1337.6,1786.2 1330.9,1759.1 1323.2,1732.3 1314.4,1705.8 1304.6,1679.6 1293.7,1653.8 1281.9,1628.4 1269.0,1603.6 1255.2,1579.2 1240.5,1555.5 1224.8,1532.3 1208.2,1509.8 1190.8,1488.0 1172.6,1466.9 1153.6,1446.5 1133.8,1426.9 1113.4,1408.2 1092.4,1390.2 1070.8,1373.2 1048.7,1357.0 1026.1,1341.7 1003.1,1327.4 979.8,1314.0 956.3,1301.6 932.5,1290.2 908.7,1279.8 884.9,1270.4  Z" style="stroke-width: 0.0;  fill: rgb(0,0,0); opacity: 0.167;" />
<path d="M 884.860,1270.377 A 656.600,656.600 0.00 0,1 935.0,1165.6 L 935.0,1165.6 955.4,1177.2 976.1,1188.3 997.1,1198.7 1018.3,1208.4 1039.5,1217.2 1060.6,1225.1 1081.7,1231.9 1102.5,1237.8 1123.1,1242.5 1143.3,1246.1 1163.1,1248.5 1182.3,1249.7 1201.0,1249.6 1219.1,1248.2 1236.6,1245.5 1253.3,1241.5 1269.2,1236.2 1284.4,1229.5 1298.7,1221.6 1312.1,1212.4 1324.7,1201.8 1336.3,1190.1 1346.9,1177.1 1356.7,1162.9 1365.4,1147.6 1373.2,1131.2 1380.0,1113.8 1385.8,1095.3 1390.6,1076.0 1394.5,1055.9 1397.5,1035.0 1399.5,1013.5 1400.6,991.3 1400.8,968.7 1400.2,945.8 1398.8,922.6 1396.5,899.3 1393.6,875.9 1390.0,852.7  A 656.600,656.600 0.00 0,1 1463.2,844.4 L 1463.2,844.4 1464.1,868.6 1464.2,892.9 1463.5,917.2 1461.8,941.5 1459.3,965.6 1455.8,989.5 1451.3,1013.0 1445.9,1036.1 1439.4,1058.6 1432.0,1080.5 1423.6,1101.7 1414.2,1122.2 1403.7,1141.8 1392.3,1160.6 1380.0,1178.4 1366.6,1195.2 1352.4,1211.0 1337.2,1225.7 1321.1,1239.4 1304.2,1251.8 1286.4,1263.2 1267.8,1273.3 1248.5,1282.2 1228.5,1290.0 1207.8,1296.5 1186.5,1301.8 1164.6,1305.9 1142.3,1308.9 1119.5,1310.6 1096.4,1311.2 1073.0,1310.7 1049.4,1309.0 1025.6,1306.3 1001.8,1302.6 978.0,1297.9 954.3,1292.3 930.8,1285.8 907.6,1278.4 884.9,1270.4  Z" style="stroke-width: 0.0;  fill: rgb(0,0,0); opacity: 0.167;" />
<path d="M 1803.948,2082.013 A 656.600,656.600 0.00 0,1 1726.0,2116.5 L 1726.0,2116.5 1715.6,2087.5 1705.5,2057.9 1695.5,2027.9 1685.8,1997.4 1676.1,1966.4 1666.6,1935.1 1657.1,1903.3 1647.7,1871.3 1638.3,1839.0 1628.9,1806.3 1619.5,1773.5 1610.0,1740.5 1600.5,1707.2 1590.9,1673.9 1581.3,1640.4 1571.5,1606.8 1561.7,1573.2 1551.8,1539.5 1541.8,1505.8 1531.7,1472.2 1521.6,1438.5 1511.3,1404.9 1501.1,1371.4 1490.8,1338.0 1480.4,1304.8 1470.1,1271.6 1459.8,1238.6 1449.6,1205.8 1439.4,1173.2 1429.4,1140.8 1419.4,1108.6 1409.7,1076.6 1400.2,1045.0 1390.9,1013.5 1382.0,982.4 1373.3,951.5 1365.1,920.9 1357.4,890.7 1350.1,860.7  A 656.600,656.600 0.00 0,1 1353.9,859.9 L 1353.9,859.9 1360.9,889.3 1368.5,919.1 1376.6,949.2 1385.3,979.6 1394.4,1010.4 1404.0,1041.4 1413.9,1072.7 1424.1,1104.2 1434.7,1136.0 1445.5,1168.0 1456.6,1200.2 1467.9,1232.6 1479.4,1265.1 1491.0,1297.8 1502.7,1330.6 1514.6,1363.5 1526.6,1396.5 1538.6,1429.5 1550.7,1462.6 1562.9,1495.6 1575.1,1528.6 1587.4,1561.5 1599.6,1594.4 1611.9,1627.1 1624.3,1659.7 1636.6,1692.2 1649.0,1724.4 1661.4,1756.3 1673.9,1788.0 1686.4,1819.4 1698.9,1850.5 1711.6,1881.1 1724.3,1911.4 1737.2,1941.2 1750.2,1970.5 1763.3,1999.3 1776.7,2027.5 1790.2,2055.1 1803.9,2082.0  Z" style="stroke-width: 0.0;  fill: rgb(0,0,0); opacity: 0.167;" />
<path d="M 1390.015,852.677 A 656.600,656.600 0.00 0,1 1463.2,844.4 L 1463.2,844.4 1464.7,875.1 1465.7,906.2 1466.4,937.7 1466.8,969.6 1466.9,1001.9 1466.7,1034.6 1466.4,1067.7 1465.8,1101.0 1465.2,1134.6 1464.4,1168.5 1463.5,1202.7 1462.6,1237.0 1461.7,1271.6 1460.7,1306.3 1459.8,1341.1 1458.9,1376.1 1458.0,1411.2 1457.1,1446.3 1456.3,1481.4 1455.5,1516.6 1454.8,1551.8 1454.1,1586.9 1453.4,1622.0 1452.8,1656.9 1452.2,1691.8 1451.6,1726.5 1451.0,1761.1 1450.4,1795.4 1449.7,1829.6 1449.0,1863.5 1448.2,1897.1 1447.2,1930.4 1446.1,1963.4 1444.8,1996.1 1443.3,2028.4 1441.6,2060.3 1439.5,2091.7 1437.0,2122.8 1434.2,2153.3  A 656.600,656.600 0.00 0,1 1331.3,2134.6 L 1331.3,2134.6 1338.6,2105.9 1345.4,2076.6 1351.8,2046.7 1357.7,2016.2 1363.3,1985.2 1368.5,1953.6 1373.4,1921.6 1377.9,1889.2 1382.2,1856.4 1386.1,1823.2 1389.8,1789.6 1393.2,1755.8 1396.3,1721.7 1399.3,1687.4 1402.0,1652.8 1404.4,1618.1 1406.7,1583.3 1408.7,1548.4 1410.5,1513.4 1412.1,1478.4 1413.5,1443.4 1414.7,1408.5 1415.6,1373.6 1416.3,1338.9 1416.8,1304.2 1417.0,1269.8 1417.0,1235.5 1416.7,1201.5 1416.1,1167.8 1415.2,1134.4 1414.0,1101.3 1412.5,1068.5 1410.5,1036.2 1408.2,1004.4 1405.5,973.0 1402.4,942.1 1398.8,911.7 1394.7,881.9 1390.0,852.7  Z" style="stroke-width: 0.0;  fill: rgb(0,0,0); opacity: 0.167;" />
<path d="M 1422.632,2152.026 A 656.600,656.600 0.00 0,1 1346.3,2138.4 L 1346.3,2138.4 1351.6,2116.3 1356.8,2094.4 1361.8,2072.9 1366.6,2051.7 1371.1,2031.2 1375.4,2011.4 1379.4,1992.5 1383.1,1974.6 1386.4,1957.7 1389.4,1942.0 1391.9,1927.6 1394.1,1914.5 1395.7,1902.9 1397.0,1892.7 1397.8,1884.0 1398.1,1877.0 1397.9,1871.5 1397.3,1867.7 1396.1,1865.6 1394.5,1865.1 1392.4,1866.4 1389.9,1869.2 1386.8,1873.8 1383.4,1879.9 1379.5,1887.7 1375.1,1896.9 1370.4,1907.7 1365.3,1919.9 1359.8,1933.5 1354.0,1948.4 1347.9,1964.5 1341.5,1981.6 1334.8,1999.8 1328.0,2018.9 1321.0,2038.7 1313.9,2059.2 1306.7,2080.1 1299.5,2101.4 1292.3,2122.9  A 656.600,656.600 0.00 0,1 1220.4,2094.1 L 1220.4,2094.1 1230.2,2073.5 1240.2,2053.2 1250.3,2033.4 1260.6,2014.0 1270.8,1995.4 1281.1,1977.5 1291.2,1960.6 1301.3,1944.7 1311.1,1929.9 1320.8,1916.3 1330.3,1904.1 1339.5,1893.2 1348.3,1883.8 1356.9,1875.8 1365.0,1869.4 1372.8,1864.6 1380.2,1861.4 1387.1,1859.8 1393.6,1859.9 1399.7,1861.6 1405.2,1865.0 1410.3,1870.0 1414.8,1876.6 1418.9,1884.8 1422.4,1894.6 1425.4,1905.9 1428.0,1918.6 1430.0,1932.7 1431.5,1948.1 1432.6,1964.7 1433.1,1982.5 1433.2,2001.3 1432.9,2021.0 1432.1,2041.6 1430.9,2062.8 1429.4,2084.6 1427.4,2106.9 1425.2,2129.4 1422.6,2152.0  Z" style="stroke-width: 0.0;  fill: rgb(0,0,0); opacity: 0.167;" />
<path d="M 1292.312,2122.888 A 656.600,656.600 0.00 0,1 1220.4,2094.1 L 1220.4,2094.1 1230.7,2071.1 1240.2,2047.5 1249.0,2023.3 1256.9,1998.6 1263.9,1973.5 1270.0,1948.0 1275.1,1922.3 1279.2,1896.2 1282.2,1870.0 1284.1,1843.7 1285.0,1817.4 1284.7,1791.0 1283.2,1764.8 1280.7,1738.6 1276.9,1712.6 1272.0,1686.9 1266.0,1661.4 1258.7,1636.2 1250.4,1611.4 1240.9,1587.1 1230.2,1563.2 1218.5,1539.8 1205.7,1516.9 1191.9,1494.6 1177.0,1473.0 1161.2,1452.0 1144.5,1431.7 1126.8,1412.1 1108.4,1393.3 1089.1,1375.3 1069.2,1358.1 1048.5,1341.7 1027.3,1326.2 1005.6,1311.5 983.4,1297.8 960.9,1285.0 938.0,1273.1 915.0,1262.2 891.9,1252.3  A 656.600,656.600 0.00 0,1 925.3,1182.4 L 925.3,1182.4 947.8,1195.3 970.1,1209.3 992.2,1224.3 1014.0,1240.2 1035.5,1257.0 1056.6,1274.8 1077.2,1293.5 1097.2,1313.0 1116.7,1333.3 1135.6,1354.4 1153.8,1376.3 1171.3,1398.9 1188.0,1422.1 1204.0,1446.1 1219.1,1470.6 1233.3,1495.7 1246.7,1521.3 1259.1,1547.4 1270.6,1574.0 1281.1,1601.0 1290.6,1628.3 1299.2,1655.9 1306.7,1683.8 1313.2,1711.9 1318.7,1740.2 1323.2,1768.6 1326.7,1797.0 1329.1,1825.5 1330.5,1853.9 1330.9,1882.2 1330.3,1910.4 1328.8,1938.3 1326.3,1966.0 1322.8,1993.3 1318.4,2020.3 1313.1,2046.8 1307.0,2072.8 1300.1,2098.1 1292.3,2122.9  Z" style="stroke-width: 0.0;  fill: rgb(0,0,0); opacity: 0.167;" />
<path d="M 1350.115,860.736 A 656.600,656.600 0.00 0,1 1353.9,859.9 L 1353.9,859.9 1358.8,883.1 1363.0,906.6 1366.4,930.1 1369.0,953.7 1370.7,977.1 1371.5,1000.3 1371.3,1023.1 1370.2,1045.6 1368.0,1067.5 1364.8,1088.9 1360.5,1109.6 1355.2,1129.5 1348.7,1148.7 1341.2,1166.9 1332.7,1184.3 1323.0,1200.7 1312.3,1216.0 1300.5,1230.3 1287.7,1243.5 1273.9,1255.6 1259.1,1266.6 1243.4,1276.3 1226.7,1284.9 1209.2,1292.3 1190.9,1298.5 1171.8,1303.5 1152.0,1307.3 1131.5,1310.0 1110.4,1311.5 1088.8,1311.8 1066.8,1311.1 1044.4,1309.3 1021.7,1306.4 998.8,1302.6 975.8,1297.8 952.8,1292.1 929.9,1285.6 907.2,1278.3 884.9,1270.4  A 656.600,656.600 0.00 0,1 935.0,1165.6 L 935.0,1165.6 955.2,1177.2 975.8,1188.3 996.7,1198.7 1017.6,1208.3 1038.5,1217.2 1059.3,1225.1 1080.0,1232.1 1100.4,1238.0 1120.4,1242.8 1140.1,1246.5 1159.2,1249.1 1177.8,1250.4 1195.8,1250.4 1213.0,1249.2 1229.6,1246.7 1245.4,1242.9 1260.3,1237.8 1274.4,1231.4 1287.6,1223.6 1299.9,1214.6 1311.2,1204.3 1321.6,1192.8 1330.9,1180.1 1339.3,1166.2 1346.7,1151.1 1353.0,1135.0 1358.3,1117.8 1362.6,1099.7 1366.0,1080.7 1368.3,1060.8 1369.7,1040.3 1370.1,1019.0 1369.7,997.2 1368.4,975.0 1366.2,952.4 1363.2,929.5 1359.5,906.6 1355.1,883.6 1350.1,860.7  Z" style="stroke-width: 0.0;  fill: rgb(0,0,0); opacity: 0.167;" />
<path d="M 1430.338,2152.894 A 656.600,656.600 0.00 0,1 1338.8,2136.5 L 1338.8,2136.5 1346.2,2106.6 1353.2,2076.2 1360.0,2045.3 1366.5,2013.9 1372.9,1982.1 1379.1,1950.0 1385.2,1917.5 1391.3,1884.6 1397.3,1851.5 1403.2,1818.1 1409.2,1784.4 1415.2,1750.6 1421.2,1716.5 1427.2,1682.4 1433.4,1648.0 1439.5,1613.6 1445.8,1579.2 1452.2,1544.6 1458.6,1510.1 1465.1,1475.5 1471.7,1441.0 1478.3,1406.6 1485.0,1372.2 1491.7,1337.9 1498.5,1303.7 1505.3,1269.6 1512.1,1235.7 1518.8,1202.0 1525.5,1168.5 1532.1,1135.2 1538.5,1102.2 1544.8,1069.4 1551.0,1036.9 1556.8,1004.6 1562.5,972.7 1567.7,941.1 1572.7,909.9 1577.2,879.0 1581.2,848.4  A 656.600,656.600 0.00 0,1 1672.4,866.4 L 1672.4,866.4 1664.6,896.1 1657.1,926.3 1649.9,956.9 1642.9,988.1 1636.1,1019.7 1629.5,1051.7 1622.9,1084.1 1616.5,1116.8 1610.2,1149.8 1603.9,1183.2 1597.7,1216.7 1591.5,1250.5 1585.2,1284.5 1579.0,1318.7 1572.7,1353.0 1566.3,1387.4 1560.0,1421.9 1553.6,1456.4 1547.1,1491.0 1540.6,1525.5 1534.0,1560.1 1527.5,1594.6 1520.9,1629.0 1514.2,1663.4 1507.6,1697.6 1501.1,1731.7 1494.5,1765.6 1488.0,1799.4 1481.7,1832.9 1475.4,1866.3 1469.3,1899.3 1463.4,1932.2 1457.6,1964.7 1452.2,1996.9 1447.0,2028.8 1442.2,2060.4 1437.8,2091.6 1433.8,2122.4 1430.3,2152.9  Z" style="stroke-width: 0.0;  fill: rgb(0,0,0); opacity: 0.167;" />
<path d="M 1227.399,902.662 A 656.600,656.600 0.00 0,1 1307.1,872.4 L 1307.1,872.4 1313.6,894.3 1319.8,916.1 1325.5,937.8 1330.8,959.2 1335.5,980.1 1339.6,1000.5 1343.1,1020.2 1345.9,1039.1 1347.9,1057.1 1349.3,1074.1 1349.9,1090.1 1349.6,1104.9 1348.6,1118.5 1346.7,1130.8 1344.0,1141.7 1340.5,1151.3 1336.1,1159.5 1330.9,1166.3 1324.8,1171.5 1317.9,1175.3 1310.2,1177.6 1301.8,1178.3 1292.5,1177.6 1282.5,1175.4 1271.8,1171.8 1260.4,1166.7 1248.4,1160.2 1235.8,1152.4 1222.7,1143.3 1209.1,1133.0 1195.1,1121.5 1180.7,1109.0 1166.0,1095.4 1151.0,1081.0 1135.9,1065.7 1120.8,1049.8 1105.6,1033.3 1090.5,1016.3 1075.6,999.0  A 656.600,656.600 0.00 0,1 1144.1,948.2 L 1144.1,948.2 1156.5,967.2 1168.8,986.0 1181.1,1004.5 1193.3,1022.5 1205.2,1039.8 1216.8,1056.5 1228.1,1072.3 1238.9,1087.1 1249.3,1100.9 1259.1,1113.7 1268.3,1125.2 1276.9,1135.4 1284.9,1144.4 1292.1,1151.9 1298.6,1158.1 1304.3,1162.8 1309.3,1166.0 1313.4,1167.7 1316.7,1167.8 1319.2,1166.5 1320.8,1163.6 1321.7,1159.2 1321.6,1153.3 1320.8,1146.0 1319.1,1137.2 1316.6,1127.0 1313.4,1115.5 1309.4,1102.7 1304.7,1088.7 1299.3,1073.6 1293.2,1057.4 1286.6,1040.3 1279.3,1022.3 1271.6,1003.5 1263.4,984.1 1254.8,964.2 1245.9,943.9 1236.8,923.3 1227.4,902.7  Z" style="stroke-width: 0.0;  fill: rgb(0,0,0); opacity: 0.167;" />
<path d="M 1434.195,2153.294 A 656.600,656.600 0.00 0,1 1331.3,2134.6 L 1331.3,2134.6 1337.4,2109.7 1342.7,2084.2 1347.1,2058.2 1350.7,2031.9 1353.2,2005.1 1354.8,1978.1 1355.4,1950.9 1355.1,1923.4 1353.6,1896.0 1351.2,1868.4 1347.7,1840.9 1343.2,1813.5 1337.6,1786.2 1330.9,1759.1 1323.2,1732.3 1314.4,1705.8 1304.6,1679.6 1293.7,1653.8 1281.9,1628.4 1269.0,1603.6 1255.2,1579.2 1240.5,1555.5 1224.8,1532.3 1208.2,1509.8 1190.8,1488.0 1172.6,1466.9 1153.6,1446.5 1133.8,1426.9 1113.4,1408.2 1092.4,1390.2 1070.8,1373.2 1048.7,1357.0 1026.1,1341.7 1003.1,1327.4 979.8,1314.0 956.3,1301.6 932.5,1290.2 908.7,1279.8 884.9,1270.4  A 656.600,656.600 0.00 0,1 935.0,1165.6 L 935.0,1165.6 957.8,1179.6 980.5,1194.7 1003.1,1210.8 1025.6,1227.8 1047.8,1245.8 1069.7,1264.7 1091.3,1284.4 1112.5,1305.0 1133.3,1326.4 1153.7,1348.7 1173.6,1371.6 1193.0,1395.3 1211.8,1419.6 1230.1,1444.6 1247.7,1470.1 1264.7,1496.3 1281.0,1523.0 1296.6,1550.1 1311.5,1577.7 1325.7,1605.7 1339.0,1634.1 1351.6,1662.7 1363.4,1691.7 1374.4,1720.9 1384.5,1750.2 1393.8,1779.7 1402.3,1809.3 1409.8,1839.0 1416.5,1868.6 1422.3,1898.2 1427.2,1927.6 1431.2,1956.9 1434.3,1986.1 1436.5,2014.9 1437.8,2043.4 1438.2,2071.6 1437.8,2099.3 1436.4,2126.6 1434.2,2153.3  Z" style="stroke-width: 0.0;  fill: rgb(0,0,0); opacity: 0.167;" />
</g>
</svg>
