<?xml version="1.0" encoding="utf-8" standalone="no"?>
<!DOCTYPE svg PUBLIC "-//W3C//DTD SVG 1.1//EN" "http://www.w3.org/Graphics/SVG/1.1/DTD/svg11.dtd">
<svg width="3000px" height="3000px" version="1.1" xmlns="http://www.w3.org/2000/svg" xmlns:xlink="http://www.w3.org/1999/xlink">
<g id="ideograms">
<path d="M1500.000,830.000 A670.000,670.000 40.000 0,1 1758.224,881.760 L1789.057,807.941 A750.000,750.000 0.000 0,0 1500.000,750.000 Z" style="stroke-linecap:round;fill:rgb(228,26,28);" />
<path d="M1792.483,897.212 A670.000,670.000 40.000 0,1 2159.859,1616.128 L2238.649,1629.994 A750.000,750.000 0.000 0,0 1827.407,825.237 Z" style="stroke-linecap:round;fill:rgb(114,91,130);" />
<path d="M2152.310,1652.944 A670.000,670.000 40.000 0,1 2038.296,1898.920 L2102.571,1946.552 A750.000,750.000 0.000 0,0 2230.198,1671.206 Z" style="stroke-linecap:round;fill:rgb(61,141,149);" />
<path d="M2015.082,1928.475 A670.000,670.000 40.000 0,1 1470.336,2169.343 L1466.794,2249.265 A750.000,750.000 0.000 0,0 2076.584,1979.636 Z" style="stroke-linecap:round;fill:rgb(77,174,74);" />
<path d="M1432.852,2166.627 A670.000,670.000 40.000 0,1 1327.865,2147.510 L1307.312,2224.825 A750.000,750.000 0.000 0,0 1424.834,2246.224 Z" style="stroke-linecap:round;fill:rgb(127,110,133);" />
<path d="M1291.830,2136.840 A670.000,670.000 40.000 0,1 1207.517,2102.788 L1172.593,2174.763 A750.000,750.000 0.000 0,0 1266.974,2212.881 Z" style="stroke-linecap:round;fill:rgb(185,93,109);" />
<path d="M1174.178,2085.440 A670.000,670.000 40.000 0,1 833.373,1432.852 L753.776,1424.834 A750.000,750.000 0.000 0,0 1135.274,2155.344 Z" style="stroke-linecap:round;fill:rgb(255,129,0);" />
<path d="M838.187,1395.580 A670.000,670.000 40.000 0,1 1003.065,1050.605 L943.729,996.946 A750.000,750.000 0.000 0,0 759.165,1383.112 Z" style="stroke-linecap:round;fill:rgb(255,213,34);" />
<path d="M1029.044,1023.449 A670.000,670.000 40.000 0,1 1181.115,910.753 L1143.039,840.395 A750.000,750.000 0.000 0,0 972.811,966.547 Z" style="stroke-linecap:round;fill:rgb(225,198,47);" />
<path d="M1214.656,893.800 A670.000,670.000 40.000 0,1 1310.722,857.292 L1288.121,780.551 A750.000,750.000 0.000 0,0 1180.585,821.417 Z" style="stroke-linecap:round;fill:rgb(167,87,43);" />
<path d="M1347.056,847.690 A670.000,670.000 40.000 0,1 1350.911,846.798 L1333.109,768.804 A750.000,750.000 0.000 0,0 1328.794,769.802 Z" style="stroke-linecap:round;fill:rgb(221,115,143);" />
<path d="M1387.771,839.466 A670.000,670.000 40.000 0,1 1462.433,831.054 L1457.947,751.180 A750.000,750.000 0.000 0,0 1374.370,760.597 Z" style="stroke-linecap:round;fill:rgb(214,137,178);" />
</g>
<g id="track_0">
<path d="M 1390.015,852.677 A 656.600,656.600 0.00 0,1 1463.2,844.4 L 1463.2,844.4 1464.1,868.6 1464.2,892.8 1463.5,917.2 1461.9,941.4 1459.3,965.5 1455.8,989.4 1451.3,1012.8 1445.9,1035.8 1439.5,1058.3 1432.1,1080.2 1423.7,1101.3 1414.3,1121.7 1403.9,1141.3 1392.6,1160.0 1380.2,1177.7 1366.9,1194.5 1352.7,1210.2 1337.5,1224.8 1321.5,1238.3 1304.6,1250.7 1286.8,1261.9 1268.3,1272.0 1249.0,1280.8 1229.0,1288.4 1208.4,1294.8 1187.1,1300.0 1165.3,1304.0 1143.1,1306.8 1120.3,1308.4 1097.3,1308.8 1073.9,1308.2 1050.3,1306.4 1026.6,1303.5 1002.8,1299.7 979.1,1294.8 955.5,1289.0 932.0,1282.4 908.9,1274.9 886.2,1266.7  A 656.600,656.600 0.00 0,1 933.0,1168.9 L 933.0,1168.9 953.5,1180.5 974.3,1191.4 995.4,1201.7 1016.6,1211.2 1037.9,1219.9 1059.2,1227.7 1080.3,1234.4 1101.2,1240.1 1121.8,1244.7 1142.1,1248.2 1161.9,1250.4 1181.3,1251.5 1200.1,1251.3 1218.2,1249.7 1235.7,1246.9 1252.5,1242.8 1268.5,1237.4 1283.7,1230.7 1298.1,1222.6 1311.6,1213.3 1324.2,1202.7 1335.9,1190.8 1346.6,1177.8 1356.3,1163.5 1365.1,1148.1 1372.9,1131.6 1379.8,1114.1 1385.6,1095.7 1390.5,1076.3 1394.4,1056.1 1397.4,1035.2 1399.4,1013.6 1400.5,991.5 1400.8,968.8 1400.2,945.9 1398.7,922.6 1396.5,899.3 1393.6,875.9 1390.0,852.7  Z" style="stroke-width: 0.0;  fill: rgb(0,0,0); opacity: 0.167;" />
<path d="M 1063.924,1009.122 A 656.600,656.600 0.00 0,1 1157.3,940.0 L 1157.3,940.0 1169.3,959.3 1181.6,978.4 1194.0,997.1 1206.4,1015.2 1218.9,1032.5 1231.3,1049.1 1243.6,1064.8 1255.8,1079.4 1267.7,1092.9 1279.4,1105.2 1290.7,1116.3 1301.7,1125.9 1312.3,1134.2 1322.4,1141.0 1332.1,1146.3 1341.3,1150.1 1349.9,1152.3 1358.0,1152.9 1365.5,1151.9 1372.4,1149.3 1378.8,1145.1 1384.5,1139.3 1389.5,1132.0 1394.0,1123.1 1397.8,1112.8 1401.0,1101.0 1403.5,1087.8 1405.4,1073.3 1406.7,1057.5 1407.4,1040.6 1407.5,1022.5 1407.0,1003.5 1406.0,983.6 1404.4,963.0 1402.4,941.7 1399.9,919.8 1397.0,897.6 1393.7,875.2 1390.0,852.7  A 656.600,656.600 0.00 0,1 1463.2,844.4 L 1463.2,844.4 1464.2,867.6 1464.7,890.7 1464.6,913.6 1463.8,936.2 1462.4,958.4 1460.4,980.0 1457.7,1000.9 1454.2,1021.0 1450.1,1040.2 1445.2,1058.5 1439.7,1075.6 1433.4,1091.6 1426.3,1106.4 1418.6,1119.9 1410.1,1132.1 1400.9,1142.8 1391.1,1152.2 1380.5,1160.1 1369.3,1166.5 1357.5,1171.3 1345.1,1174.7 1332.0,1176.5 1318.4,1176.9 1304.4,1175.7 1289.8,1173.1 1274.8,1168.9 1259.4,1163.4 1243.6,1156.5 1227.5,1148.3 1211.3,1138.8 1194.8,1128.0 1178.2,1116.2 1161.5,1103.3 1144.8,1089.4 1128.2,1074.7 1111.7,1059.2 1095.5,1043.0 1079.5,1026.3 1063.9,1009.1  Z" style="stroke-width: 0.0;  fill: rgb(0,0,0); opacity: 0.167;" />
<path d="M 1295.993,2124.103 A 656.600,656.600 0.00 0,1 1213.4,2090.7 L 1213.4,2090.7 1223.3,2070.4 1233.3,2050.2 1243.2,2030.4 1253.1,2011.1 1262.8,1992.4 1272.3,1974.5 1281.5,1957.4 1290.4,1941.3 1299.0,1926.3 1307.1,1912.5 1314.8,1899.9 1322.0,1888.6 1328.7,1878.8 1334.8,1870.4 1340.4,1863.4 1345.4,1858.1 1349.8,1854.2 1353.5,1852.0 1356.6,1851.4 1359.1,1852.4 1360.9,1855.0 1362.1,1859.2 1362.6,1865.0 1362.4,1872.3 1361.6,1881.2 1360.2,1891.5 1358.2,1903.3 1355.6,1916.4 1352.3,1930.8 1348.6,1946.4 1344.3,1963.1 1339.6,1980.8 1334.3,1999.5 1328.7,2019.0 1322.7,2039.2 1316.4,2059.9 1309.8,2081.1 1303.0,2102.5 1296.0,2124.1  A 656.600,656.600 0.00 0,1 1213.4,2090.7 L 1213.4,2090.7 1223.3,2070.4 1233.3,2050.2 1243.2,2030.4 1253.1,2011.1 1262.8,1992.4 1272.3,1974.5 1281.5,1957.4 1290.4,1941.3 1299.0,1926.3 1307.1,1912.5 1314.8,1899.9 1322.0,1888.6 1328.7,1878.8 1334.8,1870.4 1340.4,1863.4 1345.4,1858.1 1349.8,1854.2 1353.5,1852.0 1356.6,1851.4 1359.1,1852.4 1360.9,1855.0 1362.1,1859.2 1362.6,1865.0 1362.4,1872.3 1361.6,1881.2 1360.2,1891.5 1358.2,1903.3 1355.6,1916.4 1352.3,1930.8 1348.6,1946.4 1344.3,1963.1 1339.6,1980.8 1334.3,1999.5 1328.7,2019.0 1322.7,2039.2 1316.4,2059.9 1309.8,2081.1 1303.0,2102.5 1296.0,2124.1  Z" style="stroke-width: 0.0;  fill: rgb(0,0,0); opacity: 0.167;" />
<path d="M 1063.924,1009.122 A 656.600,656.600 0.00 0,1 1157.3,940.0 L 1157.3,940.0 1171.9,964.6 1186.2,990.1 1200.1,1016.4 1213.7,1043.4 1226.9,1071.1 1239.7,1099.5 1252.3,1128.6 1264.4,1158.2 1276.2,1188.3 1287.6,1219.0 1298.7,1250.1 1309.4,1281.7 1319.8,1313.6 1329.8,1345.9 1339.4,1378.5 1348.6,1411.3 1357.5,1444.4 1366.0,1477.7 1374.0,1511.1 1381.7,1544.7 1388.9,1578.3 1395.7,1611.9 1402.1,1645.6 1408.0,1679.2 1413.5,1712.7 1418.5,1746.1 1423.0,1779.4 1427.1,1812.5 1430.6,1845.3 1433.6,1877.9 1436.0,1910.2 1437.9,1942.2 1439.3,1973.7 1440.0,2004.9 1440.1,2035.6 1439.6,2065.8 1438.5,2095.6 1436.7,2124.7 1434.2,2153.3  A 656.600,656.600 0.00 0,1 1331.3,2134.6 L 1331.3,2134.6 1337.9,2108.0 1343.8,2080.7 1348.9,2052.8 1353.3,2024.3 1356.9,1995.3 1359.8,1965.7 1362.0,1935.7 1363.3,1905.3 1364.0,1874.6 1363.8,1843.5 1362.9,1812.2 1361.3,1780.6 1358.9,1748.9 1355.7,1717.0 1351.8,1685.1 1347.2,1653.1 1341.8,1621.1 1335.7,1589.2 1328.9,1557.4 1321.3,1525.7 1313.1,1494.2 1304.2,1463.0 1294.6,1432.0 1284.4,1401.4 1273.5,1371.1 1262.0,1341.2 1249.9,1311.8 1237.2,1282.9 1223.9,1254.5 1210.0,1226.6 1195.6,1199.4 1180.7,1172.9 1165.3,1147.1 1149.5,1122.0 1133.1,1097.7 1116.4,1074.2 1099.3,1051.6 1081.8,1029.9 1063.9,1009.1  Z" style="stroke-width: 0.0;  fill: rgb(0,0,0); opacity: 0.167;" />
<path d="M 1350.115,860.736 A 656.600,656.600 0.00 0,1 1353.9,859.9 L 1353.9,859.9 1359.7,883.5 1366.4,907.1 1374.0,930.6 1382.5,953.7 1391.9,976.5 1402.1,998.9 1413.2,1020.7 1425.2,1041.8 1438.0,1062.2 1451.6,1081.8 1466.0,1100.5 1481.2,1118.3 1497.2,1135.1 1513.9,1150.8 1531.4,1165.4 1549.5,1178.9 1568.3,1191.2 1587.7,1202.2 1607.7,1212.0 1628.3,1220.6 1649.3,1227.9 1670.9,1233.8 1692.8,1238.5 1715.2,1241.9 1737.8,1243.9 1760.8,1244.7 1783.9,1244.2 1807.3,1242.5 1830.7,1239.5 1854.2,1235.3 1877.7,1230.0 1901.1,1223.6 1924.4,1216.1 1947.5,1207.6 1970.2,1198.2 1992.6,1187.9 2014.6,1176.7 2036.1,1164.8 2057.0,1152.3  A 656.600,656.600 0.00 0,1 2106.6,1248.7 L 2106.6,1248.7 2083.5,1257.8 2059.8,1266.1 2035.7,1273.6 2011.1,1280.2 1986.3,1285.9 1961.1,1290.6 1935.8,1294.3 1910.4,1297.0 1885.0,1298.5 1859.6,1298.9 1834.2,1298.2 1809.1,1296.4 1784.1,1293.4 1759.5,1289.1 1735.1,1283.7 1711.1,1277.1 1687.6,1269.4 1664.5,1260.4 1642.0,1250.3 1620.0,1239.0 1598.6,1226.6 1577.9,1213.1 1557.8,1198.5 1538.5,1182.9 1519.9,1166.3 1502.0,1148.7 1485.0,1130.2 1468.8,1110.8 1453.5,1090.7 1439.0,1069.8 1425.4,1048.2 1412.7,1026.0 1401.0,1003.3 1390.1,980.2 1380.2,956.7 1371.3,932.9 1363.3,908.9 1356.2,884.8 1350.1,860.7  Z" style="stroke-width: 0.0;  fill: rgb(0,0,0); opacity: 0.167;" />
<path d="M 1075.640,998.959 A 656.600,656.600 0.00 0,1 1144.1,948.2 L 1144.1,948.2 1158.8,971.8 1173.0,996.2 1186.8,1021.4 1200.1,1047.5 1212.9,1074.3 1225.2,1101.8 1237.0,1130.0 1248.3,1158.8 1259.1,1188.2 1269.3,1218.1 1278.9,1248.6 1288.0,1279.4 1296.5,1310.7 1304.4,1342.4 1311.8,1374.4 1318.5,1406.6 1324.6,1439.1 1330.1,1471.8 1335.0,1504.6 1339.3,1537.5 1342.9,1570.5 1345.9,1603.5 1348.2,1636.4 1349.9,1669.3 1350.9,1702.1 1351.3,1734.8 1351.0,1767.2 1350.1,1799.3 1348.5,1831.2 1346.2,1862.8 1343.3,1893.9 1339.7,1924.6 1335.4,1954.9 1330.5,1984.7 1324.9,2013.8 1318.7,2042.4 1311.8,2070.4 1304.2,2097.6 1296.0,2124.1  A 656.600,656.600 0.00 0,1 1216.9,2092.4 L 1216.9,2092.4 1228.0,2068.1 1238.5,2042.9 1248.3,2017.0 1257.4,1990.4 1265.8,1963.2 1273.4,1935.4 1280.3,1907.0 1286.4,1878.1 1291.7,1848.8 1296.2,1819.0 1299.8,1789.0 1302.7,1758.6 1304.7,1728.0 1305.8,1697.2 1306.1,1666.2 1305.5,1635.1 1304.1,1604.0 1301.8,1572.9 1298.6,1541.8 1294.6,1510.8 1289.8,1479.9 1284.1,1449.2 1277.5,1418.7 1270.2,1388.5 1262.1,1358.6 1253.1,1329.1 1243.4,1300.0 1233.0,1271.4 1221.8,1243.2 1209.9,1215.6 1197.3,1188.6 1184.1,1162.2 1170.2,1136.5 1155.8,1111.5 1140.7,1087.3 1125.2,1063.9 1109.1,1041.3 1092.6,1019.7 1075.6,999.0  Z" style="stroke-width: 0.0;  fill: rgb(0,0,0); opacity: 0.167;" />
<path d="M 1434.195,2153.294 A 656.600,656.600 0.00 0,1 1331.3,2134.6 L 1331.3,2134.6 1337.2,2112.7 1343.2,2091.0 1349.2,2069.6 1355.3,2048.8 1361.4,2028.6 1367.4,2009.2 1373.3,1990.7 1379.2,1973.3 1384.9,1956.9 1390.4,1941.8 1395.8,1928.0 1401.0,1915.6 1406.0,1904.7 1410.8,1895.3 1415.3,1887.5 1419.5,1881.3 1423.5,1876.8 1427.2,1873.9 1430.5,1872.8 1433.6,1873.3 1436.4,1875.6 1438.8,1879.5 1440.9,1885.2 1442.7,1892.5 1444.2,1901.4 1445.3,1911.9 1446.1,1923.8 1446.6,1937.3 1446.8,1952.1 1446.7,1968.2 1446.3,1985.5 1445.6,2003.9 1444.6,2023.3 1443.4,2043.5 1442.0,2064.6 1440.3,2086.2 1438.4,2108.3 1436.4,2130.7 1434.2,2153.3  A 656.600,656.600 0.00 0,1 1331.3,2134.6 L 1331.3,2134.6 1337.2,2112.7 1343.2,2091.0 1349.2,2069.6 1355.3,2048.8 1361.4,2028.6 1367.4,2009.2 1373.3,1990.7 1379.2,1973.3 1384.9,1956.9 1390.4,1941.8 1395.8,1928.0 1401.0,1915.6 1406.0,1904.7 1410.8,1895.3 1415.3,1887.5 1419.5,1881.3 1423.5,1876.8 1427.2,1873.9 1430.5,1872.8 1433.6,1873.3 1436.4,1875.6 1438.8,1879.5 1440.9,1885.2 1442.7,1892.5 1444.2,1901.4 1445.3,1911.9 1446.1,1923.8 1446.6,1937.3 1446.8,1952.1 1446.7,1968.2 1446.3,1985.5 1445.6,2003.9 1444.6,2023.3 1443.4,2043.5 1442.0,2064.6 1440.3,2086.2 1438.4,2108.3 1436.4,2130.7 1434.2,2153.3  Z" style="stroke-width: 0.0;  fill: rgb(0,0,0); opacity: 0.167;" />
<path d="M 1220.363,905.924 A 656.600,656.600 0.00 0,1 1314.5,870.1 L 1314.5,870.1 1320.9,891.9 1327.4,913.4 1333.7,934.6 1340.0,955.3 1346.2,975.4 1352.2,994.7 1358.0,1013.2 1363.5,1030.6 1368.8,1046.9 1373.8,1062.1 1378.5,1075.9 1382.9,1088.4 1386.9,1099.4 1390.5,1108.9 1393.7,1116.9 1396.5,1123.3 1398.9,1128.0 1400.8,1131.1 1402.3,1132.5 1403.4,1132.2 1404.0,1130.2 1404.2,1126.6 1403.9,1121.3 1403.2,1114.4 1402.0,1105.9 1400.5,1095.8 1398.5,1084.2 1396.1,1071.3 1393.3,1056.9 1390.2,1041.3 1386.8,1024.5 1383.0,1006.6 1378.9,987.7 1374.6,967.9 1370.0,947.4 1365.3,926.3 1360.3,904.7 1355.3,882.8 1350.1,860.7  A 656.600,656.600 0.00 0,1 1353.9,859.9 L 1353.9,859.9 1358.9,882.0 1363.6,904.1 1368.1,925.8 1372.2,947.2 1376.1,967.9 1379.5,988.0 1382.5,1007.3 1385.1,1025.7 1387.2,1043.0 1388.8,1059.1 1389.9,1074.1 1390.5,1087.7 1390.5,1100.0 1390.0,1110.8 1388.9,1120.2 1387.2,1128.0 1384.9,1134.2 1382.1,1138.9 1378.7,1141.9 1374.7,1143.2 1370.2,1143.0 1365.1,1141.1 1359.5,1137.6 1353.3,1132.5 1346.7,1125.8 1339.6,1117.6 1332.0,1107.9 1324.1,1096.8 1315.7,1084.4 1307.0,1070.6 1298.0,1055.7 1288.7,1039.7 1279.2,1022.6 1269.5,1004.7 1259.7,986.0 1249.9,966.6 1240.0,946.7 1230.1,926.4 1220.4,905.9  Z" style="stroke-width: 0.0;  fill: rgb(0,0,0); opacity: 0.167;" />
<path d="M 1434.195,2153.294 A 656.600,656.600 0.00 0,1 1331.3,2134.6 L 1331.3,2134.6 1337.6,2112.1 1344.5,2089.9 1351.9,2067.9 1359.9,2046.5 1368.5,2025.7 1377.5,2005.5 1387.1,1986.3 1397.2,1967.9 1407.8,1950.6 1418.8,1934.4 1430.3,1919.4 1442.2,1905.8 1454.4,1893.4 1467.1,1882.5 1480.0,1873.0 1493.3,1865.0 1506.9,1858.6 1520.8,1853.7 1534.8,1850.4 1549.1,1848.6 1563.6,1848.5 1578.2,1850.0 1593.0,1853.0 1607.8,1857.6 1622.6,1863.8 1637.5,1871.4 1652.3,1880.5 1667.1,1891.0 1681.8,1902.8 1696.3,1915.9 1710.7,1930.2 1724.8,1945.7 1738.7,1962.1 1752.3,1979.5 1765.6,1997.8 1778.4,2016.7 1790.8,2036.2 1802.8,2056.2 1814.2,2076.5  A 656.600,656.600 0.00 0,1 1715.0,2120.4 L 1715.0,2120.4 1707.4,2098.8 1699.4,2077.5 1691.1,2056.6 1682.7,2036.3 1674.0,2016.6 1665.1,1997.7 1656.1,1979.7 1647.0,1962.8 1637.7,1947.0 1628.5,1932.5 1619.2,1919.3 1610.0,1907.4 1600.7,1897.0 1591.5,1888.2 1582.5,1880.9 1573.5,1875.2 1564.6,1871.1 1555.9,1868.7 1547.4,1868.0 1539.0,1869.0 1530.8,1871.7 1522.9,1876.0 1515.2,1882.0 1507.8,1889.6 1500.7,1898.8 1493.8,1909.6 1487.2,1921.8 1480.9,1935.5 1475.0,1950.5 1469.3,1966.8 1464.0,1984.3 1459.0,2002.8 1454.4,2022.4 1450.2,2042.8 1446.2,2064.0 1442.7,2085.7 1439.5,2108.0 1436.7,2130.6 1434.2,2153.3  Z" style="stroke-width: 0.0;  fill: rgb(0,0,0); opacity: 0.167;" />
<path d="M 1350.115,860.736 A 656.600,656.600 0.00 0,1 1353.9,859.9 L 1353.9,859.9 1358.9,882.0 1363.6,904.0 1368.1,925.8 1372.3,947.1 1376.2,967.8 1379.8,987.9 1382.9,1007.1 1385.6,1025.4 1387.8,1042.6 1389.6,1058.8 1390.9,1073.6 1391.6,1087.2 1391.9,1099.4 1391.5,1110.1 1390.7,1119.3 1389.2,1127.0 1387.2,1133.1 1384.7,1137.6 1381.6,1140.5 1377.9,1141.7 1373.7,1141.3 1369.0,1139.3 1363.7,1135.6 1357.9,1130.3 1351.7,1123.5 1344.9,1115.1 1337.8,1105.2 1330.2,1093.9 1322.3,1081.3 1314.0,1067.4 1305.4,1052.3 1296.5,1036.1 1287.4,1018.8 1278.2,1000.7 1268.8,981.8 1259.3,962.2 1249.8,942.2 1240.3,921.7 1230.9,901.1  A 656.600,656.600 0.00 0,1 1303.4,873.5 L 1303.4,873.5 1310.2,895.1 1317.0,916.6 1323.8,937.6 1330.5,958.2 1337.1,978.2 1343.5,997.4 1349.8,1015.7 1355.8,1033.0 1361.5,1049.2 1366.9,1064.2 1372.0,1077.9 1376.8,1090.2 1381.2,1101.1 1385.2,1110.5 1388.8,1118.4 1392.0,1124.6 1394.8,1129.2 1397.1,1132.2 1398.9,1133.5 1400.3,1133.1 1401.2,1131.1 1401.7,1127.3 1401.7,1122.0 1401.3,1115.0 1400.4,1106.4 1399.1,1096.2 1397.3,1084.6 1395.1,1071.6 1392.5,1057.2 1389.6,1041.5 1386.3,1024.6 1382.6,1006.7 1378.6,987.8 1374.4,968.0 1369.9,947.4 1365.2,926.3 1360.3,904.7 1355.3,882.8 1350.1,860.7  Z" style="stroke-width: 0.0;  fill: rgb(0,0,0); opacity: 0.167;" />
<path d="M 1390.015,852.677 A 656.600,656.600 0.00 0,1 1463.2,844.4 L 1463.2,844.4 1465.1,871.1 1468.1,898.1 1471.9,925.4 1476.7,953.0 1482.5,980.9 1489.2,1008.8 1496.9,1036.9 1505.5,1065.0 1515.0,1093.2 1525.4,1121.2 1536.7,1149.2 1548.9,1177.0 1562.0,1204.6 1575.9,1232.0 1590.6,1259.1 1606.2,1285.8 1622.5,1312.1 1639.6,1338.1 1657.5,1363.5 1676.0,1388.5 1695.3,1413.0 1715.2,1436.8 1735.7,1460.1 1756.8,1482.7 1778.5,1504.6 1800.7,1525.8 1823.4,1546.2 1846.5,1565.9 1870.0,1584.8 1893.9,1602.9 1918.1,1620.1 1942.5,1636.4 1967.2,1651.8 1992.1,1666.3 2017.1,1679.9 2042.1,1692.5 2067.2,1704.0 2092.2,1714.6 2117.1,1724.2  A 656.600,656.600 0.00 0,1 2071.8,1822.7 L 2071.8,1822.7 2047.9,1808.7 2023.9,1793.7 2000.0,1777.7 1976.1,1760.9 1952.2,1743.1 1928.5,1724.5 1905.0,1705.0 1881.6,1684.8 1858.4,1663.8 1835.4,1642.0 1812.7,1619.6 1790.3,1596.5 1768.2,1572.8 1746.4,1548.5 1725.1,1523.6 1704.1,1498.2 1683.6,1472.3 1663.5,1445.9 1643.9,1419.1 1624.8,1392.0 1606.2,1364.5 1588.3,1336.7 1570.8,1308.6 1554.0,1280.2 1537.9,1251.7 1522.3,1223.0 1507.5,1194.2 1493.3,1165.3 1479.9,1136.3 1467.2,1107.3 1455.3,1078.4 1444.2,1049.5 1433.9,1020.8 1424.4,992.2 1415.7,963.7 1408.0,935.5 1401.1,907.6 1395.1,880.0 1390.0,852.7  Z" style="stroke-width: 0.0;  fill: rgb(0,0,0); opacity: 0.167;" />
<path d="M 2118.462,1720.517 A 656.600,656.600 0.00 0,1 2069.9,1826.1 L 2069.9,1826.1 2048.8,1814.4 2027.1,1803.5 2005.0,1793.3 1982.6,1783.9 1959.9,1775.4 1937.0,1767.9 1914.0,1761.3 1891.0,1755.9 1868.0,1751.6 1845.2,1748.4 1822.5,1746.5 1800.0,1745.8 1777.9,1746.3 1756.1,1748.1 1734.7,1751.2 1713.8,1755.7 1693.3,1761.4 1673.5,1768.4 1654.2,1776.7 1635.6,1786.3 1617.6,1797.1 1600.4,1809.2 1583.9,1822.5 1568.1,1837.0 1553.1,1852.6 1539.0,1869.3 1525.7,1887.0 1513.2,1905.7 1501.6,1925.3 1490.9,1945.7 1481.1,1966.9 1472.1,1988.8 1464.1,2011.3 1456.9,2034.3 1450.6,2057.7 1445.2,2081.4 1440.7,2105.3 1437.0,2129.3 1434.2,2153.3  A 656.600,656.600 0.00 0,1 1331.3,2134.6 L 1331.3,2134.6 1338.2,2110.5 1346.1,2086.3 1354.9,2062.3 1364.7,2038.5 1375.4,2014.9 1387.1,1991.6 1399.8,1968.8 1413.3,1946.5 1427.8,1924.7 1443.2,1903.6 1459.4,1883.2 1476.5,1863.5 1494.4,1844.6 1513.1,1826.6 1532.6,1809.6 1552.8,1793.4 1573.7,1778.3 1595.3,1764.1 1617.5,1751.1 1640.3,1739.1 1663.7,1728.2 1687.5,1718.4 1711.9,1709.7 1736.6,1702.2 1761.7,1695.9 1787.2,1690.6 1812.8,1686.6 1838.7,1683.6 1864.8,1681.8 1890.9,1681.1 1917.0,1681.5 1943.1,1683.0 1969.0,1685.5 1994.8,1689.1 2020.4,1693.6 2045.6,1699.0 2070.4,1705.3 2094.7,1712.5 2118.5,1720.5  Z" style="stroke-width: 0.0;  fill: rgb(0,0,0); opacity: 0.167;" />
<path d="M 1390.015,852.677 A 656.600,656.600 0.00 0,1 1463.2,844.4 L 1463.2,844.4 1464.2,867.6 1464.7,890.7 1464.6,913.6 1463.9,936.2 1462.5,958.3 1460.5,979.9 1457.8,1000.8 1454.4,1020.9 1450.3,1040.1 1445.5,1058.3 1439.9,1075.4 1433.7,1091.3 1426.7,1106.1 1419.0,1119.5 1410.6,1131.6 1401.5,1142.3 1391.7,1151.6 1381.3,1159.4 1370.1,1165.7 1358.4,1170.5 1346.0,1173.8 1333.1,1175.6 1319.6,1175.8 1305.6,1174.6 1291.1,1171.8 1276.2,1167.6 1260.9,1162.0 1245.3,1155.0 1229.3,1146.7 1213.1,1137.1 1196.8,1126.2 1180.3,1114.3 1163.7,1101.3 1147.1,1087.3 1130.7,1072.5 1114.3,1056.9 1098.2,1040.6 1082.3,1023.8 1066.8,1006.6  A 656.600,656.600 0.00 0,1 1154.0,942.0 L 1154.0,942.0 1166.1,961.3 1178.5,980.3 1191.0,998.9 1203.6,1016.9 1216.2,1034.2 1228.8,1050.7 1241.2,1066.3 1253.5,1080.8 1265.5,1094.3 1277.3,1106.5 1288.8,1117.5 1299.9,1127.1 1310.6,1135.3 1320.9,1142.0 1330.6,1147.2 1339.9,1150.9 1348.7,1153.0 1356.9,1153.6 1364.5,1152.5 1371.5,1149.9 1378.0,1145.6 1383.7,1139.8 1388.9,1132.4 1393.4,1123.5 1397.3,1113.1 1400.5,1101.2 1403.1,1088.0 1405.1,1073.5 1406.4,1057.7 1407.2,1040.7 1407.3,1022.6 1406.9,1003.6 1405.9,983.7 1404.4,963.0 1402.4,941.7 1399.9,919.9 1397.0,897.7 1393.7,875.2 1390.0,852.7  Z" style="stroke-width: 0.0;  fill: rgb(0,0,0); opacity: 0.167;" />
<path d="M 1075.640,998.959 A 656.600,656.600 0.00 0,1 1144.1,948.2 L 1144.1,948.2 1160.0,972.2 1176.8,996.2 1194.5,1020.2 1212.9,1044.2 1232.2,1068.2 1252.2,1092.2 1272.9,1116.2 1294.3,1140.1 1316.3,1163.9 1338.9,1187.7 1362.1,1211.3 1385.8,1234.8 1410.0,1258.2 1434.7,1281.4 1459.8,1304.4 1485.2,1327.2 1511.1,1349.8 1537.3,1372.1 1563.8,1394.1 1590.5,1415.9 1617.5,1437.3 1644.7,1458.3 1672.1,1479.0 1699.7,1499.3 1727.3,1519.1 1755.1,1538.5 1782.9,1557.4 1810.8,1575.7 1838.7,1593.6 1866.6,1610.8 1894.5,1627.5 1922.2,1643.5 1949.9,1658.8 1977.5,1673.5 2005.0,1687.4 2032.3,1700.6 2059.4,1712.9 2086.4,1724.4 2113.1,1735.1  A 656.600,656.600 0.00 0,1 2077.5,1812.5 L 2077.5,1812.5 2051.4,1798.1 2025.2,1782.9 1998.8,1767.0 1972.3,1750.4 1945.7,1733.2 1918.9,1715.5 1892.0,1697.2 1864.9,1678.5 1837.8,1659.2 1810.6,1639.6 1783.2,1619.6 1755.9,1599.2 1728.4,1578.5 1701.0,1557.6 1673.5,1536.3 1646.0,1514.9 1618.5,1493.2 1591.1,1471.3 1563.8,1449.3 1536.5,1427.2 1509.3,1405.0 1482.3,1382.6 1455.5,1360.2 1428.8,1337.7 1402.4,1315.1 1376.3,1292.6 1350.4,1269.9 1324.8,1247.3 1299.6,1224.7 1274.8,1202.1 1250.5,1179.5 1226.5,1156.9 1203.1,1134.3 1180.3,1111.7 1158.0,1089.1 1136.4,1066.6 1115.4,1044.0 1095.1,1021.5 1075.6,999.0  Z" style="stroke-width: 0.0;  fill: rgb(0,0,0); opacity: 0.167;" />
<path d="M 2113.081,1735.063 A 656.600,656.600 0.00 0,1 2077.5,1812.5 L 2077.5,1812.5 2051.4,1798.1 2025.2,1782.9 1998.8,1767.0 1972.3,1750.4 1945.7,1733.2 1918.9,1715.5 1892.0,1697.2 1864.9,1678.5 1837.8,1659.2 1810.6,1639.6 1783.2,1619.6 1755.9,1599.2 1728.4,1578.5 1701.0,1557.6 1673.5,1536.3 1646.0,1514.9 1618.5,1493.2 1591.1,1471.3 1563.8,1449.3 1536.5,1427.2 1509.3,1405.0 1482.3,1382.6 1455.5,1360.2 1428.8,1337.7 1402.4,1315.1 1376.3,1292.6 1350.4,1269.9 1324.8,1247.3 1299.6,1224.7 1274.8,1202.1 1250.5,1179.5 1226.5,1156.9 1203.1,1134.3 1180.3,1111.7 1158.0,1089.1 1136.4,1066.6 1115.4,1044.0 1095.1,1021.5 1075.6,999.0  A 656.600,656.600 0.00 0,1 1144.1,948.2 L 1144.1,948.2 1160.0,972.2 1176.8,996.2 1194.5,1020.2 1212.9,1044.2 1232.2,1068.2 1252.2,1092.2 1272.9,1116.2 1294.3,1140.1 1316.3,1163.9 1338.9,1187.7 1362.1,1211.3 1385.8,1234.8 1410.0,1258.2 1434.7,1281.4 1459.8,1304.4 1485.2,1327.2 1511.1,1349.8 1537.3,1372.1 1563.8,1394.1 1590.5,1415.9 1617.5,1437.3 1644.7,1458.3 1672.1,1479.0 1699.7,1499.3 1727.3,1519.1 1755.1,1538.5 1782.9,1557.4 1810.8,1575.7 1838.7,1593.6 1866.6,1610.8 1894.5,1627.5 1922.2,1643.5 1949.9,1658.8 1977.5,1673.5 2005.0,1687.4 2032.3,1700.6 2059.4,1712.9 2086.4,1724.4 2113.1,1735.1  Z" style="stroke-width: 0.0;  fill: rgb(0,0,0); opacity: 0.167;" />
<path d="M 1434.195,2153.294 A 656.600,656.600 0.00 0,1 1331.3,2134.6 L 1331.3,2134.6 1339.0,2107.3 1347.5,2079.8 1356.9,2052.0 1367.2,2024.0 1378.3,1995.7 1390.1,1967.3 1402.8,1938.8 1416.1,1910.1 1430.2,1881.4 1444.9,1852.7 1460.3,1823.9 1476.3,1795.2 1492.9,1766.5 1510.1,1737.9 1527.9,1709.4 1546.1,1681.0 1564.9,1652.9 1584.1,1625.0 1603.8,1597.3 1623.9,1569.9 1644.4,1542.8 1665.3,1516.1 1686.5,1489.8 1708.1,1463.9 1730.0,1438.4 1752.1,1413.5 1774.5,1389.0 1797.1,1365.1 1820.0,1341.8 1843.0,1319.2 1866.2,1297.1 1889.5,1275.8 1913.0,1255.2 1936.5,1235.4 1960.1,1216.4 1983.8,1198.2 2007.5,1180.9 2031.2,1164.5 2054.9,1149.0  A 656.600,656.600 0.00 0,1 2108.1,1252.3 L 2108.1,1252.3 2083.3,1262.9 2058.3,1274.6 2033.4,1287.2 2008.5,1300.8 1983.6,1315.3 1958.8,1330.8 1934.2,1347.2 1909.8,1364.5 1885.6,1382.6 1861.8,1401.5 1838.2,1421.3 1815.0,1441.8 1792.2,1463.0 1769.8,1484.9 1747.9,1507.6 1726.5,1530.8 1705.7,1554.7 1685.4,1579.1 1665.7,1604.1 1646.7,1629.6 1628.3,1655.5 1610.6,1681.9 1593.6,1708.6 1577.3,1735.7 1561.8,1763.1 1547.0,1790.7 1533.1,1818.6 1520.0,1846.7 1507.7,1874.8 1496.3,1903.1 1485.8,1931.4 1476.1,1959.7 1467.3,1987.9 1459.5,2016.1 1452.5,2044.0 1446.5,2071.8 1441.5,2099.3 1437.4,2126.5 1434.2,2153.3  Z" style="stroke-width: 0.0;  fill: rgb(0,0,0); opacity: 0.167;" />
<path d="M 1434.195,2153.294 A 656.600,656.600 0.00 0,1 1331.3,2134.6 L 1331.3,2134.6 1337.9,2108.0 1343.8,2080.7 1348.9,2052.8 1353.3,2024.3 1356.9,1995.3 1359.8,1965.7 1362.0,1935.7 1363.3,1905.3 1364.0,1874.6 1363.8,1843.5 1362.9,1812.2 1361.3,1780.6 1358.9,1748.9 1355.7,1717.0 1351.8,1685.1 1347.2,1653.1 1341.8,1621.1 1335.7,1589.2 1328.9,1557.4 1321.3,1525.7 1313.1,1494.2 1304.2,1463.0 1294.6,1432.0 1284.4,1401.4 1273.5,1371.1 1262.0,1341.2 1249.9,1311.8 1237.2,1282.9 1223.9,1254.5 1210.0,1226.6 1195.6,1199.4 1180.7,1172.9 1165.3,1147.1 1149.5,1122.0 1133.1,1097.7 1116.4,1074.2 1099.3,1051.6 1081.8,1029.9 1063.9,1009.1  A 656.600,656.600 0.00 0,1 1157.3,940.0 L 1157.3,940.0 1171.9,964.6 1186.2,990.1 1200.1,1016.4 1213.7,1043.4 1226.9,1071.1 1239.7,1099.5 1252.3,1128.6 1264.4,1158.2 1276.2,1188.3 1287.6,1219.0 1298.7,1250.1 1309.4,1281.7 1319.8,1313.6 1329.8,1345.9 1339.4,1378.5 1348.6,1411.3 1357.5,1444.4 1366.0,1477.7 1374.0,1511.1 1381.7,1544.7 1388.9,1578.3 1395.7,1611.9 1402.1,1645.6 1408.0,1679.2 1413.5,1712.7 1418.5,1746.1 1423.0,1779.4 1427.1,1812.5 1430.6,1845.3 1433.6,1877.9 1436.0,1910.2 1437.9,1942.2 1439.3,1973.7 1440.0,2004.9 1440.1,2035.6 1439.6,2065.8 1438.5,2095.6 1436.7,2124.7 1434.2,2153.3  Z" style="stroke-width: 0.0;  fill: rgb(0,0,0); opacity: 0.167;" />
<path d="M 884.860,1270.377 A 656.600,656.600 0.00 0,1 935.0,1165.6 L 935.0,1165.6 955.2,1177.2 975.8,1188.3 996.7,1198.7 1017.6,1208.3 1038.5,1217.2 1059.3,1225.1 1080.0,1232.1 1100.4,1238.0 1120.4,1242.8 1140.1,1246.5 1159.2,1249.1 1177.8,1250.4 1195.8,1250.4 1213.0,1249.2 1229.6,1246.7 1245.4,1242.9 1260.3,1237.8 1274.4,1231.4 1287.6,1223.6 1299.9,1214.6 1311.2,1204.3 1321.6,1192.8 1330.9,1180.1 1339.3,1166.2 1346.7,1151.1 1353.0,1135.0 1358.3,1117.8 1362.6,1099.7 1366.0,1080.7 1368.3,1060.8 1369.7,1040.3 1370.1,1019.0 1369.7,997.2 1368.4,975.0 1366.2,952.4 1363.2,929.5 1359.5,906.6 1355.1,883.6 1350.1,860.7  A 656.600,656.600 0.00 0,1 1353.9,859.9 L 1353.9,859.9 1358.8,883.1 1363.0,906.6 1366.4,930.1 1369.0,953.7 1370.7,977.1 1371.5,1000.3 1371.3,1023.1 1370.2,1045.6 1368.0,1067.5 1364.8,1088.9 1360.5,1109.6 1355.2,1129.5 1348.7,1148.7 1341.2,1166.9 1332.7,1184.3 1323.0,1200.7 1312.3,1216.0 1300.5,1230.3 1287.7,1243.5 1273.9,1255.6 1259.1,1266.6 1243.4,1276.3 1226.7,1284.9 1209.2,1292.3 1190.9,1298.5 1171.8,1303.5 1152.0,1307.3 1131.5,1310.0 1110.4,1311.5 1088.8,1311.8 1066.8,1311.1 1044.4,1309.3 1021.7,1306.4 998.8,1302.6 975.8,1297.8 952.8,1292.1 929.9,1285.6 907.2,1278.3 884.9,1270.4  Z" style="stroke-width: 0.0;  fill: rgb(0,0,0); opacity: 0.167;" />
<path d="M 944.041,1849.332 A 656.600,656.600 0.00 0,1 897.2,1760.2 L 897.2,1760.2 919.3,1751.1 941.8,1742.7 964.6,1735.0 987.5,1728.2 1010.6,1722.3 1033.7,1717.4 1056.7,1713.4 1079.5,1710.6 1102.1,1708.8 1124.3,1708.2 1146.2,1708.7 1167.6,1710.4 1188.5,1713.4 1208.8,1717.6 1228.5,1723.0 1247.4,1729.7 1265.7,1737.5 1283.1,1746.7 1299.7,1757.0 1315.5,1768.6 1330.4,1781.3 1344.4,1795.2 1357.4,1810.2 1369.5,1826.3 1380.6,1843.4 1390.7,1861.4 1399.9,1880.5 1408.0,1900.3 1415.1,1921.0 1421.2,1942.4 1426.4,1964.5 1430.6,1987.1 1433.8,2010.2 1436.0,2033.7 1437.4,2057.5 1437.8,2081.4 1437.4,2105.5 1436.2,2129.5 1434.2,2153.3  A 656.600,656.600 0.00 0,1 1335.1,2135.5 L 1335.1,2135.5 1340.6,2112.9 1345.6,2090.2 1349.9,2067.4 1353.4,2044.8 1356.2,2022.5 1358.2,2000.5 1359.4,1979.0 1359.6,1958.1 1358.9,1937.9 1357.3,1918.4 1354.7,1899.7 1351.1,1882.0 1346.5,1865.2 1340.9,1849.5 1334.3,1834.9 1326.6,1821.5 1318.0,1809.2 1308.4,1798.2 1297.7,1788.5 1286.2,1780.0 1273.7,1772.8 1260.2,1767.0 1246.0,1762.4 1230.8,1759.2 1214.9,1757.3 1198.2,1756.7 1180.9,1757.4 1162.9,1759.4 1144.3,1762.5 1125.3,1766.8 1105.8,1772.3 1085.9,1778.9 1065.8,1786.4 1045.4,1795.0 1025.0,1804.4 1004.5,1814.6 984.1,1825.6 963.9,1837.2 944.0,1849.3  Z" style="stroke-width: 0.0;  fill: rgb(0,0,0); opacity: 0.167;" />
<path d="M 2056.988,1152.311 A 656.600,656.600 0.00 0,1 2106.6,1248.7 L 2106.6,1248.7 2081.8,1259.5 2057.0,1271.3 2032.1,1284.1 2007.2,1297.8 1982.4,1312.5 1957.7,1328.1 1933.1,1344.7 1908.8,1362.1 1884.7,1380.3 1860.8,1399.4 1837.3,1419.3 1814.2,1439.9 1791.4,1461.3 1769.1,1483.3 1747.3,1506.1 1726.0,1529.4 1705.2,1553.4 1684.9,1578.0 1665.3,1603.0 1646.3,1628.6 1627.9,1654.6 1610.3,1681.1 1593.3,1707.9 1577.1,1735.1 1561.6,1762.5 1546.9,1790.2 1533.0,1818.2 1519.9,1846.3 1507.7,1874.5 1496.2,1902.8 1485.7,1931.2 1476.1,1959.5 1467.3,1987.8 1459.5,2015.9 1452.5,2043.9 1446.5,2071.7 1441.5,2099.2 1437.4,2126.5 1434.2,2153.3  A 656.600,656.600 0.00 0,1 1331.3,2134.6 L 1331.3,2134.6 1339.0,2107.3 1347.5,2079.8 1356.9,2052.1 1367.2,2024.1 1378.3,1995.9 1390.1,1967.5 1402.8,1939.0 1416.2,1910.4 1430.2,1881.7 1445.0,1853.0 1460.4,1824.3 1476.5,1795.6 1493.1,1766.9 1510.3,1738.4 1528.1,1710.0 1546.4,1681.7 1565.3,1653.6 1584.6,1625.8 1604.3,1598.2 1624.5,1570.9 1645.1,1543.9 1666.0,1517.3 1687.3,1491.0 1709.0,1465.2 1730.9,1439.9 1753.1,1415.0 1775.6,1390.7 1798.3,1366.9 1821.2,1343.7 1844.3,1321.2 1867.6,1299.3 1891.0,1278.1 1914.6,1257.6 1938.2,1238.0 1961.9,1219.1 1985.7,1201.0 2009.4,1183.9 2033.2,1167.6 2057.0,1152.3  Z" style="stroke-width: 0.0;  fill: rgb(0,0,0); opacity: 0.167;" />
<path d="M 889.025,1259.516 A 656.600,656.600 0.00 0,1 929.1,1175.6 L 929.1,1175.6 949.0,1186.8 968.9,1197.6 988.7,1207.9 1008.3,1217.8 1027.5,1227.1 1046.2,1235.7 1064.4,1243.6 1081.9,1250.7 1098.7,1256.9 1114.6,1262.3 1129.5,1266.7 1143.5,1270.1 1156.4,1272.5 1168.2,1273.9 1178.8,1274.2 1188.3,1273.4 1196.4,1271.5 1203.3,1268.5 1208.9,1264.4 1213.2,1259.2 1216.2,1252.9 1217.8,1245.6 1218.1,1237.2 1217.0,1227.8 1214.7,1217.4 1211.1,1206.1 1206.3,1193.9 1200.3,1180.8 1193.1,1167.0 1184.8,1152.4 1175.5,1137.1 1165.2,1121.3 1154.0,1105.0 1141.9,1088.2 1129.2,1071.1 1115.8,1053.8 1101.8,1036.4 1087.4,1018.9 1072.7,1001.5  A 656.600,656.600 0.00 0,1 1147.4,946.1 L 1147.4,946.1 1159.6,965.7 1171.3,985.6 1182.4,1005.5 1192.9,1025.5 1202.5,1045.3 1211.4,1064.9 1219.3,1084.3 1226.3,1103.2 1232.2,1121.7 1237.0,1139.6 1240.7,1156.9 1243.2,1173.5 1244.4,1189.3 1244.5,1204.4 1243.2,1218.6 1240.7,1231.8 1236.9,1244.2 1231.8,1255.5 1225.4,1265.8 1217.8,1275.1 1208.8,1283.4 1198.7,1290.6 1187.3,1296.6 1174.7,1301.6 1161.1,1305.6 1146.3,1308.4 1130.5,1310.2 1113.7,1310.9 1096.0,1310.6 1077.5,1309.3 1058.3,1307.0 1038.4,1303.8 1017.9,1299.7 996.9,1294.7 975.6,1289.0 954.0,1282.6 932.3,1275.4 910.6,1267.7 889.0,1259.5  Z" style="stroke-width: 0.0;  fill: rgb(0,0,0); opacity: 0.167;" />
<path d="M 2117.149,1724.166 A 656.600,656.600 0.00 0,1 2071.8,1822.7 L 2071.8,1822.7 2047.9,1808.7 2023.9,1793.7 2000.0,1777.7 1976.1,1760.9 1952.2,1743.1 1928.5,1724.5 1905.0,1705.0 1881.6,1684.8 1858.4,1663.8 1835.4,1642.0 1812.7,1619.6 1790.3,1596.5 1768.2,1572.8 1746.4,1548.5 1725.1,1523.6 1704.1,1498.2 1683.6,1472.3 1663.5,1445.9 1643.9,1419.1 1624.8,1392.0 1606.2,1364.5 1588.3,1336.7 1570.8,1308.6 1554.0,1280.2 1537.9,1251.7 1522.3,1223.0 1507.5,1194.2 1493.3,1165.3 1479.9,1136.3 1467.2,1107.3 1455.3,1078.4 1444.2,1049.5 1433.9,1020.8 1424.4,992.2 1415.7,963.7 1408.0,935.5 1401.1,907.6 1395.1,880.0 1390.0,852.7  A 656.600,656.600 0.00 0,1 1463.2,844.4 L 1463.2,844.4 1465.1,871.1 1468.1,898.1 1471.9,925.4 1476.7,953.0 1482.5,980.9 1489.2,1008.8 1496.9,1036.9 1505.5,1065.0 1515.0,1093.2 1525.4,1121.2 1536.7,1149.2 1548.9,1177.0 1562.0,1204.6 1575.9,1232.0 1590.6,1259.1 1606.2,1285.8 1622.5,1312.1 1639.6,1338.1 1657.5,1363.5 1676.0,1388.5 1695.3,1413.0 1715.2,1436.8 1735.7,1460.1 1756.8,1482.7 1778.5,1504.6 1800.7,1525.8 1823.4,1546.2 1846.5,1565.9 1870.0,1584.8 1893.9,1602.9 1918.1,1620.1 1942.5,1636.4 1967.2,1651.8 1992.1,1666.3 2017.1,1679.9 2042.1,1692.5 2067.2,1704.0 2092.2,1714.6 2117.1,1724.2  Z" style="stroke-width: 0.0;  fill: rgb(0,0,0); opacity: 0.167;" />
<path d="M 1434.195,2153.294 A 656.600,656.600 0.00 0,1 1335.1,2135.5 L 1335.1,2135.5 1342.2,2106.8 1348.8,2077.5 1355.1,2047.5 1360.9,2017.0 1366.3,1985.9 1371.3,1954.3 1376.0,1922.3 1380.4,1889.8 1384.5,1856.9 1388.3,1823.7 1391.8,1790.1 1395.1,1756.2 1398.1,1722.1 1400.9,1687.8 1403.4,1653.2 1405.8,1618.5 1407.9,1583.7 1409.8,1548.7 1411.5,1513.7 1413.0,1478.7 1414.3,1443.7 1415.4,1408.8 1416.3,1373.9 1416.9,1339.1 1417.3,1304.5 1417.5,1270.0 1417.4,1235.7 1417.0,1201.7 1416.4,1168.0 1415.4,1134.5 1414.2,1101.4 1412.6,1068.7 1410.6,1036.4 1408.3,1004.5 1405.6,973.0 1402.4,942.1 1398.8,911.7 1394.7,881.9 1390.0,852.7  A 656.600,656.600 0.00 0,1 1463.2,844.4 L 1463.2,844.4 1464.7,875.1 1465.7,906.2 1466.4,937.7 1466.8,969.6 1466.9,1001.9 1466.7,1034.6 1466.4,1067.7 1465.8,1101.0 1465.2,1134.6 1464.4,1168.5 1463.5,1202.7 1462.6,1237.0 1461.7,1271.6 1460.7,1306.3 1459.8,1341.1 1458.9,1376.1 1458.0,1411.2 1457.1,1446.3 1456.3,1481.4 1455.5,1516.6 1454.8,1551.8 1454.1,1586.9 1453.4,1622.0 1452.8,1656.9 1452.2,1691.8 1451.6,1726.5 1451.0,1761.1 1450.4,1795.4 1449.7,1829.6 1449.0,1863.5 1448.2,1897.1 1447.2,1930.4 1446.1,1963.4 1444.8,1996.1 1443.3,2028.4 1441.6,2060.3 1439.5,2091.7 1437.0,2122.8 1434.2,2153.3  Z" style="stroke-width: 0.0;  fill: rgb(0,0,0); opacity: 0.167;" />
<path d="M 1434.195,2153.294 A 656.600,656.600 0.00 0,1 1331.3,2134.6 L 1331.3,2134.6 1338.2,2110.5 1346.1,2086.3 1354.9,2062.3 1364.7,2038.5 1375.4,2014.9 1387.1,1991.6 1399.8,1968.8 1413.3,1946.5 1427.8,1924.7 1443.2,1903.6 1459.4,1883.2 1476.5,1863.5 1494.4,1844.6 1513.1,1826.6 1532.6,1809.6 1552.8,1793.4 1573.7,1778.3 1595.3,1764.1 1617.5,1751.1 1640.3,1739.1 1663.7,1728.2 1687.5,1718.4 1711.9,1709.7 1736.6,1702.2 1761.7,1695.9 1787.2,1690.6 1812.8,1686.6 1838.7,1683.6 1864.8,1681.8 1890.9,1681.1 1917.0,1681.5 1943.1,1683.0 1969.0,1685.5 1994.8,1689.1 2020.4,1693.6 2045.6,1699.0 2070.4,1705.3 2094.7,1712.5 2118.5,1720.5  A 656.600,656.600 0.00 0,1 2069.9,1826.1 L 2069.9,1826.1 2048.8,1814.4 2027.1,1803.5 2005.0,1793.3 1982.6,1783.9 1959.9,1775.4 1937.0,1767.9 1914.0,1761.3 1891.0,1755.9 1868.0,1751.6 1845.2,1748.4 1822.5,1746.5 1800.0,1745.8 1777.9,1746.3 1756.1,1748.1 1734.7,1751.2 1713.8,1755.7 1693.3,1761.4 1673.5,1768.4 1654.2,1776.7 1635.6,1786.3 1617.6,1797.1 1600.4,1809.2 1583.9,1822.5 1568.1,1837.0 1553.1,1852.6 1539.0,1869.3 1525.7,1887.0 1513.2,1905.7 1501.6,1925.3 1490.9,1945.7 1481.1,1966.9 1472.1,1988.8 1464.1,2011.3 1456.9,2034.3 1450.6,2057.7 1445.2,2081.4 1440.7,2105.3 1437.0,2129.3 1434.2,2153.3  Z" style="stroke-width: 0.0;  fill: rgb(0,0,0); opacity: 0.167;" />
<path d="M 1295.993,2124.103 A 656.600,656.600 0.00 0,1 1213.4,2090.7 L 1213.4,2090.7 1224.6,2066.5 1235.2,2041.5 1245.1,2015.7 1254.3,1989.2 1262.8,1962.1 1270.6,1934.4 1277.5,1906.2 1283.7,1877.4 1289.1,1848.2 1293.6,1818.6 1297.3,1788.7 1300.2,1758.4 1302.2,1728.0 1303.4,1697.3 1303.6,1666.5 1303.1,1635.5 1301.6,1604.6 1299.2,1573.6 1296.0,1542.6 1292.0,1511.8 1287.0,1481.1 1281.2,1450.6 1274.6,1420.3 1267.1,1390.3 1258.9,1360.6 1249.8,1331.2 1239.9,1302.3 1229.3,1273.9 1217.9,1245.9 1205.9,1218.5 1193.1,1191.7 1179.7,1165.6 1165.6,1140.1 1150.9,1115.4 1135.7,1091.4 1119.9,1068.2 1103.6,1045.9 1086.9,1024.5 1069.8,1004.0  A 656.600,656.600 0.00 0,1 1150.7,944.0 L 1150.7,944.0 1165.1,967.8 1179.1,992.4 1192.6,1017.9 1205.6,1044.1 1218.2,1071.1 1230.2,1098.8 1241.7,1127.2 1252.8,1156.2 1263.2,1185.7 1273.2,1215.8 1282.6,1246.4 1291.4,1277.4 1299.7,1308.8 1307.4,1340.6 1314.5,1372.7 1321.0,1405.0 1326.9,1437.6 1332.2,1470.4 1336.9,1503.3 1340.9,1536.3 1344.4,1569.4 1347.2,1602.5 1349.4,1635.6 1350.9,1668.5 1351.8,1701.4 1352.1,1734.1 1351.7,1766.6 1350.6,1798.8 1348.9,1830.7 1346.6,1862.3 1343.6,1893.6 1339.9,1924.3 1335.6,1954.6 1330.6,1984.4 1325.0,2013.7 1318.7,2042.3 1311.8,2070.3 1304.2,2097.6 1296.0,2124.1  Z" style="stroke-width: 0.0;  fill: rgb(0,0,0); opacity: 0.167;" />
<path d="M 2059.032,1155.606 A 656.600,656.600 0.00 0,1 2105.1,1245.2 L 2105.1,1245.2 2082.1,1254.4 2058.5,1262.8 2034.4,1270.4 2009.9,1277.2 1985.1,1283.0 1960.0,1287.9 1934.8,1291.7 1909.4,1294.5 1884.1,1296.2 1858.7,1296.8 1833.4,1296.2 1808.3,1294.5 1783.4,1291.6 1758.8,1287.5 1734.5,1282.2 1710.6,1275.7 1687.1,1268.1 1664.0,1259.2 1641.5,1249.2 1619.6,1238.0 1598.2,1225.7 1577.5,1212.3 1557.5,1197.8 1538.2,1182.2 1519.6,1165.7 1501.8,1148.2 1484.8,1129.8 1468.7,1110.5 1453.3,1090.4 1438.9,1069.5 1425.3,1048.0 1412.7,1025.9 1400.9,1003.2 1390.1,980.1 1380.2,956.6 1371.3,932.8 1363.3,908.8 1356.2,884.8 1350.1,860.7  A 656.600,656.600 0.00 0,1 1353.9,859.9 L 1353.9,859.9 1359.7,883.5 1366.5,907.1 1374.1,930.6 1382.6,953.8 1391.9,976.6 1402.2,999.0 1413.3,1020.8 1425.3,1042.0 1438.1,1062.4 1451.8,1082.1 1466.2,1100.8 1481.5,1118.7 1497.5,1135.5 1514.3,1151.3 1531.7,1166.0 1549.9,1179.5 1568.8,1191.9 1588.2,1203.1 1608.3,1213.0 1628.9,1221.6 1650.0,1229.0 1671.6,1235.0 1693.6,1239.8 1716.0,1243.3 1738.7,1245.5 1761.8,1246.4 1785.0,1246.0 1808.4,1244.4 1831.9,1241.5 1855.5,1237.5 1879.1,1232.3 1902.6,1226.0 1925.9,1218.7 1949.1,1210.3 1971.9,1201.0 1994.4,1190.8 2016.5,1179.8 2038.1,1168.0 2059.0,1155.6  Z" style="stroke-width: 0.0;  fill: rgb(0,0,0); opacity: 0.167;" />
<path d="M 1434.195,2153.294 A 656.600,656.600 0.00 0,1 1335.1,2135.5 L 1335.1,2135.5 1340.6,2112.9 1345.6,2090.2 1349.9,2067.4 1353.4,2044.8 1356.2,2022.5 1358.2,2000.5 1359.4,1979.0 1359.6,1958.1 1358.9,1937.9 1357.3,1918.4 1354.7,1899.7 1351.1,1882.0 1346.5,1865.2 1340.9,1849.5 1334.3,1834.9 1326.6,1821.5 1318.0,1809.2 1308.4,1798.2 1297.7,1788.5 1286.2,1780.0 1273.7,1772.8 1260.2,1767.0 1246.0,1762.4 1230.8,1759.2 1214.9,1757.3 1198.2,1756.7 1180.9,1757.4 1162.9,1759.4 1144.3,1762.5 1125.3,1766.8 1105.8,1772.3 1085.9,1778.9 1065.8,1786.4 1045.4,1795.0 1025.0,1804.4 1004.5,1814.6 984.1,1825.6 963.9,1837.2 944.0,1849.3  A 656.600,656.600 0.00 0,1 897.2,1760.2 L 897.2,1760.2 919.3,1751.1 941.8,1742.7 964.6,1735.0 987.5,1728.2 1010.6,1722.3 1033.7,1717.4 1056.7,1713.4 1079.5,1710.6 1102.1,1708.8 1124.3,1708.2 1146.2,1708.7 1167.6,1710.4 1188.5,1713.4 1208.8,1717.6 1228.5,1723.0 1247.4,1729.7 1265.7,1737.5 1283.1,1746.7 1299.7,1757.0 1315.5,1768.6 1330.4,1781.3 1344.4,1795.2 1357.4,1810.2 1369.5,1826.3 1380.6,1843.4 1390.7,1861.4 1399.9,1880.5 1408.0,1900.3 1415.1,1921.0 1421.2,1942.4 1426.4,1964.5 1430.6,1987.1 1433.8,2010.2 1436.0,2033.7 1437.4,2057.5 1437.8,2081.4 1437.4,2105.5 1436.2,2129.5 1434.2,2153.3  Z" style="stroke-width: 0.0;  fill: rgb(0,0,0); opacity: 0.167;" />
<path d="M 1814.211,2076.537 A 656.600,656.600 0.00 0,1 1715.0,2120.4 L 1715.0,2120.4 1707.4,2098.8 1699.4,2077.5 1691.1,2056.6 1682.7,2036.3 1674.0,2016.6 1665.1,1997.7 1656.1,1979.7 1647.0,1962.8 1637.7,1947.0 1628.5,1932.5 1619.2,1919.3 1610.0,1907.4 1600.7,1897.0 1591.5,1888.2 1582.5,1880.9 1573.5,1875.2 1564.6,1871.1 1555.9,1868.7 1547.4,1868.0 1539.0,1869.0 1530.8,1871.7 1522.9,1876.0 1515.2,1882.0 1507.8,1889.6 1500.7,1898.8 1493.8,1909.6 1487.2,1921.8 1480.9,1935.5 1475.0,1950.5 1469.3,1966.8 1464.0,1984.3 1459.0,2002.8 1454.4,2022.4 1450.2,2042.8 1446.2,2064.0 1442.7,2085.7 1439.5,2108.0 1436.7,2130.6 1434.2,2153.3  A 656.600,656.600 0.00 0,1 1331.3,2134.6 L 1331.3,2134.6 1337.6,2112.1 1344.5,2089.9 1351.9,2067.9 1359.9,2046.5 1368.5,2025.7 1377.5,2005.5 1387.1,1986.3 1397.2,1967.9 1407.8,1950.6 1418.8,1934.4 1430.3,1919.4 1442.2,1905.8 1454.4,1893.4 1467.1,1882.5 1480.0,1873.0 1493.3,1865.0 1506.9,1858.6 1520.8,1853.7 1534.8,1850.4 1549.1,1848.6 1563.6,1848.5 1578.2,1850.0 1593.0,1853.0 1607.8,1857.6 1622.6,1863.8 1637.5,1871.4 1652.3,1880.5 1667.1,1891.0 1681.8,1902.8 1696.3,1915.9 1710.7,1930.2 1724.8,1945.7 1738.7,1962.1 1752.3,1979.5 1765.6,1997.8 1778.4,2016.7 1790.8,2036.2 1802.8,2056.2 1814.2,2076.5  Z" style="stroke-width: 0.0;  fill: rgb(0,0,0); opacity: 0.167;" />
<path d="M 1292.312,2122.888 A 656.600,656.600 0.00 0,1 1220.4,2094.1 L 1220.4,2094.1 1231.8,2068.7 1242.8,2042.5 1253.1,2015.6 1263.0,1987.9 1272.2,1959.5 1280.9,1930.5 1289.0,1900.9 1296.5,1870.8 1303.5,1840.1 1309.8,1809.0 1315.6,1777.5 1320.7,1745.5 1325.3,1713.3 1329.3,1680.8 1332.6,1648.0 1335.4,1615.0 1337.5,1581.8 1339.0,1548.6 1339.9,1515.3 1340.2,1481.9 1339.9,1448.6 1339.0,1415.3 1337.4,1382.1 1335.3,1349.1 1332.5,1316.2 1329.1,1283.6 1325.1,1251.3 1320.5,1219.3 1315.3,1187.7 1309.5,1156.5 1303.1,1125.7 1296.1,1095.4 1288.6,1065.7 1280.4,1036.5 1271.6,1008.0 1262.3,980.1 1252.4,953.0 1242.0,926.6 1230.9,901.1  A 656.600,656.600 0.00 0,1 1303.4,873.5 L 1303.4,873.5 1311.6,901.1 1319.4,929.4 1326.5,958.3 1333.2,987.9 1339.4,1018.1 1345.1,1048.8 1350.3,1080.1 1355.0,1111.8 1359.3,1144.0 1363.2,1176.6 1366.6,1209.6 1369.6,1242.9 1372.1,1276.4 1374.2,1310.2 1375.9,1344.3 1377.3,1378.5 1378.2,1412.8 1378.6,1447.2 1378.7,1481.7 1378.4,1516.2 1377.7,1550.6 1376.6,1585.0 1375.1,1619.4 1373.2,1653.5 1370.9,1687.5 1368.2,1721.3 1365.0,1754.8 1361.5,1788.0 1357.5,1820.9 1353.1,1853.4 1348.2,1885.5 1342.9,1917.2 1337.1,1948.3 1330.9,1979.0 1324.2,2009.1 1317.0,2038.5 1309.3,2067.3 1301.1,2095.5 1292.3,2122.9  Z" style="stroke-width: 0.0;  fill: rgb(0,0,0); opacity: 0.167;" />
<path d="M 1066.831,1006.555 A 656.600,656.600 0.00 0,1 1154.0,942.0 L 1154.0,942.0 1165.8,961.3 1177.5,980.5 1188.9,999.6 1199.9,1018.3 1210.4,1036.6 1220.4,1054.3 1229.7,1071.3 1238.4,1087.6 1246.3,1103.0 1253.4,1117.4 1259.7,1130.8 1265.1,1143.2 1269.6,1154.4 1273.1,1164.3 1275.7,1173.0 1277.2,1180.4 1277.7,1186.5 1277.2,1191.2 1275.6,1194.5 1273.0,1196.4 1269.4,1196.9 1264.7,1196.1 1259.1,1193.8 1252.4,1190.2 1244.9,1185.3 1236.4,1179.0 1227.0,1171.5 1216.7,1162.7 1205.7,1152.8 1194.0,1141.8 1181.5,1129.7 1168.5,1116.7 1154.9,1102.8 1140.9,1088.1 1126.5,1072.7 1111.8,1056.8 1096.9,1040.3 1081.8,1023.6 1066.8,1006.6  A 656.600,656.600 0.00 0,1 1154.0,942.0 L 1154.0,942.0 1165.8,961.3 1177.5,980.5 1188.9,999.6 1199.9,1018.3 1210.4,1036.6 1220.4,1054.3 1229.7,1071.3 1238.4,1087.6 1246.3,1103.0 1253.4,1117.4 1259.7,1130.8 1265.1,1143.2 1269.6,1154.4 1273.1,1164.3 1275.7,1173.0 1277.2,1180.4 1277.7,1186.5 1277.2,1191.2 1275.6,1194.5 1273.0,1196.4 1269.4,1196.9 1264.7,1196.1 1259.1,1193.8 1252.4,1190.2 1244.9,1185.3 1236.4,1179.0 1227.0,1171.5 1216.7,1162.7 1205.7,1152.8 1194.0,1141.8 1181.5,1129.7 1168.5,1116.7 1154.9,1102.8 1140.9,1088.1 1126.5,1072.7 1111.8,1056.8 1096.9,1040.3 1081.8,1023.6 1066.8,1006.6  Z" style="stroke-width: 0.0;  fill: rgb(0,0,0); opacity: 0.167;" />
<path d="M 884.860,1270.377 A 656.600,656.600 0.00 0,1 935.0,1165.6 L 935.0,1165.6 957.8,1179.6 980.5,1194.7 1003.1,1210.8 1025.6,1227.8 1047.8,1245.8 1069.7,1264.7 1091.3,1284.4 1112.5,1305.0 1133.3,1326.4 1153.7,1348.7 1173.6,1371.6 1193.0,1395.3 1211.8,1419.6 1230.1,1444.6 1247.7,1470.1 1264.7,1496.3 1281.0,1523.0 1296.6,1550.1 1311.5,1577.7 1325.7,1605.7 1339.0,1634.1 1351.6,1662.7 1363.4,1691.7 1374.4,1720.9 1384.5,1750.2 1393.8,1779.7 1402.3,1809.3 1409.8,1839.0 1416.5,1868.6 1422.3,1898.2 1427.2,1927.6 1431.2,1956.9 1434.3,1986.1 1436.5,2014.9 1437.8,2043.4 1438.2,2071.6 1437.8,2099.3 1436.4,2126.6 1434.2,2153.3  A 656.600,656.600 0.00 0,1 1331.3,2134.6 L 1331.3,2134.6 1337.4,2109.7 1342.7,2084.2 1347.1,2058.2 1350.7,2031.9 1353.2,2005.1 1354.8,1978.1 1355.4,1950.9 1355.1,1923.4 1353.6,1896.0 1351.2,1868.4 1347.7,1840.9 1343.2,1813.5 1337.6,1786.2 1330.9,1759.1 1323.2,1732.3 1314.4,1705.8 1304.6,1679.6 1293.7,1653.8 1281.9,1628.4 1269.0,1603.6 1255.2,1579.2 1240.5,1555.5 1224.8,1532.3 1208.2,1509.8 1190.8,1488.0 1172.6,1466.9 1153.6,1446.5 1133.8,1426.9 1113.4,1408.2 1092.4,1390.2 1070.8,1373.2 1048.7,1357.0 1026.1,1341.7 1003.1,1327.4 979.8,1314.0 956.3,1301.6 932.5,1290.2 908.7,1279.8 884.9,1270.4  Z" style="stroke-width: 0.0;  fill: rgb(0,0,0); opacity: 0.167;" />
<path d="M 886.227,1266.748 A 656.600,656.600 0.00 0,1 933.0,1168.9 L 933.0,1168.9 953.5,1180.5 974.3,1191.4 995.4,1201.7 1016.6,1211.2 1037.9,1219.9 1059.2,1227.7 1080.3,1234.4 1101.2,1240.1 1121.8,1244.7 1142.1,1248.2 1161.9,1250.4 1181.3,1251.5 1200.1,1251.3 1218.2,1249.7 1235.7,1246.9 1252.5,1242.8 1268.5,1237.4 1283.7,1230.7 1298.1,1222.6 1311.6,1213.3 1324.2,1202.7 1335.9,1190.8 1346.6,1177.8 1356.3,1163.5 1365.1,1148.1 1372.9,1131.6 1379.8,1114.1 1385.6,1095.7 1390.5,1076.3 1394.4,1056.1 1397.4,1035.2 1399.4,1013.6 1400.5,991.5 1400.8,968.8 1400.2,945.9 1398.7,922.6 1396.5,899.3 1393.6,875.9 1390.0,852.7  A 656.600,656.600 0.00 0,1 1463.2,844.4 L 1463.2,844.4 1464.1,868.6 1464.2,892.8 1463.5,917.2 1461.9,941.4 1459.3,965.5 1455.8,989.4 1451.3,1012.8 1445.9,1035.8 1439.5,1058.3 1432.1,1080.2 1423.7,1101.3 1414.3,1121.7 1403.9,1141.3 1392.6,1160.0 1380.2,1177.7 1366.9,1194.5 1352.7,1210.2 1337.5,1224.8 1321.5,1238.3 1304.6,1250.7 1286.8,1261.9 1268.3,1272.0 1249.0,1280.8 1229.0,1288.4 1208.4,1294.8 1187.1,1300.0 1165.3,1304.0 1143.1,1306.8 1120.3,1308.4 1097.3,1308.8 1073.9,1308.2 1050.3,1306.4 1026.6,1303.5 1002.8,1299.7 979.1,1294.8 955.5,1289.0 932.0,1282.4 908.9,1274.9 886.2,1266.7  Z" style="stroke-width: 0.0;  fill: rgb(0,0,0); opacity: 0.167;" />
<path d="M 1390.015,852.677 A 656.600,656.600 0.00 0,1 1463.2,844.4 L 1463.2,844.4 1464.7,875.1 1465.7,906.2 1466.4,937.7 1466.8,969.6 1466.9,1001.9 1466.7,1034.6 1466.4,1067.7 1465.8,1101.0 1465.2,1134.6 1464.4,1168.5 1463.5,1202.7 1462.6,1237.0 1461.7,1271.6 1460.7,1306.3 1459.8,1341.1 1458.9,1376.1 1458.0,1411.2 1457.1,1446.3 1456.3,1481.4 1455.5,1516.6 1454.8,1551.8 1454.1,1586.9 1453.4,1622.0 1452.8,1656.9 1452.2,1691.8 1451.6,1726.5 1451.0,1761.1 1450.4,1795.4 1449.7,1829.6 1449.0,1863.5 1448.2,1897.1 1447.2,1930.4 1446.1,1963.4 1444.8,1996.1 1443.3,2028.4 1441.6,2060.3 1439.5,2091.7 1437.0,2122.8 1434.2,2153.3  A 656.600,656.600 0.00 0,1 1335.1,2135.5 L 1335.1,2135.5 1342.2,2106.8 1348.8,2077.5 1355.1,2047.5 1360.9,2017.0 1366.3,1985.9 1371.3,1954.3 1376.0,1922.3 1380.4,1889.8 1384.5,1856.9 1388.3,1823.7 1391.8,1790.1 1395.1,1756.2 1398.1,1722.1 1400.9,1687.8 1403.4,1653.2 1405.8,1618.5 1407.9,1583.7 1409.8,1548.7 1411.5,1513.7 1413.0,1478.7 1414.3,1443.7 1415.4,1408.8 1416.3,1373.9 1416.9,1339.1 1417.3,1304.5 1417.5,1270.0 1417.4,1235.7 1417.0,1201.7 1416.4,1168.0 1415.4,1134.5 1414.2,1101.4 1412.6,1068.7 1410.6,1036.4 1408.3,1004.5 1405.6,973.0 1402.4,942.1 1398.8,911.7 1394.7,881.9 1390.0,852.7  Z" style="stroke-width: 0.0;  fill: rgb(0,0,0); opacity: 0.167;" />
<path d="M 891.907,1252.317 A 656.600,656.600 0.00 0,1 925.3,1182.4 L 925.3,1182.4 947.8,1195.3 970.1,1209.3 992.2,1224.3 1014.0,1240.2 1035.5,1257.0 1056.6,1274.8 1077.2,1293.5 1097.2,1313.0 1116.7,1333.3 1135.6,1354.4 1153.8,1376.3 1171.3,1398.9 1188.0,1422.1 1204.0,1446.1 1219.1,1470.6 1233.3,1495.7 1246.7,1521.3 1259.1,1547.4 1270.6,1574.0 1281.1,1601.0 1290.6,1628.3 1299.2,1655.9 1306.7,1683.8 1313.2,1711.9 1318.7,1740.2 1323.2,1768.6 1326.7,1797.0 1329.1,1825.5 1330.5,1853.9 1330.9,1882.2 1330.3,1910.4 1328.8,1938.3 1326.3,1966.0 1322.8,1993.3 1318.4,2020.3 1313.1,2046.8 1307.0,2072.8 1300.1,2098.1 1292.3,2122.9  A 656.600,656.600 0.00 0,1 1220.4,2094.1 L 1220.4,2094.1 1230.7,2071.1 1240.2,2047.5 1249.0,2023.3 1256.9,1998.6 1263.9,1973.5 1270.0,1948.0 1275.1,1922.3 1279.2,1896.2 1282.2,1870.0 1284.1,1843.7 1285.0,1817.4 1284.7,1791.0 1283.2,1764.8 1280.7,1738.6 1276.9,1712.6 1272.0,1686.9 1266.0,1661.4 1258.7,1636.2 1250.4,1611.4 1240.9,1587.1 1230.2,1563.2 1218.5,1539.8 1205.7,1516.9 1191.9,1494.6 1177.0,1473.0 1161.2,1452.0 1144.5,1431.7 1126.8,1412.1 1108.4,1393.3 1089.1,1375.3 1069.2,1358.1 1048.5,1341.7 1027.3,1326.2 1005.6,1311.5 983.4,1297.8 960.9,1285.0 938.0,1273.1 915.0,1262.2 891.9,1252.3  Z" style="stroke-width: 0.0;  fill: rgb(0,0,0); opacity: 0.167;" />
<path d="M 1422.632,2152.026 A 656.600,656.600 0.00 0,1 1346.3,2138.4 L 1346.3,2138.4 1351.6,2116.3 1356.8,2094.4 1361.8,2072.9 1366.6,2051.7 1371.1,2031.2 1375.4,2011.4 1379.4,1992.5 1383.1,1974.6 1386.4,1957.7 1389.4,1942.0 1391.9,1927.6 1394.1,1914.5 1395.7,1902.9 1397.0,1892.7 1397.8,1884.0 1398.1,1877.0 1397.9,1871.5 1397.3,1867.7 1396.1,1865.6 1394.5,1865.1 1392.4,1866.4 1389.9,1869.2 1386.8,1873.8 1383.4,1879.9 1379.5,1887.7 1375.1,1896.9 1370.4,1907.7 1365.3,1919.9 1359.8,1933.5 1354.0,1948.4 1347.9,1964.5 1341.5,1981.6 1334.8,1999.8 1328.0,2018.9 1321.0,2038.7 1313.9,2059.2 1306.7,2080.1 1299.5,2101.4 1292.3,2122.9  A 656.600,656.600 0.00 0,1 1220.4,2094.1 L 1220.4,2094.1 1230.2,2073.5 1240.2,2053.2 1250.3,2033.4 1260.6,2014.0 1270.8,1995.4 1281.1,1977.5 1291.2,1960.6 1301.3,1944.7 1311.1,1929.9 1320.8,1916.3 1330.3,1904.1 1339.5,1893.2 1348.3,1883.8 1356.9,1875.8 1365.0,1869.4 1372.8,1864.6 1380.2,1861.4 1387.1,1859.8 1393.6,1859.9 1399.7,1861.6 1405.2,1865.0 1410.3,1870.0 1414.8,1876.6 1418.9,1884.8 1422.4,1894.6 1425.4,1905.9 1428.0,1918.6 1430.0,1932.7 1431.5,1948.1 1432.6,1964.7 1433.1,1982.5 1433.2,2001.3 1432.9,2021.0 1432.1,2041.6 1430.9,2062.8 1429.4,2084.6 1427.4,2106.9 1425.2,2129.4 1422.6,2152.0  Z" style="stroke-width: 0.0;  fill: rgb(0,0,0); opacity: 0.167;" />
<path d="M 1350.115,860.736 A 656.600,656.600 0.00 0,1 1353.9,859.9 L 1353.9,859.9 1358.8,883.1 1363.0,906.6 1366.4,930.1 1369.0,953.7 1370.7,977.1 1371.5,1000.3 1371.3,1023.1 1370.2,1045.6 1368.0,1067.5 1364.8,1088.9 1360.5,1109.6 1355.2,1129.5 1348.7,1148.7 1341.2,1166.9 1332.7,1184.3 1323.0,1200.7 1312.3,1216.0 1300.5,1230.3 1287.7,1243.5 1273.9,1255.6 1259.1,1266.6 1243.4,1276.3 1226.7,1284.9 1209.2,1292.3 1190.9,1298.5 1171.8,1303.5 1152.0,1307.3 1131.5,1310.0 1110.4,1311.5 1088.8,1311.8 1066.8,1311.1 1044.4,1309.3 1021.7,1306.4 998.8,1302.6 975.8,1297.8 952.8,1292.1 929.9,1285.6 907.2,1278.3 884.9,1270.4  A 656.600,656.600 0.00 0,1 935.0,1165.6 L 935.0,1165.6 955.2,1177.2 975.8,1188.3 996.7,1198.7 1017.6,1208.3 1038.5,1217.2 1059.3,1225.1 1080.0,1232.1 1100.4,1238.0 1120.4,1242.8 1140.1,1246.5 1159.2,1249.1 1177.8,1250.4 1195.8,1250.4 1213.0,1249.2 1229.6,1246.7 1245.4,1242.9 1260.3,1237.8 1274.4,1231.4 1287.6,1223.6 1299.9,1214.6 1311.2,1204.3 1321.6,1192.8 1330.9,1180.1 1339.3,1166.2 1346.7,1151.1 1353.0,1135.0 1358.3,1117.8 1362.6,1099.7 1366.0,1080.7 1368.3,1060.8 1369.7,1040.3 1370.1,1019.0 1369.7,997.2 1368.4,975.0 1366.2,952.4 1363.2,929.5 1359.5,906.6 1355.1,883.6 1350.1,860.7  Z" style="stroke-width: 0.0;  fill: rgb(0,0,0); opacity: 0.167;" />
<path d="M 1072.689,1001.474 A 656.600,656.600 0.00 0,1 1147.4,946.1 L 1147.4,946.1 1159.6,965.7 1171.3,985.6 1182.4,1005.5 1192.9,1025.5 1202.5,1045.3 1211.4,1064.9 1219.3,1084.3 1226.3,1103.2 1232.2,1121.7 1237.0,1139.6 1240.7,1156.9 1243.2,1173.5 1244.4,1189.3 1244.5,1204.4 1243.2,1218.6 1240.7,1231.8 1236.9,1244.2 1231.8,1255.5 1225.4,1265.8 1217.8,1275.1 1208.8,1283.4 1198.7,1290.6 1187.3,1296.6 1174.7,1301.6 1161.1,1305.6 1146.3,1308.4 1130.5,1310.2 1113.7,1310.9 1096.0,1310.6 1077.5,1309.3 1058.3,1307.0 1038.4,1303.8 1017.9,1299.7 996.9,1294.7 975.6,1289.0 954.0,1282.6 932.3,1275.4 910.6,1267.7 889.0,1259.5  A 656.600,656.600 0.00 0,1 929.1,1175.6 L 929.1,1175.6 949.0,1186.8 968.9,1197.6 988.7,1207.9 1008.3,1217.8 1027.5,1227.1 1046.2,1235.7 1064.4,1243.6 1081.9,1250.7 1098.7,1256.9 1114.6,1262.3 1129.5,1266.7 1143.5,1270.1 1156.4,1272.5 1168.2,1273.9 1178.8,1274.2 1188.3,1273.4 1196.4,1271.5 1203.3,1268.5 1208.9,1264.4 1213.2,1259.2 1216.2,1252.9 1217.8,1245.6 1218.1,1237.2 1217.0,1227.8 1214.7,1217.4 1211.1,1206.1 1206.3,1193.9 1200.3,1180.8 1193.1,1167.0 1184.8,1152.4 1175.5,1137.1 1165.2,1121.3 1154.0,1105.0 1141.9,1088.2 1129.2,1071.1 1115.8,1053.8 1101.8,1036.4 1087.4,1018.9 1072.7,1001.5  Z" style="stroke-width: 0.0;  fill: rgb(0,0,0); opacity: 0.167;" />
<path d="M 1426.484,2152.471 A 656.600,656.600 0.00 0,1 1342.6,2137.4 L 1342.6,2137.4 1349.8,2107.5 1356.6,2076.9 1363.2,2046.0 1369.7,2014.5 1375.9,1982.7 1382.0,1950.5 1388.0,1917.9 1393.9,1885.1 1399.8,1851.9 1405.6,1818.4 1411.5,1784.8 1417.4,1750.9 1423.3,1716.9 1429.3,1682.7 1435.4,1648.4 1441.5,1614.0 1447.7,1579.5 1454.1,1545.0 1460.5,1510.4 1467.0,1475.9 1473.5,1441.4 1480.2,1406.9 1486.9,1372.6 1493.7,1338.3 1500.5,1304.1 1507.4,1270.1 1514.2,1236.2 1521.1,1202.5 1527.8,1169.0 1534.5,1135.8 1541.1,1102.7 1547.6,1069.9 1553.8,1037.4 1559.8,1005.2 1565.6,973.3 1571.1,941.7 1576.2,910.4 1580.8,879.5 1585.1,848.9  A 656.600,656.600 0.00 0,1 1668.7,865.4 L 1668.7,865.4 1661.0,895.2 1653.7,925.4 1646.6,956.2 1639.8,987.4 1633.1,1019.1 1626.6,1051.1 1620.2,1083.6 1613.9,1116.3 1607.7,1149.4 1601.5,1182.7 1595.4,1216.3 1589.2,1250.2 1583.1,1284.2 1576.9,1318.3 1570.7,1352.6 1564.4,1387.0 1558.0,1421.5 1551.7,1456.0 1545.2,1490.6 1538.7,1525.2 1532.1,1559.7 1525.5,1594.2 1518.9,1628.6 1512.3,1663.0 1505.6,1697.2 1498.9,1731.3 1492.3,1765.2 1485.8,1798.9 1479.3,1832.5 1472.9,1865.8 1466.7,1898.8 1460.6,1931.7 1454.8,1964.2 1449.2,1996.4 1443.9,2028.3 1438.9,2059.9 1434.3,2091.1 1430.2,2122.0 1426.5,2152.5  Z" style="stroke-width: 0.0;  fill: rgb(0,0,0); opacity: 0.167;" />
<path d="M 1434.195,2153.294 A 656.600,656.600 0.00 0,1 1331.3,2134.6 L 1331.3,2134.6 1337.4,2109.7 1342.7,2084.2 1347.1,2058.2 1350.7,2031.9 1353.2,2005.1 1354.8,1978.1 1355.4,1950.9 1355.1,1923.4 1353.6,1896.0 1351.2,1868.4 1347.7,1840.9 1343.2,1813.5 1337.6,1786.2 1330.9,1759.1 1323.2,1732.3 1314.4,1705.8 1304.6,1679.6 1293.7,1653.8 1281.9,1628.4 1269.0,1603.6 1255.2,1579.2 1240.5,1555.5 1224.8,1532.3 1208.2,1509.8 1190.8,1488.0 1172.6,1466.9 1153.6,1446.5 1133.8,1426.9 1113.4,1408.2 1092.4,1390.2 1070.8,1373.2 1048.7,1357.0 1026.1,1341.7 1003.1,1327.4 979.8,1314.0 956.3,1301.6 932.5,1290.2 908.7,1279.8 884.9,1270.4  A 656.600,656.600 0.00 0,1 935.0,1165.6 L 935.0,1165.6 957.8,1179.6 980.5,1194.7 1003.1,1210.8 1025.6,1227.8 1047.8,1245.8 1069.7,1264.7 1091.3,1284.4 1112.5,1305.0 1133.3,1326.4 1153.7,1348.7 1173.6,1371.6 1193.0,1395.3 1211.8,1419.6 1230.1,1444.6 1247.7,1470.1 1264.7,1496.3 1281.0,1523.0 1296.6,1550.1 1311.5,1577.7 1325.7,1605.7 1339.0,1634.1 1351.6,1662.7 1363.4,1691.7 1374.4,1720.9 1384.5,1750.2 1393.8,1779.7 1402.3,1809.3 1409.8,1839.0 1416.5,1868.6 1422.3,1898.2 1427.2,1927.6 1431.2,1956.9 1434.3,1986.1 1436.5,2014.9 1437.8,2043.4 1438.2,2071.6 1437.8,2099.3 1436.4,2126.6 1434.2,2153.3  Z" style="stroke-width: 0.0;  fill: rgb(0,0,0); opacity: 0.167;" />
<path d="M 2113.081,1735.063 A 656.600,656.600 0.00 0,1 2077.5,1812.5 L 2077.5,1812.5 2057.6,1801.7 2037.8,1790.8 2018.5,1780.0 1999.6,1769.3 1981.4,1758.8 1963.9,1748.6 1947.2,1738.7 1931.5,1729.1 1916.9,1719.9 1903.4,1711.3 1891.2,1703.1 1880.2,1695.4 1870.7,1688.4 1862.5,1681.9 1855.8,1676.1 1850.6,1671.0 1846.9,1666.6 1844.9,1662.8 1844.3,1659.8 1845.4,1657.5 1848.0,1655.9 1852.2,1655.0 1858.0,1654.9 1865.3,1655.5 1874.0,1656.8 1884.2,1658.8 1895.8,1661.5 1908.8,1664.9 1923.0,1668.8 1938.3,1673.4 1954.8,1678.6 1972.3,1684.2 1990.6,1690.4 2009.8,1697.0 2029.6,1704.1 2050.0,1711.4 2070.8,1719.1 2091.9,1727.0 2113.1,1735.1  A 656.600,656.600 0.00 0,1 2077.5,1812.5 L 2077.5,1812.5 2057.6,1801.7 2037.8,1790.8 2018.5,1780.0 1999.6,1769.3 1981.4,1758.8 1963.9,1748.6 1947.2,1738.7 1931.5,1729.1 1916.9,1719.9 1903.4,1711.3 1891.2,1703.1 1880.2,1695.4 1870.7,1688.4 1862.5,1681.9 1855.8,1676.1 1850.6,1671.0 1846.9,1666.6 1844.9,1662.8 1844.3,1659.8 1845.4,1657.5 1848.0,1655.9 1852.2,1655.0 1858.0,1654.9 1865.3,1655.5 1874.0,1656.8 1884.2,1658.8 1895.8,1661.5 1908.8,1664.9 1923.0,1668.8 1938.3,1673.4 1954.8,1678.6 1972.3,1684.2 1990.6,1690.4 2009.8,1697.0 2029.6,1704.1 2050.0,1711.4 2070.8,1719.1 2091.9,1727.0 2113.1,1735.1  Z" style="stroke-width: 0.0;  fill: rgb(0,0,0); opacity: 0.167;" />
<path d="M 1585.063,848.933 A 656.600,656.600 0.00 0,1 1668.7,865.4 L 1668.7,865.4 1661.0,895.2 1653.7,925.4 1646.6,956.2 1639.8,987.4 1633.1,1019.1 1626.6,1051.1 1620.2,1083.6 1613.9,1116.3 1607.7,1149.4 1601.5,1182.7 1595.4,1216.3 1589.2,1250.2 1583.1,1284.2 1576.9,1318.3 1570.7,1352.6 1564.4,1387.0 1558.0,1421.5 1551.7,1456.0 1545.2,1490.6 1538.7,1525.2 1532.1,1559.7 1525.5,1594.2 1518.9,1628.6 1512.3,1663.0 1505.6,1697.2 1498.9,1731.3 1492.3,1765.2 1485.8,1798.9 1479.3,1832.5 1472.9,1865.8 1466.7,1898.8 1460.6,1931.7 1454.8,1964.2 1449.2,1996.4 1443.9,2028.3 1438.9,2059.9 1434.3,2091.1 1430.2,2122.0 1426.5,2152.5  A 656.600,656.600 0.00 0,1 1342.6,2137.4 L 1342.6,2137.4 1349.8,2107.5 1356.6,2076.9 1363.2,2046.0 1369.7,2014.5 1375.9,1982.7 1382.0,1950.5 1388.0,1917.9 1393.9,1885.1 1399.8,1851.9 1405.6,1818.4 1411.5,1784.8 1417.4,1750.9 1423.3,1716.9 1429.3,1682.7 1435.4,1648.4 1441.5,1614.0 1447.7,1579.5 1454.1,1545.0 1460.5,1510.4 1467.0,1475.9 1473.5,1441.4 1480.2,1406.9 1486.9,1372.6 1493.7,1338.3 1500.5,1304.1 1507.4,1270.1 1514.2,1236.2 1521.1,1202.5 1527.8,1169.0 1534.5,1135.8 1541.1,1102.7 1547.6,1069.9 1553.8,1037.4 1559.8,1005.2 1565.6,973.3 1571.1,941.7 1576.2,910.4 1580.8,879.5 1585.1,848.9  Z" style="stroke-width: 0.0;  fill: rgb(0,0,0); opacity: 0.167;" />
</g>
</svg>
