<?xml version="1.0" encoding="utf-8" standalone="no"?>
<!DOCTYPE svg PUBLIC "-//W3C//DTD SVG 1.1//EN" "http://www.w3.org/Graphics/SVG/1.1/DTD/svg11.dtd">
<svg width="3000px" height="3000px" version="1.1" xmlns="http://www.w3.org/2000/svg" xmlns:xlink="http://www.w3.org/1999/xlink">
<g id="ideograms">
<path d="M1500.000,830.000 A670.000,670.000 40.000 0,1 1758.224,881.760 L1789.057,807.941 A750.000,750.000 0.000 0,0 1500.000,750.000 Z" style="stroke-linecap:round;fill:rgb(228,26,28);" />
<path d="M1792.483,897.212 A670.000,670.000 40.000 0,1 2159.859,1616.128 L2238.649,1629.994 A750.000,750.000 0.000 0,0 1827.407,825.237 Z" style="stroke-linecap:round;fill:rgb(114,91,130);" />
<path d="M2152.310,1652.944 A670.000,670.000 40.000 0,1 2038.296,1898.920 L2102.571,1946.552 A750.000,750.000 0.000 0,0 2230.198,1671.206 Z" style="stroke-linecap:round;fill:rgb(61,141,149);" />
<path d="M2015.082,1928.475 A670.000,670.000 40.000 0,1 1470.336,2169.343 L1466.794,2249.265 A750.000,750.000 0.000 0,0 2076.584,1979.636 Z" style="stroke-linecap:round;fill:rgb(77,174,74);" />
<path d="M1432.852,2166.627 A670.000,670.000 40.000 0,1 1327.865,2147.510 L1307.312,2224.825 A750.000,750.000 0.000 0,0 1424.834,2246.224 Z" style="stroke-linecap:round;fill:rgb(127,110,133);" />
<path d="M1291.830,2136.840 A670.000,670.000 40.000 0,1 1207.517,2102.788 L1172.593,2174.763 A750.000,750.000 0.000 0,0 1266.974,2212.881 Z" style="stroke-linecap:round;fill:rgb(185,93,109);" />
<path d="M1174.178,2085.440 A670.000,670.000 40.000 0,1 833.373,1432.852 L753.776,1424.834 A750.000,750.000 0.000 0,0 1135.274,2155.344 Z" style="stroke-linecap:round;fill:rgb(255,129,0);" />
<path d="M838.187,1395.580 A670.000,670.000 40.000 0,1 1003.065,1050.605 L943.729,996.946 A750.000,750.000 0.000 0,0 759.165,1383.112 Z" style="stroke-linecap:round;fill:rgb(255,213,34);" />
<path d="M1029.044,1023.449 A670.000,670.000 40.000 0,1 1181.115,910.753 L1143.039,840.395 A750.000,750.000 0.000 0,0 972.811,966.547 Z" style="stroke-linecap:round;fill:rgb(225,198,47);" />
<path d="M1214.656,893.800 A670.000,670.000 40.000 0,1 1310.722,857.292 L1288.121,780.551 A750.000,750.000 0.000 0,0 1180.585,821.417 Z" style="stroke-linecap:round;fill:rgb(167,87,43);" />
<path d="M1347.056,847.690 A670.000,670.000 40.000 0,1 1350.911,846.798 L1333.109,768.804 A750.000,750.000 0.000 0,0 1328.794,769.802 Z" style="stroke-linecap:round;fill:rgb(221,115,143);" />
<path d="M1387.771,839.466 A670.000,670.000 40.000 0,1 1462.433,831.054 L1457.947,751.180 A750.000,750.000 0.000 0,0 1374.370,760.597 Z" style="stroke-linecap:round;fill:rgb(214,137,178);" />
</g>
<g id="track_0">
<path d="M 2113.081,1735.063 A 656.600,656.600 0.00 0,1 2077.5,1812.5 L 2077.5,1812.5 2056.0,1801.3 2033.9,1790.9 2011.5,1781.2 1988.7,1772.3 1965.6,1764.3 1942.4,1757.3 1919.0,1751.3 1895.6,1746.4 1872.2,1742.6 1849.0,1740.0 1825.9,1738.5 1803.0,1738.3 1780.5,1739.3 1758.3,1741.6 1736.5,1745.2 1715.1,1750.0 1694.3,1756.2 1674.0,1763.6 1654.3,1772.3 1635.3,1782.2 1616.9,1793.4 1599.2,1805.8 1582.3,1819.4 1566.1,1834.2 1550.7,1850.0 1536.1,1866.9 1522.4,1884.9 1509.5,1903.8 1497.5,1923.5 1486.4,1944.1 1476.2,1965.5 1466.8,1987.5 1458.4,2010.1 1450.8,2033.1 1444.2,2056.6 1438.5,2080.4 1433.6,2104.4 1429.6,2128.4 1426.5,2152.5  A 656.600,656.600 0.00 0,1 1342.6,2137.4 L 1342.6,2137.4 1349.0,2113.3 1356.4,2089.2 1364.7,2065.2 1374.0,2041.3 1384.3,2017.8 1395.5,1994.5 1407.6,1971.7 1420.7,1949.5 1434.6,1927.8 1449.5,1906.7 1465.2,1886.4 1481.8,1866.9 1499.2,1848.2 1517.4,1830.3 1536.4,1813.4 1556.1,1797.5 1576.6,1782.6 1597.7,1768.7 1619.4,1756.0 1641.8,1744.3 1664.7,1733.7 1688.2,1724.3 1712.1,1716.1 1736.4,1709.0 1761.1,1703.0 1786.2,1698.3 1811.5,1694.7 1837.0,1692.3 1862.6,1691.0 1888.4,1690.8 1914.2,1691.7 1939.9,1693.8 1965.6,1696.8 1991.0,1700.9 2016.2,1706.0 2041.1,1712.0 2065.6,1718.8 2089.6,1726.6 2113.1,1735.1  Z" style="stroke-width: 0.0;  fill: rgb(0,0,0); opacity: 0.167;" />
<path d="M 1422.632,2152.026 A 656.600,656.600 0.00 0,1 1346.3,2138.4 L 1346.3,2138.4 1353.0,2109.5 1359.1,2079.9 1364.9,2049.8 1370.2,2019.1 1375.1,1987.9 1379.7,1956.2 1383.9,1924.0 1387.8,1891.4 1391.4,1858.5 1394.8,1825.1 1397.9,1791.5 1400.7,1757.5 1403.3,1723.3 1405.7,1688.9 1407.9,1654.3 1409.9,1619.5 1411.6,1584.7 1413.2,1549.7 1414.6,1514.6 1415.8,1479.6 1416.8,1444.5 1417.6,1409.5 1418.2,1374.6 1418.6,1339.8 1418.7,1305.1 1418.7,1270.6 1418.4,1236.3 1417.9,1202.3 1417.1,1168.5 1416.0,1135.0 1414.6,1101.9 1412.9,1069.1 1410.9,1036.7 1408.5,1004.8 1405.7,973.3 1402.5,942.3 1398.8,911.9 1394.7,882.0 1390.0,852.7  A 656.600,656.600 0.00 0,1 1463.2,844.4 L 1463.2,844.4 1464.7,875.0 1465.7,906.0 1466.4,937.5 1466.7,969.4 1466.7,1001.7 1466.5,1034.3 1466.0,1067.3 1465.4,1100.6 1464.6,1134.2 1463.7,1168.1 1462.7,1202.2 1461.6,1236.6 1460.5,1271.1 1459.3,1305.8 1458.1,1340.7 1457.0,1375.6 1455.8,1410.7 1454.7,1445.8 1453.5,1481.0 1452.5,1516.1 1451.4,1551.3 1450.4,1586.4 1449.4,1621.5 1448.4,1656.4 1447.4,1691.3 1446.4,1726.0 1445.4,1760.5 1444.3,1794.9 1443.2,1829.0 1442.0,1862.9 1440.7,1896.5 1439.3,1929.8 1437.7,1962.7 1435.9,1995.3 1433.9,2027.5 1431.6,2059.4 1429.0,2090.7 1426.0,2121.6 1422.6,2152.0  Z" style="stroke-width: 0.0;  fill: rgb(0,0,0); opacity: 0.167;" />
<path d="M 1295.993,2124.103 A 656.600,656.600 0.00 0,1 1216.9,2092.4 L 1216.9,2092.4 1226.7,2072.0 1236.5,2051.8 1246.4,2031.9 1256.1,2012.5 1265.6,1993.8 1275.0,1975.8 1284.1,1958.6 1292.8,1942.5 1301.3,1927.4 1309.3,1913.5 1316.8,1900.9 1323.9,1889.6 1330.5,1879.6 1336.5,1871.2 1341.9,1864.2 1346.8,1858.7 1351.1,1854.9 1354.7,1852.6 1357.7,1851.9 1360.1,1852.9 1361.8,1855.4 1362.8,1859.6 1363.2,1865.3 1363.0,1872.6 1362.1,1881.4 1360.7,1891.7 1358.6,1903.4 1355.9,1916.5 1352.6,1930.9 1348.8,1946.5 1344.5,1963.2 1339.7,1980.9 1334.4,1999.6 1328.8,2019.0 1322.8,2039.2 1316.4,2059.9 1309.8,2081.1 1303.0,2102.5 1296.0,2124.1  A 656.600,656.600 0.00 0,1 1216.9,2092.4 L 1216.9,2092.4 1226.7,2072.0 1236.5,2051.8 1246.4,2031.9 1256.1,2012.5 1265.6,1993.8 1275.0,1975.8 1284.1,1958.6 1292.8,1942.5 1301.3,1927.4 1309.3,1913.5 1316.8,1900.9 1323.9,1889.6 1330.5,1879.6 1336.5,1871.2 1341.9,1864.2 1346.8,1858.7 1351.1,1854.9 1354.7,1852.6 1357.7,1851.9 1360.1,1852.9 1361.8,1855.4 1362.8,1859.6 1363.2,1865.3 1363.0,1872.6 1362.1,1881.4 1360.7,1891.7 1358.6,1903.4 1355.9,1916.5 1352.6,1930.9 1348.8,1946.5 1344.5,1963.2 1339.7,1980.9 1334.4,1999.6 1328.8,2019.0 1322.8,2039.2 1316.4,2059.9 1309.8,2081.1 1303.0,2102.5 1296.0,2124.1  Z" style="stroke-width: 0.0;  fill: rgb(0,0,0); opacity: 0.167;" />
<path d="M 1075.640,998.959 A 656.600,656.600 0.00 0,1 1144.1,948.2 L 1144.1,948.2 1159.3,972.4 1174.1,997.4 1188.5,1023.3 1202.5,1049.9 1216.2,1077.2 1229.6,1105.2 1242.6,1133.9 1255.2,1163.2 1267.4,1193.0 1279.3,1223.3 1290.8,1254.2 1301.9,1285.4 1312.6,1317.1 1322.9,1349.1 1332.9,1381.5 1342.4,1414.1 1351.5,1447.0 1360.2,1480.0 1368.4,1513.3 1376.3,1546.6 1383.6,1580.0 1390.5,1613.5 1397.0,1647.0 1403.0,1680.5 1408.5,1713.9 1413.4,1747.1 1417.9,1780.3 1421.9,1813.2 1425.3,1845.9 1428.1,1878.4 1430.4,1910.5 1432.1,1942.4 1433.2,1973.8 1433.7,2004.8 1433.6,2035.4 1432.8,2065.5 1431.4,2095.1 1429.3,2124.1 1426.5,2152.5  A 656.600,656.600 0.00 0,1 1342.6,2137.4 L 1342.6,2137.4 1348.8,2110.6 1354.2,2083.1 1358.9,2055.0 1362.9,2026.2 1366.1,1996.9 1368.7,1967.2 1370.4,1936.9 1371.5,1906.3 1371.8,1875.3 1371.3,1844.0 1370.2,1812.4 1368.3,1780.6 1365.7,1748.6 1362.3,1716.5 1358.3,1684.3 1353.5,1652.1 1348.1,1619.8 1341.9,1587.6 1335.1,1555.5 1327.6,1523.6 1319.5,1491.8 1310.7,1460.2 1301.2,1428.9 1291.1,1397.9 1280.4,1367.3 1269.2,1337.0 1257.3,1307.2 1244.8,1277.9 1231.8,1249.1 1218.3,1220.8 1204.3,1193.2 1189.7,1166.2 1174.7,1139.9 1159.2,1114.4 1143.3,1089.6 1126.9,1065.6 1110.2,1042.5 1093.1,1020.2 1075.6,999.0  Z" style="stroke-width: 0.0;  fill: rgb(0,0,0); opacity: 0.167;" />
<path d="M 1426.484,2152.471 A 656.600,656.600 0.00 0,1 1342.6,2137.4 L 1342.6,2137.4 1348.1,2115.5 1353.6,2093.7 1359.2,2072.2 1364.8,2051.3 1370.4,2031.0 1375.9,2011.5 1381.3,1992.8 1386.7,1975.3 1391.8,1958.8 1396.9,1943.6 1401.7,1929.7 1406.4,1917.1 1410.8,1906.1 1415.0,1896.6 1418.9,1888.6 1422.6,1882.3 1425.9,1877.7 1429.0,1874.7 1431.9,1873.4 1434.4,1873.9 1436.5,1876.0 1438.4,1879.9 1440.0,1885.4 1441.2,1892.6 1442.2,1901.4 1442.8,1911.8 1443.1,1923.7 1443.1,1937.1 1442.8,1951.8 1442.3,1967.8 1441.4,1985.1 1440.3,2003.4 1438.9,2022.7 1437.3,2043.0 1435.5,2063.9 1433.5,2085.5 1431.3,2107.6 1429.0,2129.9 1426.5,2152.5  A 656.600,656.600 0.00 0,1 1342.6,2137.4 L 1342.6,2137.4 1348.1,2115.5 1353.6,2093.7 1359.2,2072.2 1364.8,2051.3 1370.4,2031.0 1375.9,2011.5 1381.3,1992.8 1386.7,1975.3 1391.8,1958.8 1396.9,1943.6 1401.7,1929.7 1406.4,1917.1 1410.8,1906.1 1415.0,1896.6 1418.9,1888.6 1422.6,1882.3 1425.9,1877.7 1429.0,1874.7 1431.9,1873.4 1434.4,1873.9 1436.5,1876.0 1438.4,1879.9 1440.0,1885.4 1441.2,1892.6 1442.2,1901.4 1442.8,1911.8 1443.1,1923.7 1443.1,1937.1 1442.8,1951.8 1442.3,1967.8 1441.4,1985.1 1440.3,2003.4 1438.9,2022.7 1437.3,2043.0 1435.5,2063.9 1433.5,2085.5 1431.3,2107.6 1429.0,2129.9 1426.5,2152.5  Z" style="stroke-width: 0.0;  fill: rgb(0,0,0); opacity: 0.167;" />
<path d="M 1426.484,2152.471 A 656.600,656.600 0.00 0,1 1342.6,2137.4 L 1342.6,2137.4 1348.8,2110.6 1354.2,2083.1 1358.9,2055.0 1362.9,2026.2 1366.1,1996.9 1368.7,1967.2 1370.4,1936.9 1371.5,1906.3 1371.8,1875.3 1371.3,1844.0 1370.2,1812.4 1368.3,1780.6 1365.7,1748.6 1362.3,1716.5 1358.3,1684.3 1353.5,1652.1 1348.1,1619.8 1341.9,1587.6 1335.1,1555.5 1327.6,1523.6 1319.5,1491.8 1310.7,1460.2 1301.2,1428.9 1291.1,1397.9 1280.4,1367.3 1269.2,1337.0 1257.3,1307.2 1244.8,1277.9 1231.8,1249.1 1218.3,1220.8 1204.3,1193.2 1189.7,1166.2 1174.7,1139.9 1159.2,1114.4 1143.3,1089.6 1126.9,1065.6 1110.2,1042.5 1093.1,1020.2 1075.6,999.0  A 656.600,656.600 0.00 0,1 1144.1,948.2 L 1144.1,948.2 1159.3,972.4 1174.1,997.4 1188.5,1023.3 1202.5,1049.9 1216.2,1077.2 1229.6,1105.2 1242.6,1133.9 1255.2,1163.2 1267.4,1193.0 1279.3,1223.3 1290.8,1254.2 1301.9,1285.4 1312.6,1317.1 1322.9,1349.1 1332.9,1381.5 1342.4,1414.1 1351.5,1447.0 1360.2,1480.0 1368.4,1513.3 1376.3,1546.6 1383.6,1580.0 1390.5,1613.5 1397.0,1647.0 1403.0,1680.5 1408.5,1713.9 1413.4,1747.1 1417.9,1780.3 1421.9,1813.2 1425.3,1845.9 1428.1,1878.4 1430.4,1910.5 1432.1,1942.4 1433.2,1973.8 1433.7,2004.8 1433.6,2035.4 1432.8,2065.5 1431.4,2095.1 1429.3,2124.1 1426.5,2152.5  Z" style="stroke-width: 0.0;  fill: rgb(0,0,0); opacity: 0.167;" />
<path d="M 1430.338,2152.894 A 656.600,656.600 0.00 0,1 1338.8,2136.5 L 1338.8,2136.5 1345.4,2112.4 1352.9,2088.3 1361.4,2064.3 1370.9,2040.4 1381.3,2016.9 1392.7,1993.6 1405.0,1970.8 1418.2,1948.6 1432.3,1926.9 1447.3,1905.8 1463.2,1885.5 1480.0,1865.9 1497.5,1847.2 1515.9,1829.3 1535.0,1812.4 1554.9,1796.4 1575.5,1781.4 1596.8,1767.5 1618.7,1754.7 1641.2,1742.9 1664.2,1732.3 1687.8,1722.8 1711.9,1714.4 1736.3,1707.2 1761.1,1701.2 1786.3,1696.4 1811.7,1692.6 1837.3,1690.1 1863.1,1688.7 1889.0,1688.4 1914.9,1689.2 1940.7,1691.1 1966.4,1694.0 1992.0,1697.9 2017.3,1702.9 2042.3,1708.7 2066.8,1715.5 2090.9,1723.1 2114.5,1731.4  A 656.600,656.600 0.00 0,1 2075.6,1815.9 L 2075.6,1815.9 2054.2,1804.6 2032.3,1794.0 2009.9,1784.2 1987.2,1775.2 1964.3,1767.1 1941.1,1760.0 1917.9,1753.9 1894.6,1748.8 1871.3,1744.9 1848.2,1742.1 1825.3,1740.6 1802.5,1740.2 1780.1,1741.1 1758.0,1743.3 1736.4,1746.7 1715.2,1751.5 1694.5,1757.5 1674.4,1764.9 1654.8,1773.5 1635.9,1783.3 1617.7,1794.4 1600.2,1806.8 1583.4,1820.3 1567.4,1835.0 1552.2,1850.8 1537.8,1867.7 1524.3,1885.5 1511.6,1904.4 1499.7,1924.1 1488.8,1944.7 1478.7,1966.0 1469.6,1988.0 1461.3,2010.6 1453.9,2033.6 1447.4,2057.1 1441.9,2080.9 1437.2,2104.8 1433.3,2128.9 1430.3,2152.9  Z" style="stroke-width: 0.0;  fill: rgb(0,0,0); opacity: 0.167;" />
<path d="M 1390.015,852.677 A 656.600,656.600 0.00 0,1 1463.2,844.4 L 1463.2,844.4 1464.7,875.0 1465.7,906.0 1466.4,937.5 1466.7,969.4 1466.7,1001.7 1466.5,1034.3 1466.0,1067.3 1465.4,1100.6 1464.6,1134.2 1463.7,1168.1 1462.7,1202.2 1461.6,1236.6 1460.5,1271.1 1459.3,1305.8 1458.1,1340.7 1457.0,1375.6 1455.8,1410.7 1454.7,1445.8 1453.5,1481.0 1452.5,1516.1 1451.4,1551.3 1450.4,1586.4 1449.4,1621.5 1448.4,1656.4 1447.4,1691.3 1446.4,1726.0 1445.4,1760.5 1444.3,1794.9 1443.2,1829.0 1442.0,1862.9 1440.7,1896.5 1439.3,1929.8 1437.7,1962.7 1435.9,1995.3 1433.9,2027.5 1431.6,2059.4 1429.0,2090.7 1426.0,2121.6 1422.6,2152.0  A 656.600,656.600 0.00 0,1 1346.3,2138.4 L 1346.3,2138.4 1353.0,2109.5 1359.1,2079.9 1364.9,2049.8 1370.2,2019.1 1375.1,1987.9 1379.7,1956.2 1383.9,1924.0 1387.8,1891.4 1391.4,1858.5 1394.8,1825.1 1397.9,1791.5 1400.7,1757.5 1403.3,1723.3 1405.7,1688.9 1407.9,1654.3 1409.9,1619.5 1411.6,1584.7 1413.2,1549.7 1414.6,1514.6 1415.8,1479.6 1416.8,1444.5 1417.6,1409.5 1418.2,1374.6 1418.6,1339.8 1418.7,1305.1 1418.7,1270.6 1418.4,1236.3 1417.9,1202.3 1417.1,1168.5 1416.0,1135.0 1414.6,1101.9 1412.9,1069.1 1410.9,1036.7 1408.5,1004.8 1405.7,973.3 1402.5,942.3 1398.8,911.9 1394.7,882.0 1390.0,852.7  Z" style="stroke-width: 0.0;  fill: rgb(0,0,0); opacity: 0.167;" />
</g>
</svg>
