<?xml version="1.0" encoding="utf-8" standalone="no"?>
<!DOCTYPE svg PUBLIC "-//W3C//DTD SVG 1.1//EN" "http://www.w3.org/Graphics/SVG/1.1/DTD/svg11.dtd">
<svg width="3000px" height="3000px" version="1.1" xmlns="http://www.w3.org/2000/svg" xmlns:xlink="http://www.w3.org/1999/xlink">
<g id="ideograms">
<path d="M1500.000,820.000 A680.000,680.000 40.000 0,1 2132.994,1251.568 L2198.155,1225.994 A750.000,750.000 0.000 0,0 1500.000,750.000 Z" style="stroke-linecap:round;fill:rgb(251,106,74);" />
<path d="M2146.718,1289.868 A680.000,680.000 40.000 0,1 1931.879,2025.244 L1976.337,2079.313 A750.000,750.000 0.000 0,0 2213.292,1268.237 Z" style="stroke-linecap:round;fill:rgb(116,196,118);" />
<path d="M1899.694,2050.132 A680.000,680.000 40.000 0,1 1133.922,2073.050 L1096.237,2132.041 A750.000,750.000 0.000 0,0 1940.839,2106.763 Z" style="stroke-linecap:round;fill:rgb(107,174,214);" />
<path d="M1100.306,2050.132 A680.000,680.000 40.000 0,1 841.872,1328.921 L774.124,1311.310 A750.000,750.000 0.000 0,0 1059.161,2106.763 Z" style="stroke-linecap:round;fill:rgb(255,244,80);" />
<path d="M853.282,1289.868 A680.000,680.000 40.000 0,1 1459.333,821.217 L1455.147,751.342 A750.000,750.000 0.000 0,0 786.708,1268.237 Z" style="stroke-linecap:round;fill:rgb(158,154,200);" />
</g>
<g id="track_0">
<path d="M 908.003,1805.989 A 666.400,666.400 0.00 0,1 848.4,1639.6 L 848.4,1639.6 875.8,1633.3 903.5,1626.0 931.5,1617.8 959.8,1608.7 988.2,1598.7 1016.8,1587.8 1045.5,1576.1 1074.2,1563.6 1103.0,1550.2 1131.8,1536.1 1160.5,1521.2 1189.2,1505.6 1217.7,1489.2 1246.1,1472.2 1274.2,1454.5 1302.2,1436.2 1329.8,1417.3 1357.2,1397.8 1384.2,1377.7 1410.8,1357.1 1437.0,1336.1 1462.8,1314.5 1488.0,1292.5 1512.8,1270.1 1537.0,1247.2 1560.6,1224.1 1583.6,1200.6 1605.9,1176.8 1627.6,1152.7 1648.5,1128.4 1668.6,1103.9 1688.0,1079.2 1706.6,1054.4 1724.3,1029.5 1741.1,1004.5 1757.1,979.5 1772.0,954.4 1786.1,929.4 1799.1,904.5  A 666.400,666.400 0.00 0,1 1945.1,1004.0 L 1945.1,1004.0 1924.6,1026.4 1903.4,1048.7 1881.5,1071.0 1858.8,1093.3 1835.6,1115.5 1811.8,1137.8 1787.4,1160.1 1762.5,1182.4 1737.1,1204.7 1711.3,1227.0 1685.1,1249.3 1658.6,1271.6 1631.7,1293.9 1604.6,1316.1 1577.2,1338.3 1549.6,1360.5 1521.8,1382.6 1493.8,1404.6 1465.7,1426.5 1437.5,1448.3 1409.2,1470.0 1380.9,1491.6 1352.5,1512.9 1324.1,1534.1 1295.7,1555.0 1267.4,1575.6 1239.1,1596.0 1210.8,1616.1 1182.6,1635.8 1154.6,1655.2 1126.6,1674.1 1098.8,1692.6 1071.0,1710.6 1043.5,1728.1 1016.1,1745.0 988.8,1761.3 961.7,1776.9 934.8,1791.8 908.0,1806.0  Z" style="stroke-width: 0.0;  fill: rgb(0,0,0); opacity: 0.167;" />
<path d="M 1608.075,2157.578 A 666.400,666.400 0.00 0,1 1431.4,2162.9 L 1431.4,2162.9 1434.5,2137.5 1438.6,2112.0 1443.7,2086.3 1449.8,2060.7 1456.8,2035.2 1464.9,2009.8 1474.0,1984.7 1484.1,1959.9 1495.3,1935.5 1507.4,1911.6 1520.5,1888.2 1534.5,1865.4 1549.6,1843.3 1565.5,1821.8 1582.4,1801.2 1600.2,1781.3 1618.8,1762.2 1638.3,1744.1 1658.6,1726.9 1679.7,1710.6 1701.4,1695.3 1723.9,1681.0 1747.0,1667.7 1770.7,1655.5 1795.0,1644.4 1819.8,1634.3 1845.0,1625.4 1870.6,1617.5 1896.5,1610.7 1922.7,1605.0 1949.1,1600.4 1975.6,1596.8 2002.2,1594.3 2028.8,1592.9 2055.3,1592.4 2081.6,1593.0 2107.7,1594.6 2133.5,1597.0 2158.8,1600.4  A 666.400,666.400 0.00 0,1 2109.2,1770.0 L 2109.2,1770.0 2087.0,1760.6 2064.5,1751.9 2041.7,1743.9 2018.7,1736.7 1995.7,1730.5 1972.8,1725.2 1949.9,1720.9 1927.3,1717.7 1905.0,1715.6 1883.1,1714.7 1861.7,1714.9 1840.8,1716.4 1820.4,1719.0 1800.7,1722.9 1781.8,1728.1 1763.5,1734.5 1746.1,1742.2 1729.6,1751.2 1713.9,1761.4 1699.1,1772.8 1685.3,1785.4 1672.5,1799.2 1660.7,1814.1 1649.9,1830.1 1640.1,1847.2 1631.4,1865.2 1623.7,1884.2 1617.0,1904.1 1611.4,1924.8 1606.8,1946.3 1603.2,1968.4 1600.6,1991.0 1599.0,2014.2 1598.4,2037.8 1598.6,2061.6 1599.8,2085.6 1601.7,2109.7 1604.5,2133.7 1608.1,2157.6  Z" style="stroke-width: 0.0;  fill: rgb(0,0,0); opacity: 0.167;" />
<path d="M 1026.051,1031.533 A 666.400,666.400 0.00 0,1 1165.8,923.4 L 1165.8,923.4 1178.3,944.1 1191.4,964.4 1205.1,984.3 1219.5,1003.6 1234.4,1022.2 1249.9,1039.9 1265.9,1056.8 1282.2,1072.7 1299.1,1087.5 1316.2,1101.1 1333.7,1113.5 1351.5,1124.7 1369.5,1134.5 1387.7,1142.9 1406.1,1149.8 1424.6,1155.3 1443.3,1159.4 1461.9,1161.9 1480.6,1162.8 1499.2,1162.3 1517.8,1160.2 1536.3,1156.6 1554.6,1151.5 1572.8,1144.8 1590.7,1136.8 1608.4,1127.3 1625.8,1116.5 1642.9,1104.3 1659.6,1090.8 1675.9,1076.2 1691.8,1060.4 1707.2,1043.6 1722.1,1025.8 1736.5,1007.1 1750.3,987.7 1763.5,967.6 1776.1,946.9 1787.9,925.9 1799.1,904.5  A 666.400,666.400 0.00 0,1 1945.1,1004.0 L 1945.1,1004.0 1927.7,1022.7 1909.4,1041.0 1890.2,1058.7 1870.2,1075.9 1849.5,1092.4 1828.0,1108.2 1805.9,1123.1 1783.2,1137.2 1759.8,1150.4 1736.0,1162.7 1711.6,1173.9 1686.8,1184.0 1661.7,1193.1 1636.2,1201.1 1610.3,1207.9 1584.3,1213.5 1558.0,1218.0 1531.6,1221.2 1505.0,1223.2 1478.4,1224.0 1451.8,1223.6 1425.2,1222.0 1398.8,1219.1 1372.4,1215.0 1346.2,1209.8 1320.3,1203.4 1294.6,1195.8 1269.2,1187.1 1244.3,1177.4 1219.7,1166.6 1195.7,1154.8 1172.1,1142.1 1149.1,1128.5 1126.8,1114.0 1105.1,1098.8 1084.1,1082.9 1063.9,1066.3 1044.5,1049.2 1026.1,1031.5  Z" style="stroke-width: 0.0;  fill: rgb(0,0,0); opacity: 0.167;" />
<path d="M 2158.791,1600.417 A 666.400,666.400 0.00 0,1 2109.2,1770.0 L 2109.2,1770.0 2086.1,1759.3 2063.0,1747.5 2040.2,1734.7 2017.7,1721.0 1995.7,1706.4 1974.0,1690.9 1953.0,1674.5 1932.5,1657.2 1912.8,1639.1 1893.8,1620.2 1875.6,1600.5 1858.2,1580.1 1841.8,1558.9 1826.4,1537.1 1811.9,1514.7 1798.5,1491.6 1786.1,1468.0 1774.9,1443.9 1764.8,1419.3 1755.8,1394.2 1748.0,1368.8 1741.3,1343.0 1735.9,1316.9 1731.6,1290.6 1728.5,1264.1 1726.6,1237.4 1725.8,1210.6 1726.3,1183.9 1727.8,1157.1 1730.5,1130.4 1734.2,1103.9 1739.1,1077.5 1744.9,1051.5 1751.7,1025.8 1759.5,1000.4 1768.2,975.6 1777.7,951.2 1788.0,927.5 1799.1,904.5  A 666.400,666.400 0.00 0,1 1945.1,1004.0 L 1945.1,1004.0 1929.3,1022.2 1914.0,1041.0 1899.3,1060.2 1885.4,1079.8 1872.4,1099.8 1860.3,1120.0 1849.2,1140.4 1839.1,1160.9 1830.2,1181.4 1822.6,1202.0 1816.2,1222.4 1811.1,1242.8 1807.3,1262.9 1805.0,1282.9 1804.0,1302.5 1804.5,1321.8 1806.4,1340.8 1809.8,1359.3 1814.7,1377.3 1821.0,1394.9 1828.7,1411.9 1837.8,1428.4 1848.4,1444.2 1860.3,1459.5 1873.5,1474.0 1887.9,1487.9 1903.6,1501.1 1920.5,1513.6 1938.5,1525.3 1957.4,1536.3 1977.3,1546.6 1998.1,1556.0 2019.6,1564.7 2041.8,1572.6 2064.6,1579.8 2087.8,1586.1 2111.3,1591.6 2135.0,1596.4 2158.8,1600.4  Z" style="stroke-width: 0.0;  fill: rgb(0,0,0); opacity: 0.167;" />
<path d="M 1026.051,1031.533 A 666.400,666.400 0.00 0,1 1165.8,923.4 L 1165.8,923.4 1178.2,945.8 1190.0,968.8 1200.9,992.5 1211.1,1016.8 1220.3,1041.7 1228.7,1066.9 1236.1,1092.6 1242.5,1118.6 1247.8,1144.9 1252.1,1171.3 1255.2,1198.0 1257.3,1224.7 1258.1,1251.4 1257.8,1278.1 1256.3,1304.8 1253.6,1331.3 1249.7,1357.7 1244.6,1383.8 1238.3,1409.7 1230.9,1435.2 1222.3,1460.4 1212.5,1485.2 1201.6,1509.5 1189.5,1533.3 1176.5,1556.6 1162.3,1579.3 1147.2,1601.3 1131.1,1622.8 1114.1,1643.5 1096.3,1663.5 1077.7,1682.8 1058.3,1701.3 1038.2,1718.9 1017.6,1735.7 996.4,1751.6 974.8,1766.6 952.8,1780.7 930.5,1793.8 908.0,1806.0  A 666.400,666.400 0.00 0,1 848.4,1639.6 L 848.4,1639.6 871.9,1634.2 895.3,1628.0 918.4,1621.1 941.2,1613.4 963.5,1604.9 985.2,1595.7 1006.1,1585.7 1026.3,1575.0 1045.6,1563.6 1063.8,1551.5 1081.1,1538.7 1097.1,1525.3 1112.0,1511.1 1125.7,1496.4 1138.0,1481.1 1148.9,1465.2 1158.5,1448.7 1166.6,1431.7 1173.3,1414.3 1178.6,1396.4 1182.3,1378.1 1184.6,1359.4 1185.4,1340.4 1184.7,1321.0 1182.6,1301.5 1179.0,1281.7 1174.1,1261.8 1167.8,1241.8 1160.2,1221.8 1151.3,1201.7 1141.2,1181.7 1130.0,1161.9 1117.6,1142.2 1104.3,1122.8 1090.1,1103.6 1075.1,1084.9 1059.3,1066.6 1042.9,1048.8 1026.1,1031.5  Z" style="stroke-width: 0.0;  fill: rgb(0,0,0); opacity: 0.167;" />
</g>
</svg>
