<?xml version="1.0" encoding="utf-8" standalone="no"?>
<!DOCTYPE svg PUBLIC "-//W3C//DTD SVG 1.1//EN" "http://www.w3.org/Graphics/SVG/1.1/DTD/svg11.dtd">
<svg width="3000px" height="3000px" version="1.1" xmlns="http://www.w3.org/2000/svg" xmlns:xlink="http://www.w3.org/1999/xlink">
<g id="ideograms">
<path d="M1500.000,820.000 A680.000,680.000 40.000 0,1 2139.975,1270.149 L2205.855,1246.487 A750.000,750.000 0.000 0,0 1500.000,750.000 Z" style="stroke-linecap:round;fill:rgb(251,106,74);" />
<path d="M2146.718,1289.868 A680.000,680.000 40.000 0,1 1916.365,2037.625 L1959.226,2092.968 A750.000,750.000 0.000 0,0 2213.292,1268.237 Z" style="stroke-linecap:round;fill:rgb(116,196,118);" />
<path d="M1899.694,2050.132 A680.000,680.000 40.000 0,1 1117.352,2062.122 L1077.962,2119.987 A750.000,750.000 0.000 0,0 1940.839,2106.763 Z" style="stroke-linecap:round;fill:rgb(107,174,214);" />
<path d="M1100.306,2050.132 A680.000,680.000 40.000 0,1 847.146,1309.786 L779.940,1290.205 A750.000,750.000 0.000 0,0 1059.161,2106.763 Z" style="stroke-linecap:round;fill:rgb(255,244,80);" />
<path d="M853.282,1289.868 A680.000,680.000 40.000 0,1 1479.161,820.319 L1477.016,750.352 A750.000,750.000 0.000 0,0 786.708,1268.237 Z" style="stroke-linecap:round;fill:rgb(158,154,200);" />
</g>
<g id="track_0">
<path d="M 904.568,1799.249 A 666.400,666.400 0.00 0,1 846.0,1628.0 L 846.0,1628.0 873.5,1622.2 901.3,1615.4 929.5,1607.7 957.8,1599.1 986.4,1589.6 1015.1,1579.2 1044.0,1568.0 1072.9,1555.9 1101.9,1543.1 1130.8,1529.4 1159.8,1515.0 1188.7,1499.9 1217.4,1484.0 1246.0,1467.5 1274.4,1450.2 1302.6,1432.4 1330.5,1413.9 1358.1,1394.8 1385.4,1375.2 1412.2,1355.0 1438.7,1334.3 1464.8,1313.2 1490.3,1291.5 1515.3,1269.5 1539.8,1247.0 1563.7,1224.2 1587.0,1201.0 1609.6,1177.6 1631.5,1153.8 1652.7,1129.8 1673.2,1105.6 1692.8,1081.2 1711.7,1056.6 1729.7,1031.9 1746.8,1007.2 1763.0,982.4 1778.2,957.5 1792.5,932.7 1805.8,907.9  A 666.400,666.400 0.00 0,1 1953.9,1012.0 L 1953.9,1012.0 1933.0,1034.0 1911.4,1056.0 1889.0,1077.9 1866.0,1099.8 1842.4,1121.7 1818.1,1143.6 1793.3,1165.5 1768.1,1187.4 1742.3,1209.3 1716.2,1231.2 1689.6,1253.0 1662.7,1274.9 1635.5,1296.8 1608.0,1318.6 1580.3,1340.4 1552.3,1362.1 1524.2,1383.8 1495.9,1405.4 1467.5,1426.9 1438.9,1448.3 1410.3,1469.6 1381.7,1490.7 1353.0,1511.7 1324.3,1532.4 1295.6,1553.0 1267.0,1573.3 1238.4,1593.3 1209.9,1613.0 1181.4,1632.3 1153.1,1651.3 1124.9,1669.9 1096.8,1688.1 1068.8,1705.7 1041.0,1722.9 1013.4,1739.4 985.9,1755.4 958.6,1770.7 931.5,1785.4 904.6,1799.2  Z" style="stroke-width: 0.0;  fill: rgb(0,0,0); opacity: 0.167;" />
<path d="M 1600.604,2158.762 A 666.400,666.400 0.00 0,1 1419.6,2161.5 L 1419.6,2161.5 1423.2,2136.2 1427.7,2110.7 1433.3,2085.2 1439.8,2059.6 1447.3,2034.2 1455.9,2008.9 1465.4,1984.0 1476.0,1959.3 1487.6,1935.1 1500.1,1911.3 1513.6,1888.1 1528.1,1865.5 1543.6,1843.5 1559.9,1822.3 1577.2,1801.8 1595.3,1782.2 1614.3,1763.4 1634.1,1745.5 1654.7,1728.5 1676.1,1712.5 1698.1,1697.4 1720.9,1683.4 1744.2,1670.4 1768.2,1658.5 1792.7,1647.7 1817.6,1637.9 1843.0,1629.2 1868.8,1621.7 1894.9,1615.2 1921.2,1609.8 1947.7,1605.4 1974.3,1602.2 2001.0,1600.0 2027.6,1598.9 2054.1,1598.7 2080.5,1599.6 2106.6,1601.4 2132.3,1604.2 2157.6,1607.9  A 666.400,666.400 0.00 0,1 2104.3,1780.9 L 2104.3,1780.9 2082.3,1771.0 2059.9,1761.9 2037.3,1753.5 2014.5,1746.0 1991.6,1739.3 1968.8,1733.6 1946.1,1728.9 1923.6,1725.3 1901.4,1722.8 1879.6,1721.4 1858.2,1721.3 1837.3,1722.3 1817.0,1724.6 1797.4,1728.2 1778.4,1733.0 1760.2,1739.1 1742.7,1746.5 1726.1,1755.1 1710.4,1765.0 1695.6,1776.1 1681.7,1788.5 1668.7,1802.0 1656.8,1816.7 1645.8,1832.5 1635.9,1849.3 1627.0,1867.2 1619.1,1886.1 1612.3,1905.8 1606.4,1926.4 1601.6,1947.7 1597.8,1969.7 1595.0,1992.3 1593.1,2015.4 1592.2,2038.9 1592.2,2062.8 1593.1,2086.8 1594.8,2110.8 1597.3,2134.9 1600.6,2158.8  Z" style="stroke-width: 0.0;  fill: rgb(0,0,0); opacity: 0.167;" />
<path d="M 1031.399,1026.184 A 666.400,666.400 0.00 0,1 1176.2,917.6 L 1176.2,917.6 1188.2,938.4 1200.9,959.0 1214.3,979.1 1228.3,998.6 1242.9,1017.4 1258.0,1035.5 1273.6,1052.6 1289.7,1068.7 1306.2,1083.8 1323.1,1097.7 1340.3,1110.4 1357.8,1121.8 1375.5,1131.9 1393.5,1140.6 1411.7,1147.9 1430.1,1153.6 1448.5,1157.9 1467.0,1160.7 1485.5,1162.0 1504.1,1161.7 1522.6,1159.9 1541.0,1156.5 1559.3,1151.7 1577.4,1145.3 1595.4,1137.5 1613.1,1128.3 1630.6,1117.7 1647.7,1105.7 1664.5,1092.5 1681.0,1078.1 1697.0,1062.5 1712.5,1045.9 1727.6,1028.3 1742.2,1009.8 1756.2,990.5 1769.6,970.6 1782.3,950.1 1794.4,929.2 1805.8,907.9  A 666.400,666.400 0.00 0,1 1953.9,1012.0 L 1953.9,1012.0 1936.1,1030.4 1917.5,1048.4 1898.0,1065.8 1877.7,1082.6 1856.6,1098.8 1834.8,1114.2 1812.4,1128.8 1789.4,1142.5 1765.8,1155.3 1741.7,1167.2 1717.1,1178.0 1692.1,1187.8 1666.7,1196.5 1641.0,1204.0 1615.0,1210.4 1588.7,1215.7 1562.3,1219.7 1535.8,1222.6 1509.1,1224.2 1482.4,1224.6 1455.7,1223.8 1429.1,1221.8 1402.6,1218.5 1376.2,1214.1 1350.0,1208.5 1324.1,1201.7 1298.4,1193.8 1273.1,1184.8 1248.2,1174.7 1223.8,1163.6 1199.8,1151.6 1176.3,1138.5 1153.5,1124.6 1131.3,1109.9 1109.7,1094.4 1088.9,1078.2 1068.9,1061.4 1049.7,1044.0 1031.4,1026.2  Z" style="stroke-width: 0.0;  fill: rgb(0,0,0); opacity: 0.167;" />
<path d="M 2157.609,1607.889 A 666.400,666.400 0.00 0,1 2104.3,1780.9 L 2104.3,1780.9 2081.3,1769.7 2058.5,1757.5 2035.9,1744.3 2013.6,1730.2 1991.8,1715.2 1970.4,1699.2 1949.6,1682.4 1929.4,1664.8 1909.9,1646.3 1891.2,1627.0 1873.3,1607.0 1856.3,1586.2 1840.2,1564.7 1825.0,1542.6 1810.9,1519.9 1797.8,1496.5 1785.8,1472.7 1774.9,1448.3 1765.1,1423.5 1756.5,1398.2 1749.0,1372.6 1742.7,1346.6 1737.6,1320.4 1733.6,1293.9 1730.9,1267.3 1729.3,1240.5 1728.9,1213.7 1729.7,1186.8 1731.5,1160.0 1734.5,1133.3 1738.6,1106.8 1743.8,1080.5 1749.9,1054.5 1757.1,1028.8 1765.1,1003.5 1774.1,978.7 1783.9,954.5 1794.5,930.8 1805.8,907.9  A 666.400,666.400 0.00 0,1 1953.9,1012.0 L 1953.9,1012.0 1937.7,1029.9 1922.1,1048.4 1907.1,1067.3 1892.9,1086.7 1879.5,1106.4 1867.0,1126.3 1855.6,1146.5 1845.2,1166.7 1835.9,1187.1 1827.9,1207.4 1821.2,1227.7 1815.7,1247.9 1811.6,1267.9 1808.9,1287.7 1807.6,1307.2 1807.8,1326.4 1809.4,1345.3 1812.5,1363.8 1817.0,1381.8 1823.0,1399.3 1830.5,1416.4 1839.3,1432.9 1849.6,1448.8 1861.3,1464.0 1874.2,1478.7 1888.5,1492.7 1904.0,1506.0 1920.6,1518.6 1938.4,1530.5 1957.2,1541.7 1977.0,1552.1 1997.6,1561.8 2019.0,1570.7 2041.1,1578.8 2063.7,1586.2 2086.8,1592.8 2110.2,1598.6 2133.9,1603.6 2157.6,1607.9  Z" style="stroke-width: 0.0;  fill: rgb(0,0,0); opacity: 0.167;" />
<path d="M 1031.399,1026.184 A 666.400,666.400 0.00 0,1 1176.2,917.6 L 1176.2,917.6 1188.2,940.1 1199.5,963.4 1210.0,987.4 1219.8,1011.9 1228.6,1036.9 1236.5,1062.3 1243.5,1088.2 1249.4,1114.3 1254.3,1140.7 1258.1,1167.3 1260.9,1194.0 1262.4,1220.8 1262.8,1247.7 1262.1,1274.5 1260.1,1301.2 1257.0,1327.7 1252.7,1354.1 1247.2,1380.3 1240.5,1406.1 1232.7,1431.6 1223.7,1456.7 1213.5,1481.4 1202.2,1505.7 1189.8,1529.4 1176.4,1552.6 1162.0,1575.1 1146.5,1597.1 1130.1,1618.4 1112.9,1638.9 1094.7,1658.8 1075.8,1677.8 1056.2,1696.1 1035.9,1713.6 1015.1,1730.1 993.7,1745.8 971.8,1760.6 949.7,1774.5 927.2,1787.3 904.6,1799.2  A 666.400,666.400 0.00 0,1 846.0,1628.0 L 846.0,1628.0 869.6,1623.0 893.1,1617.2 916.3,1610.7 939.2,1603.4 961.6,1595.4 983.4,1586.6 1004.5,1577.0 1024.9,1566.7 1044.3,1555.7 1062.7,1544.0 1080.1,1531.5 1096.4,1518.4 1111.5,1504.6 1125.3,1490.2 1137.8,1475.1 1149.0,1459.5 1158.8,1443.3 1167.1,1426.5 1174.0,1409.3 1179.5,1391.6 1183.5,1373.4 1186.0,1354.9 1187.0,1336.0 1186.6,1316.7 1184.7,1297.3 1181.4,1277.5 1176.7,1257.7 1170.7,1237.7 1163.3,1217.6 1154.6,1197.5 1144.8,1177.5 1133.8,1157.5 1121.7,1137.7 1108.6,1118.2 1094.6,1098.9 1079.8,1080.0 1064.2,1061.6 1048.1,1043.6 1031.4,1026.2  Z" style="stroke-width: 0.0;  fill: rgb(0,0,0); opacity: 0.167;" />
</g>
</svg>
