<?xml version="1.0" encoding="utf-8" standalone="no"?>
<!DOCTYPE svg PUBLIC "-//W3C//DTD SVG 1.1//EN" "http://www.w3.org/Graphics/SVG/1.1/DTD/svg11.dtd">
<svg width="3000px" height="3000px" version="1.1" xmlns="http://www.w3.org/2000/svg" xmlns:xlink="http://www.w3.org/1999/xlink">
<g id="ideograms">
<path d="M1500.000,820.000 A680.000,680.000 40.000 0,1 2132.994,1251.568 L2198.155,1225.994 A750.000,750.000 0.000 0,0 1500.000,750.000 Z" style="stroke-linecap:round;fill:rgb(251,106,74);" />
<path d="M2146.718,1289.868 A680.000,680.000 40.000 0,1 1931.879,2025.244 L1976.337,2079.313 A750.000,750.000 0.000 0,0 2213.292,1268.237 Z" style="stroke-linecap:round;fill:rgb(116,196,118);" />
<path d="M1899.694,2050.132 A680.000,680.000 40.000 0,1 1133.922,2073.050 L1096.237,2132.041 A750.000,750.000 0.000 0,0 1940.839,2106.763 Z" style="stroke-linecap:round;fill:rgb(107,174,214);" />
<path d="M1100.306,2050.132 A680.000,680.000 40.000 0,1 841.872,1328.921 L774.124,1311.310 A750.000,750.000 0.000 0,0 1059.161,2106.763 Z" style="stroke-linecap:round;fill:rgb(255,244,80);" />
<path d="M853.282,1289.868 A680.000,680.000 40.000 0,1 1459.333,821.217 L1455.147,751.342 A750.000,750.000 0.000 0,0 786.708,1268.237 Z" style="stroke-linecap:round;fill:rgb(158,154,200);" />
</g>
<g id="track_0">
<path d="M 1058.223,1001.079 A 666.400,666.400 0.00 0,1 1128.3,946.9 L 1128.3,946.9 1141.9,968.0 1154.9,989.9 1167.2,1012.3 1178.7,1035.3 1189.3,1058.9 1199.0,1082.8 1207.7,1107.1 1215.3,1131.7 1221.9,1156.6 1227.4,1181.6 1231.7,1206.8 1234.8,1232.0 1236.7,1257.2 1237.4,1282.4 1236.8,1307.5 1234.9,1332.4 1231.8,1357.1 1227.3,1381.6 1221.6,1405.8 1214.7,1429.6 1206.5,1453.0 1197.0,1476.0 1186.4,1498.5 1174.5,1520.5 1161.5,1542.0 1147.4,1562.8 1132.2,1583.1 1116.0,1602.7 1098.9,1621.5 1080.8,1639.7 1061.8,1657.1 1042.1,1673.7 1021.7,1689.5 1000.7,1704.5 979.0,1718.6 957.0,1731.8 934.6,1744.1 911.9,1755.5 889.0,1766.0  A 666.400,666.400 0.00 0,1 859.1,1682.6 L 859.1,1682.6 882.5,1675.5 905.7,1667.6 928.7,1658.9 951.4,1649.3 973.5,1638.9 995.1,1627.8 1016.0,1615.8 1036.1,1603.1 1055.3,1589.6 1073.6,1575.4 1090.9,1560.5 1107.1,1544.9 1122.2,1528.7 1136.0,1511.8 1148.6,1494.3 1160.0,1476.3 1169.9,1457.7 1178.6,1438.6 1185.8,1419.1 1191.6,1399.1 1196.1,1378.7 1199.1,1358.0 1200.7,1336.9 1200.9,1315.6 1199.6,1294.1 1197.0,1272.4 1193.1,1250.6 1187.8,1228.8 1181.3,1206.9 1173.5,1185.1 1164.5,1163.4 1154.4,1141.8 1143.3,1120.5 1131.1,1099.5 1118.0,1078.8 1104.1,1058.6 1089.4,1038.8 1074.1,1019.6 1058.2,1001.1  Z" style="stroke-width: 0.0;  fill: rgb(0,0,0); opacity: 0.167;" />
</g>
</svg>
