<?xml version="1.0" encoding="utf-8" standalone="no"?>
<!DOCTYPE svg PUBLIC "-//W3C//DTD SVG 1.1//EN" "http://www.w3.org/Graphics/SVG/1.1/DTD/svg11.dtd">
<svg width="3000px" height="3000px" version="1.1" xmlns="http://www.w3.org/2000/svg" xmlns:xlink="http://www.w3.org/1999/xlink">
<g id="ideograms">
<path d="M1500.000,820.000 A680.000,680.000 40.000 0,1 2132.994,1251.568 L2198.155,1225.994 A750.000,750.000 0.000 0,0 1500.000,750.000 Z" style="stroke-linecap:round;fill:rgb(251,106,74);" />
<path d="M2146.718,1289.868 A680.000,680.000 40.000 0,1 1931.879,2025.244 L1976.337,2079.313 A750.000,750.000 0.000 0,0 2213.292,1268.237 Z" style="stroke-linecap:round;fill:rgb(116,196,118);" />
<path d="M1899.694,2050.132 A680.000,680.000 40.000 0,1 1133.922,2073.050 L1096.237,2132.041 A750.000,750.000 0.000 0,0 1940.839,2106.763 Z" style="stroke-linecap:round;fill:rgb(107,174,214);" />
<path d="M1100.306,2050.132 A680.000,680.000 40.000 0,1 841.872,1328.921 L774.124,1311.310 A750.000,750.000 0.000 0,0 1059.161,2106.763 Z" style="stroke-linecap:round;fill:rgb(255,244,80);" />
<path d="M853.282,1289.868 A680.000,680.000 40.000 0,1 1459.333,821.217 L1455.147,751.342 A750.000,750.000 0.000 0,0 786.708,1268.237 Z" style="stroke-linecap:round;fill:rgb(158,154,200);" />
</g>
<g id="track_0">
<path d="M 898.160,1786.143 A 666.400,666.400 0.00 0,1 853.4,1661.2 L 853.4,1661.2 880.8,1653.9 908.6,1645.7 936.6,1636.6 964.8,1626.6 993.2,1615.7 1021.8,1604.0 1050.5,1591.4 1079.3,1578.1 1108.1,1564.0 1136.9,1549.1 1165.7,1533.6 1194.4,1517.3 1223.0,1500.4 1251.5,1482.9 1279.8,1464.7 1307.9,1446.0 1335.8,1426.7 1363.4,1406.8 1390.7,1386.5 1417.6,1365.6 1444.2,1344.3 1470.3,1322.6 1496.0,1300.5 1521.2,1278.0 1545.9,1255.2 1570.1,1232.0 1593.7,1208.6 1616.6,1184.9 1638.9,1160.9 1660.5,1136.8 1681.4,1112.4 1701.6,1088.0 1720.9,1063.3 1739.5,1038.6 1757.1,1013.9 1773.9,989.1 1789.8,964.3 1804.8,939.5 1818.7,914.8  A 666.400,666.400 0.00 0,1 1928.4,989.5 L 1928.4,989.5 1908.8,1012.3 1888.5,1035.0 1867.4,1057.8 1845.5,1080.5 1823.0,1103.3 1799.9,1126.0 1776.2,1148.7 1751.9,1171.4 1727.1,1194.1 1701.8,1216.8 1676.1,1239.4 1650.0,1262.0 1623.5,1284.5 1596.7,1306.9 1569.6,1329.3 1542.3,1351.6 1514.7,1373.8 1486.9,1395.8 1458.9,1417.8 1430.7,1439.5 1402.5,1461.1 1374.2,1482.4 1345.7,1503.6 1317.3,1524.4 1288.8,1545.0 1260.3,1565.3 1231.9,1585.3 1203.5,1604.9 1175.1,1624.1 1146.8,1642.8 1118.6,1661.1 1090.5,1678.9 1062.6,1696.1 1034.8,1712.8 1007.1,1728.9 979.6,1744.3 952.3,1759.0 925.1,1773.0 898.2,1786.1  Z" style="stroke-width: 0.0;  fill: rgb(0,0,0); opacity: 0.167;" />
<path d="M 1586.159,2160.807 A 666.400,666.400 0.00 0,1 1453.5,2164.8 L 1453.5,2164.8 1455.7,2139.5 1458.9,2114.1 1463.1,2088.6 1468.3,2063.1 1474.4,2037.7 1481.6,2012.4 1489.8,1987.5 1499.0,1962.9 1509.2,1938.7 1520.4,1914.9 1532.6,1891.8 1545.8,1869.3 1560.0,1847.4 1575.1,1826.3 1591.1,1806.0 1608.1,1786.5 1626.0,1767.9 1644.7,1750.2 1664.3,1733.5 1684.6,1717.7 1705.7,1703.0 1727.6,1689.3 1750.1,1676.7 1773.2,1665.2 1796.9,1654.8 1821.2,1645.4 1845.9,1637.2 1871.0,1630.1 1896.5,1624.1 1922.2,1619.2 1948.2,1615.5 1974.4,1612.7 2000.6,1611.1 2026.8,1610.5 2052.9,1611.0 2078.9,1612.4 2104.7,1614.8 2130.1,1618.1 2155.1,1622.3  A 666.400,666.400 0.00 0,1 2117.9,1749.6 L 2117.9,1749.6 2095.2,1740.9 2072.2,1732.9 2048.9,1725.7 2025.5,1719.3 2001.9,1713.9 1978.4,1709.4 1955.1,1706.0 1931.9,1703.6 1909.0,1702.3 1886.4,1702.2 1864.3,1703.3 1842.7,1705.6 1821.7,1709.0 1801.2,1713.8 1781.5,1719.7 1762.5,1726.9 1744.3,1735.3 1726.9,1745.0 1710.4,1755.9 1694.7,1768.0 1680.1,1781.2 1666.3,1795.6 1653.6,1811.2 1641.8,1827.7 1631.1,1845.3 1621.4,1863.9 1612.7,1883.4 1605.1,1903.8 1598.5,1924.9 1592.9,1946.7 1588.4,1969.2 1584.9,1992.2 1582.3,2015.7 1580.7,2039.6 1580.1,2063.7 1580.3,2088.0 1581.5,2112.4 1583.4,2136.7 1586.2,2160.8  Z" style="stroke-width: 0.0;  fill: rgb(0,0,0); opacity: 0.167;" />
<path d="M 1058.223,1001.079 A 666.400,666.400 0.00 0,1 1128.3,946.9 L 1128.3,946.9 1142.2,967.0 1157.0,986.6 1172.4,1005.8 1188.5,1024.4 1205.2,1042.2 1222.5,1059.3 1240.3,1075.4 1258.6,1090.6 1277.4,1104.8 1296.5,1117.8 1316.0,1129.6 1335.9,1140.2 1356.0,1149.5 1376.3,1157.5 1396.8,1164.1 1417.5,1169.3 1438.2,1173.0 1459.0,1175.3 1479.9,1176.2 1500.7,1175.5 1521.5,1173.5 1542.1,1169.9 1562.6,1164.9 1582.9,1158.5 1603.0,1150.7 1622.8,1141.5 1642.3,1131.1 1661.5,1119.3 1680.3,1106.3 1698.6,1092.2 1716.5,1076.9 1733.8,1060.7 1750.7,1043.5 1766.9,1025.4 1782.5,1006.6 1797.5,987.1 1811.7,967.0 1825.2,946.5 1838.0,925.7  A 666.400,666.400 0.00 0,1 1911.1,975.6 L 1911.1,975.6 1895.3,995.1 1878.5,1014.2 1861.0,1032.8 1842.6,1050.8 1823.5,1068.2 1803.7,1084.8 1783.3,1100.6 1762.3,1115.5 1740.7,1129.4 1718.5,1142.3 1695.9,1154.2 1672.9,1165.0 1649.5,1174.6 1625.8,1183.0 1601.8,1190.2 1577.5,1196.1 1553.0,1200.7 1528.4,1204.1 1503.6,1206.1 1478.8,1206.9 1454.0,1206.3 1429.2,1204.4 1404.5,1201.3 1379.9,1196.8 1355.5,1191.1 1331.3,1184.1 1307.3,1175.9 1283.7,1166.5 1260.5,1156.1 1237.6,1144.5 1215.2,1131.8 1193.3,1118.2 1172.0,1103.7 1151.2,1088.3 1131.1,1072.1 1111.7,1055.2 1093.1,1037.7 1075.2,1019.6 1058.2,1001.1  Z" style="stroke-width: 0.0;  fill: rgb(0,0,0); opacity: 0.167;" />
<path d="M 1026.051,1031.533 A 666.400,666.400 0.00 0,1 1165.8,923.4 L 1165.8,923.4 1178.2,945.8 1190.0,968.8 1200.9,992.5 1211.1,1016.8 1220.3,1041.7 1228.7,1066.9 1236.1,1092.6 1242.5,1118.6 1247.8,1144.9 1252.1,1171.3 1255.2,1198.0 1257.3,1224.7 1258.1,1251.4 1257.8,1278.1 1256.3,1304.8 1253.6,1331.3 1249.7,1357.7 1244.6,1383.8 1238.3,1409.7 1230.9,1435.2 1222.3,1460.4 1212.5,1485.2 1201.6,1509.5 1189.5,1533.3 1176.5,1556.6 1162.3,1579.3 1147.2,1601.3 1131.1,1622.8 1114.1,1643.5 1096.3,1663.5 1077.7,1682.8 1058.3,1701.3 1038.2,1718.9 1017.6,1735.7 996.4,1751.6 974.8,1766.6 952.8,1780.7 930.5,1793.8 908.0,1806.0  A 666.400,666.400 0.00 0,1 848.4,1639.6 L 848.4,1639.6 871.9,1634.2 895.3,1628.0 918.4,1621.1 941.2,1613.4 963.5,1604.9 985.2,1595.7 1006.1,1585.7 1026.3,1575.0 1045.6,1563.6 1063.8,1551.5 1081.1,1538.7 1097.1,1525.3 1112.0,1511.1 1125.7,1496.4 1138.0,1481.1 1148.9,1465.2 1158.5,1448.7 1166.6,1431.7 1173.3,1414.3 1178.6,1396.4 1182.3,1378.1 1184.6,1359.4 1185.4,1340.4 1184.7,1321.0 1182.6,1301.5 1179.0,1281.7 1174.1,1261.8 1167.8,1241.8 1160.2,1221.8 1151.3,1201.7 1141.2,1181.7 1130.0,1161.9 1117.6,1142.2 1104.3,1122.8 1090.1,1103.6 1075.1,1084.9 1059.3,1066.6 1042.9,1048.8 1026.1,1031.5  Z" style="stroke-width: 0.0;  fill: rgb(0,0,0); opacity: 0.167;" />
</g>
</svg>
