<?xml version="1.0" encoding="utf-8" standalone="no"?>
<!DOCTYPE svg PUBLIC "-//W3C//DTD SVG 1.1//EN" "http://www.w3.org/Graphics/SVG/1.1/DTD/svg11.dtd">
<svg width="3000px" height="3000px" version="1.1" xmlns="http://www.w3.org/2000/svg" xmlns:xlink="http://www.w3.org/1999/xlink">
<g id="ideograms">
<path d="M1500.000,820.000 A680.000,680.000 40.000 0,1 2139.975,1270.149 L2205.855,1246.487 A750.000,750.000 0.000 0,0 1500.000,750.000 Z" style="stroke-linecap:round;fill:rgb(251,106,74);" />
<path d="M2146.718,1289.868 A680.000,680.000 40.000 0,1 1916.365,2037.625 L1959.226,2092.968 A750.000,750.000 0.000 0,0 2213.292,1268.237 Z" style="stroke-linecap:round;fill:rgb(116,196,118);" />
<path d="M1899.694,2050.132 A680.000,680.000 40.000 0,1 1117.352,2062.122 L1077.962,2119.987 A750.000,750.000 0.000 0,0 1940.839,2106.763 Z" style="stroke-linecap:round;fill:rgb(107,174,214);" />
<path d="M1100.306,2050.132 A680.000,680.000 40.000 0,1 847.146,1309.786 L779.940,1290.205 A750.000,750.000 0.000 0,0 1059.161,2106.763 Z" style="stroke-linecap:round;fill:rgb(255,244,80);" />
<path d="M853.282,1289.868 A680.000,680.000 40.000 0,1 1479.161,820.319 L1477.016,750.352 A750.000,750.000 0.000 0,0 786.708,1268.237 Z" style="stroke-linecap:round;fill:rgb(158,154,200);" />
</g>
<g id="track_0">
<path d="M 894.724,1778.802 A 666.400,666.400 0.00 0,1 850.7,1650.2 L 850.7,1650.2 878.3,1643.4 906.2,1635.6 934.3,1627.0 962.7,1617.4 991.2,1607.0 1020.0,1595.8 1048.8,1583.7 1077.8,1570.9 1106.8,1557.2 1135.8,1542.9 1164.8,1527.8 1193.8,1512.0 1222.6,1495.6 1251.4,1478.5 1279.9,1460.8 1308.3,1442.5 1336.4,1423.6 1364.3,1404.2 1391.9,1384.2 1419.1,1363.8 1445.9,1342.9 1472.4,1321.6 1498.4,1299.9 1523.9,1277.8 1548.9,1255.3 1573.3,1232.5 1597.2,1209.4 1620.4,1186.0 1643.0,1162.4 1664.9,1138.5 1686.1,1114.5 1706.6,1090.3 1726.2,1065.9 1745.1,1041.5 1763.1,1017.0 1780.2,992.4 1796.3,967.8 1811.6,943.2 1825.8,918.7  A 666.400,666.400 0.00 0,1 1937.0,996.9 L 1937.0,996.9 1917.0,1019.3 1896.3,1041.8 1874.8,1064.2 1852.6,1086.6 1829.7,1108.9 1806.2,1131.3 1782.1,1153.6 1757.4,1175.9 1732.3,1198.2 1706.6,1220.5 1680.5,1242.7 1654.1,1264.9 1627.3,1287.0 1600.1,1309.0 1572.7,1331.0 1545.0,1352.9 1517.0,1374.7 1488.9,1396.3 1460.6,1417.8 1432.1,1439.2 1403.6,1460.3 1374.9,1481.3 1346.2,1502.0 1317.4,1522.5 1288.7,1542.7 1259.9,1562.6 1231.2,1582.2 1202.5,1601.4 1173.8,1620.2 1145.3,1638.6 1116.9,1656.5 1088.5,1673.9 1060.4,1690.8 1032.3,1707.1 1004.4,1722.9 976.7,1737.9 949.2,1752.3 921.9,1765.9 894.7,1778.8  Z" style="stroke-width: 0.0;  fill: rgb(0,0,0); opacity: 0.167;" />
<path d="M 1578.116,2161.806 A 666.400,666.400 0.00 0,1 1442.2,2163.9 L 1442.2,2163.9 1444.9,2138.7 1448.5,2113.3 1453.1,2087.8 1458.7,2062.4 1465.3,2037.1 1472.9,2011.9 1481.5,1987.1 1491.1,1962.6 1501.8,1938.5 1513.4,1915.0 1526.0,1892.0 1539.6,1869.6 1554.1,1848.0 1569.6,1827.0 1586.0,1806.9 1603.4,1787.7 1621.6,1769.3 1640.6,1751.8 1660.5,1735.4 1681.1,1719.9 1702.5,1705.4 1724.5,1692.0 1747.3,1679.7 1770.6,1668.5 1794.5,1658.3 1818.9,1649.3 1843.8,1641.4 1869.1,1634.6 1894.7,1628.9 1920.5,1624.3 1946.6,1620.9 1972.8,1618.5 1999.1,1617.2 2025.3,1616.9 2051.5,1617.7 2077.5,1619.4 2103.2,1622.1 2128.6,1625.7 2153.6,1630.2  A 666.400,666.400 0.00 0,1 2113.5,1760.1 L 2113.5,1760.1 2091.1,1751.0 2068.2,1742.6 2045.0,1735.0 2021.7,1728.2 1998.3,1722.4 1974.9,1717.5 1951.6,1713.7 1928.5,1710.9 1905.7,1709.3 1883.2,1708.8 1861.1,1709.5 1839.5,1711.3 1818.5,1714.5 1798.1,1718.8 1778.3,1724.4 1759.2,1731.3 1741.0,1739.4 1723.5,1748.8 1706.9,1759.4 1691.1,1771.2 1676.3,1784.2 1662.4,1798.3 1649.5,1813.6 1637.6,1830.0 1626.7,1847.4 1616.8,1865.8 1607.9,1885.1 1600.1,1905.3 1593.2,1926.3 1587.4,1948.0 1582.6,1970.4 1578.8,1993.4 1576.0,2016.8 1574.1,2040.6 1573.2,2064.7 1573.2,2089.0 1574.0,2113.4 1575.7,2137.7 1578.1,2161.8  Z" style="stroke-width: 0.0;  fill: rgb(0,0,0); opacity: 0.167;" />
<path d="M 1064.732,995.390 A 666.400,666.400 0.00 0,1 1137.3,941.0 L 1137.3,941.0 1150.9,961.2 1165.3,981.1 1180.4,1000.5 1196.2,1019.3 1212.6,1037.5 1229.6,1054.8 1247.1,1071.2 1265.2,1086.7 1283.7,1101.1 1302.6,1114.5 1321.9,1126.6 1341.5,1137.5 1361.4,1147.1 1381.6,1155.4 1401.9,1162.3 1422.5,1167.7 1443.1,1171.8 1463.9,1174.4 1484.6,1175.6 1505.4,1175.3 1526.1,1173.5 1546.8,1170.2 1567.3,1165.5 1587.7,1159.4 1607.8,1151.9 1627.7,1143.0 1647.3,1132.8 1666.6,1121.3 1685.5,1108.6 1704.0,1094.7 1722.0,1079.7 1739.6,1063.7 1756.6,1046.7 1773.1,1028.9 1788.9,1010.3 1804.1,991.0 1818.6,971.1 1832.4,950.8 1845.4,930.1  A 666.400,666.400 0.00 0,1 1919.6,982.3 L 1919.6,982.3 1903.4,1001.5 1886.4,1020.4 1868.5,1038.7 1849.8,1056.4 1830.4,1073.5 1810.4,1089.8 1789.7,1105.3 1768.4,1119.8 1746.5,1133.5 1724.2,1146.1 1701.4,1157.6 1678.1,1168.0 1654.6,1177.2 1630.7,1185.3 1606.5,1192.1 1582.1,1197.7 1557.5,1201.9 1532.8,1204.9 1507.9,1206.6 1483.1,1207.0 1458.2,1206.1 1433.4,1203.8 1408.7,1200.3 1384.1,1195.5 1359.8,1189.4 1335.6,1182.1 1311.8,1173.6 1288.2,1163.9 1265.1,1153.1 1242.4,1141.2 1220.1,1128.3 1198.4,1114.3 1177.2,1099.5 1156.6,1083.8 1136.7,1067.4 1117.6,1050.2 1099.1,1032.4 1081.5,1014.1 1064.7,995.4  Z" style="stroke-width: 0.0;  fill: rgb(0,0,0); opacity: 0.167;" />
<path d="M 1031.399,1026.184 A 666.400,666.400 0.00 0,1 1176.2,917.6 L 1176.2,917.6 1188.2,940.1 1199.5,963.4 1210.0,987.4 1219.8,1011.9 1228.6,1036.9 1236.5,1062.3 1243.5,1088.2 1249.4,1114.3 1254.3,1140.7 1258.1,1167.3 1260.9,1194.0 1262.4,1220.8 1262.8,1247.7 1262.1,1274.5 1260.1,1301.2 1257.0,1327.7 1252.7,1354.1 1247.2,1380.3 1240.5,1406.1 1232.7,1431.6 1223.7,1456.7 1213.5,1481.4 1202.2,1505.7 1189.8,1529.4 1176.4,1552.6 1162.0,1575.1 1146.5,1597.1 1130.1,1618.4 1112.9,1638.9 1094.7,1658.8 1075.8,1677.8 1056.2,1696.1 1035.9,1713.6 1015.1,1730.1 993.7,1745.8 971.8,1760.6 949.7,1774.5 927.2,1787.3 904.6,1799.2  A 666.400,666.400 0.00 0,1 846.0,1628.0 L 846.0,1628.0 869.6,1623.0 893.1,1617.2 916.3,1610.7 939.2,1603.4 961.6,1595.4 983.4,1586.6 1004.5,1577.0 1024.9,1566.7 1044.3,1555.7 1062.7,1544.0 1080.1,1531.5 1096.4,1518.4 1111.5,1504.6 1125.3,1490.2 1137.8,1475.1 1149.0,1459.5 1158.8,1443.3 1167.1,1426.5 1174.0,1409.3 1179.5,1391.6 1183.5,1373.4 1186.0,1354.9 1187.0,1336.0 1186.6,1316.7 1184.7,1297.3 1181.4,1277.5 1176.7,1257.7 1170.7,1237.7 1163.3,1217.6 1154.6,1197.5 1144.8,1177.5 1133.8,1157.5 1121.7,1137.7 1108.6,1118.2 1094.6,1098.9 1079.8,1080.0 1064.2,1061.6 1048.1,1043.6 1031.4,1026.2  Z" style="stroke-width: 0.0;  fill: rgb(0,0,0); opacity: 0.167;" />
</g>
</svg>
