<?xml version="1.0" encoding="utf-8" standalone="no"?>
<!DOCTYPE svg PUBLIC "-//W3C//DTD SVG 1.1//EN" "http://www.w3.org/Graphics/SVG/1.1/DTD/svg11.dtd">
<svg width="3000px" height="3000px" version="1.1" xmlns="http://www.w3.org/2000/svg" xmlns:xlink="http://www.w3.org/1999/xlink">
<g id="ideograms">
<path d="M1500.000,820.000 A680.000,680.000 40.000 0,1 2139.975,1270.149 L2205.855,1246.487 A750.000,750.000 0.000 0,0 1500.000,750.000 Z" style="stroke-linecap:round;fill:rgb(251,106,74);" />
<path d="M2146.718,1289.868 A680.000,680.000 40.000 0,1 1916.365,2037.625 L1959.226,2092.968 A750.000,750.000 0.000 0,0 2213.292,1268.237 Z" style="stroke-linecap:round;fill:rgb(116,196,118);" />
<path d="M1899.694,2050.132 A680.000,680.000 40.000 0,1 1117.352,2062.122 L1077.962,2119.987 A750.000,750.000 0.000 0,0 1940.839,2106.763 Z" style="stroke-linecap:round;fill:rgb(107,174,214);" />
<path d="M1100.306,2050.132 A680.000,680.000 40.000 0,1 847.146,1309.786 L779.940,1290.205 A750.000,750.000 0.000 0,0 1059.161,2106.763 Z" style="stroke-linecap:round;fill:rgb(255,244,80);" />
<path d="M853.282,1289.868 A680.000,680.000 40.000 0,1 1479.161,820.319 L1477.016,750.352 A750.000,750.000 0.000 0,0 786.708,1268.237 Z" style="stroke-linecap:round;fill:rgb(158,154,200);" />
</g>
<g id="track_0">
<path d="M 1064.732,995.390 A 666.400,666.400 0.00 0,1 1137.3,941.0 L 1137.3,941.0 1150.6,962.3 1163.2,984.3 1175.2,1007.0 1186.3,1030.2 1196.5,1053.9 1205.8,1078.1 1214.1,1102.5 1221.4,1127.3 1227.6,1152.3 1232.6,1177.4 1236.6,1202.7 1239.3,1228.0 1240.8,1253.3 1241.1,1278.5 1240.1,1303.6 1237.8,1328.5 1234.3,1353.2 1229.5,1377.7 1223.4,1401.8 1216.1,1425.6 1207.6,1448.9 1197.8,1471.8 1186.8,1494.2 1174.6,1516.1 1161.3,1537.4 1146.9,1558.1 1131.4,1578.2 1114.9,1597.5 1097.5,1616.2 1079.1,1634.2 1060.0,1651.3 1040.0,1667.7 1019.4,1683.2 998.1,1697.9 976.3,1711.8 954.1,1724.7 931.5,1736.8 908.6,1747.9 885.6,1758.0  A 666.400,666.400 0.00 0,1 856.2,1672.2 L 856.2,1672.2 879.7,1665.5 903.1,1658.0 926.2,1649.6 949.0,1640.4 971.3,1630.4 993.0,1619.6 1014.1,1608.0 1034.4,1595.6 1053.8,1582.5 1072.3,1568.6 1089.8,1554.0 1106.2,1538.7 1121.5,1522.7 1135.6,1506.1 1148.5,1488.9 1160.1,1471.1 1170.3,1452.7 1179.2,1433.8 1186.7,1414.4 1192.8,1394.5 1197.5,1374.2 1200.8,1353.6 1202.7,1332.6 1203.2,1311.4 1202.2,1289.9 1199.9,1268.2 1196.3,1246.4 1191.3,1224.5 1185.1,1202.6 1177.6,1180.7 1168.9,1158.9 1159.1,1137.3 1148.2,1115.9 1136.3,1094.7 1123.5,1073.9 1109.9,1053.5 1095.4,1033.5 1080.4,1014.1 1064.7,995.4  Z" style="stroke-width: 0.0;  fill: rgb(0,0,0); opacity: 0.167;" />
</g>
</svg>
